<?xml version="1.0" standalone="no"?>
<!DOCTYPE svg PUBLIC "-//W3C//DTD SVG 1.1//EN" "http://www.w3.org/Graphics/SVG/1.1/DTD/svg11.dtd" >
<svg xmlns="http://www.w3.org/2000/svg">
<metadata>
Created by FontPrep 20130207 at Mon May 11 01:46:53 2015
 By Joeri
Copyright   2006, 2008-2011 Adobe Systems Incorporated. All Rights Reserved.
</metadata>
<defs>
<font id="2bc2b55a7646af2e15e99213af08337c" horiz-adv-x='1024' >
  <font-face 
    font-family="AdobeKaitiStandardOpenType-Regular"
    font-weight="400"
    font-stretch="normal"
    units-per-em="2048"
    panose-1="0 0 5 0 0 0 0 0 0 0"
    ascent="1802"
    descent="-246"
    x-height="1026"
    cap-height="1516"
    bbox="-219 -553.009 2048 1915"
    underline-thickness="0"
    underline-position="0"
    unicode-range="U+0020-FFE5"
  />
<missing-glyph 
d="M373 -143h1302l-651 837zM1090 778l651 -837v1675zM307 1616v-1675l651 837zM1024 862l651 838h-1302zM1843 -246h-1638v2048h1638v-2048z" />
    <glyph glyph-name=".notdef" 
d="M373 -143h1302l-651 837zM1090 778l651 -837v1675zM307 1616v-1675l651 837zM1024 862l651 838h-1302zM1843 -246h-1638v2048h1638v-2048z" />
    <glyph glyph-name=".null" horiz-adv-x="0" 
 />
    <glyph glyph-name="nonmarkingreturn" horiz-adv-x="681" 
 />
    <glyph glyph-name="space" unicode=" " horiz-adv-x="569" 
 />
    <glyph glyph-name="exclam" unicode="!" horiz-adv-x="612" 
d="M410 88q0 -45 -30 -78t-74 -33t-75 33t-30 78q0 45 30 78q31 33 76 33t74 -33t29 -78zM215 1483q0 39 18 51q17 12 71 12t74 -13t19 -50q-1 -147 -25 -549t-34 -600h-66q-14 280 -36 640t-21 509z" />
    <glyph glyph-name="quotedbl" unicode="&#x22;" horiz-adv-x="722" 
d="M471 1075l-39 404q0 67 71 67t70 -67l-41 -404h-61zM190 1075l-40 404q0 67 72 67t71 -67l-41 -404h-62z" />
    <glyph glyph-name="numbersign" unicode="#" horiz-adv-x="1257" 
d="M526 895l-41 -283h258l41 283h-258zM657 0l76 530h-258l-76 -530h-98l76 530h-262l10 82h262l41 283h-262l10 82h262l74 508h98l-73 -508h260l71 508h97l-70 -508h258l-12 -82h-258l-41 -283h260l-10 -82h-261l-75 -530h-99z" />
    <glyph glyph-name="dollar" unicode="$" horiz-adv-x="1257" 
d="M918 350q0 100 -62 171t-197 138v-565q119 10 189 83t70 173zM578 1366q-122 0 -196 -88q-40 -48 -40 -128q0 -81 55 -142t181 -138v496zM1034 1190q0 -86 -61 -86t-92 94q-31 86 -93 128t-129 42v-539q121 -57 202 -107t143 -134t61 -203t-63 -201t-156 -122t-187 -42
v-170h-81v170q-115 0 -206 40q-90 40 -142 102t-52 127q0 88 66 88q49 0 71 -62q43 -113 105 -165t158 -56v608q-12 8 -113 64q-111 66 -183 148t-73 200q0 117 54 188q54 72 138 106t177 34v139h81v-139q101 0 187 -37t137 -95t51 -120z" />
    <glyph glyph-name="percent" unicode="%" horiz-adv-x="1476" 
d="M1108 35q176 0 176 330t-178 329q-180 0 -178 -329q0 -145 37 -237t143 -93zM803 362q0 174 70 283q71 109 229 109q311 0 311 -387q0 -201 -82 -296t-223 -96q-305 0 -305 387zM362 1448q-178 0 -178 -330q0 -145 36 -237t142 -93q176 0 177 330q0 138 -34 234t-143 96z
M244 -25l882 1532h97l-883 -1532h-96zM670 1100q0 -213 -96 -293t-210 -80t-210 75t-97 314q0 162 69 277t239 114q305 0 305 -407z" />
    <glyph glyph-name="ampersand" unicode="&#x26;" horiz-adv-x="1505" 
d="M622 49q136 0 259 119q-172 195 -379 518q-66 -43 -115 -104q-78 -86 -78 -234t89 -224q88 -75 224 -75zM457 1146q0 -112 118 -298q100 53 182 136q81 82 81 188t-56 154t-135 48q-80 0 -135 -58t-55 -170zM1280 59q66 0 117 56l41 -49q-80 -94 -213 -94t-279 139
q-145 -139 -358 -140q-158 -1 -256 57q-184 108 -182 320q0 119 46 201t106 129t151 98q-252 412 -38 589q97 81 238 81q96 0 169 -36t112 -97t39 -133q0 -130 -88 -224t-260 -184q172 -266 368 -508q72 82 110 186t38 207q0 47 -27 65t-94 17v60h369v-60q-72 3 -106 -22
t-52 -107q-45 -248 -187 -407q72 -78 121 -111t115 -33z" />
    <glyph glyph-name="quotesingle" unicode="'" horiz-adv-x="442" 
d="M190 1346q-30 0 -50 22q-22 22 -22 71q0 48 30 78q30 29 75 29t73 -38t28 -103q0 -172 -150 -289l-37 41q101 92 105 211q-22 -22 -52 -22z" />
    <glyph glyph-name="parenleft" unicode="(" horiz-adv-x="661" 
d="M233 626q0 423 148 703q86 174 260 311l35 -47q-291 -283 -290 -967t290 -974l-33 -47q-156 110 -283 354t-127 667z" />
    <glyph glyph-name="parenright" unicode=")" horiz-adv-x="661" 
d="M428 629v-4q0 -420 -126 -666t-284 -354l-32 47q291 287 293 973q0 686 -293 968l34 47q175 -137 261 -309q147 -283 147 -702z" />
    <glyph glyph-name="asterisk" unicode="*" horiz-adv-x="919" 
d="M410 788l20 330l-274 -184l-52 88l297 145l-295 148l52 86l272 -180l-20 325h100l-21 -325l273 180l51 -88l-293 -146l295 -145l-51 -88l-275 184l21 -330h-100z" />
    <glyph glyph-name="plus" unicode="+" horiz-adv-x="1083" 
d="M1010 592v-103h-418v-432h-103v432h-415v103h415v407h103v-407h418z" />
    <glyph glyph-name="comma" unicode="," horiz-adv-x="448" 
d="M204 -16q-34 0 -58 26t-24 71q0 46 31 77q29 30 77 30t76 -36t28 -99q0 -188 -166 -301l-35 41q51 41 83 98t34 113h-2q-10 -20 -44 -20z" />
    <glyph glyph-name="hyphen" unicode="-" horiz-adv-x="626" 
d="M547 463h-465v96h465v-96z" />
    <glyph glyph-name="period" unicode="." horiz-adv-x="448" 
d="M328 87q0 -44 -31 -77t-75 -33t-74 33t-29 78q0 45 29 78q30 33 75 33t75 -34t30 -78z" />
    <glyph glyph-name="slash" unicode="/" horiz-adv-x="927" 
d="M61 -25l713 1606h111l-715 -1606h-109z" />
    <glyph glyph-name="zero" unicode="0" horiz-adv-x="1257" 
d="M266 762q0 -324 74 -520t282 -195q208 -1 286 189t77 509q0 430 -135 590q-86 94 -225 95q-189 -1 -274 -172q-85 -172 -85 -496zM96 756q0 441 191 624q137 127 341 127t341 -127q193 -184 193 -624t-167 -629q-143 -158 -367 -158t-366 158q-166 188 -166 629z" />
    <glyph glyph-name="one" unicode="1" horiz-adv-x="1257" 
d="M731 229q0 -81 11 -113q10 -32 48 -41t136 -9v-66h-564v66q102 0 142 9t52 41q11 32 11 113v945q0 65 -11 93q-11 27 -43 27t-138 -41l-17 62q207 82 351 178l22 -12v-1252z" />
    <glyph glyph-name="two" unicode="2" horiz-adv-x="1257" 
d="M172 1216q0 52 52 123q52 70 156 119t262 49q159 0 264 -56q104 -56 148 -140t44 -174q0 -221 -250 -389q-176 -119 -274 -197q-225 -179 -306 -424h580q70 0 102 13t54 51q20 38 45 131l67 -11l-63 -311h-891l-27 33q45 195 132 336t185 232t224 181q127 90 187 169
q61 79 61 196t-68 199t-235 81q-103 0 -181 -50t-116 -181q-12 -45 -32 -62t-56 -18q-64 0 -64 100z" />
    <glyph glyph-name="three" unicode="3" horiz-adv-x="1257" 
d="M133 274q0 88 70 88q45 0 80 -63q47 -90 94 -133q92 -119 239 -119q186 0 285 137q57 80 57 211t-69 221q-117 147 -420 148v76q250 0 372 139q62 71 62 185t-78 189t-206 75q-129 0 -195 -64q-66 -62 -88 -128t-42 -90t-63 -24q-66 0 -65 90q0 53 52 124t154 121t246 50
q219 0 335 -99t116 -255q0 -115 -83 -214t-286 -126v-6q255 -17 373 -189q59 -86 59 -204t-56 -217t-174 -163t-279 -64t-269 48q-108 49 -165 120q-56 71 -56 136z" />
    <glyph glyph-name="four" unicode="4" horiz-adv-x="1257" 
d="M752 496v583q0 61 4 209h-8q-17 -23 -46 -76t-73 -120l-379 -596h502zM918 1503v-1007h186l-14 -88h-172v-179q0 -79 9 -111t42 -42t112 -10v-66h-522v66q96 0 134 11t48 42t11 110v179h-623v65l666 1030h123z" />
    <glyph glyph-name="five" unicode="5" horiz-adv-x="1257" 
d="M887 1481q55 0 71 6t27 29h64l-43 -166h-605l-75 -476l4 -2q126 94 324 94t321 -126q123 -127 123 -342q0 -150 -54 -270t-168 -190q-112 -70 -258 -69q-146 0 -247 46q-102 46 -161 116q-58 70 -58 126q0 103 73 101q53 0 86 -69q29 -92 98 -166t195 -74q80 0 153 43
t120 141t47 252q0 399 -324 400q-102 0 -183 -44t-134 -116l-66 18l107 738h563z" />
    <glyph glyph-name="six" unicode="6" horiz-adv-x="1257" 
d="M660 854q-112 0 -189 -48q-76 -48 -118 -125t-42 -177t38 -208q38 -110 113 -180t179 -69q104 0 178 58q74 59 111 155t37 188t-26 179q-25 87 -97 157t-184 70zM689 938q129 0 233 -58t160 -164t56 -246t-58 -255t-170 -181t-269 -65q-227 1 -369 181t-143 559
q0 465 220 681q120 118 319 117q127 0 217 -42t136 -105q46 -62 46 -112q0 -96 -63 -97q-35 0 -57 24t-46 80q-61 172 -244 172q-127 0 -207 -103t-115 -262q-36 -159 -34 -333h6q129 209 382 209z" />
    <glyph glyph-name="seven" unicode="7" horiz-adv-x="1257" 
d="M434 1350q-76 0 -110 -12t-54 -48q-20 -37 -45 -125h-78l66 316h903l21 -37q-246 -310 -381 -698t-146 -771h-184q8 291 97 561q151 460 435 814h-524z" />
    <glyph glyph-name="eight" unicode="8" horiz-adv-x="1257" 
d="M618 49q152 0 247 81t96 228q0 121 -123 224q-94 76 -279 141q-279 -113 -278 -342q0 -147 93 -239q92 -92 244 -93zM928 1151q0 109 -69 193t-225 84t-235 -72q-77 -72 -77 -186t90 -186q90 -71 256 -130q124 49 192 118t68 179zM166 1157q0 88 48 168t152 131t259 51
q229 0 344 -100t114 -252q0 -227 -303 -340v-6q148 -57 253 -171t105 -237t-56 -219t-172 -154t-271 -58q-313 -1 -451 189q-68 93 -68 211t80 222q79 104 259 176v4q-293 132 -293 385z" />
    <glyph glyph-name="nine" unicode="9" horiz-adv-x="1257" 
d="M612 625q94 0 170 47t119 126q43 78 43 178t-39 208t-113 176q-74 70 -176 70q-152 0 -240 -116t-87 -300q-1 -135 67 -262t256 -127zM115 1008q0 134 55 248t168 183t265 69t269 -76q117 -74 187 -237t69 -411q0 -346 -129 -580t-413 -235q-140 0 -236 45t-144 110
t-48 113q0 93 65 93q37 0 57 -20t50 -85q70 -176 256 -176q229 -1 300 233t70 468h-6q-128 -209 -386 -209q-134 0 -237 60q-103 61 -157 167t-55 240z" />
    <glyph glyph-name="colon" unicode=":" horiz-adv-x="448" 
d="M330 88q0 -45 -30 -78t-75 -33t-75 33t-29 78q0 45 30 78q29 33 75 33t75 -33t29 -78zM328 938q0 -45 -31 -78t-75 -33t-74 33t-30 79t30 78t75 32t75 -33t30 -78z" />
    <glyph glyph-name="semicolon" unicode=";" horiz-adv-x="448" 
d="M206 -16q-34 0 -58 26t-24 71q0 46 31 77q29 30 77 30t76 -36t28 -99q0 -188 -166 -301l-35 41q51 41 83 98t34 113h-2q-10 -20 -44 -20zM330 938q0 -45 -30 -78t-75 -33t-75 33t-29 79q0 46 30 78q29 32 75 32t75 -33t29 -78z" />
    <glyph glyph-name="less" unicode="&#x3c;" horiz-adv-x="1083" 
d="M985 90l-922 406v90l922 407v-110l-784 -338v-8l784 -336v-111z" />
    <glyph glyph-name="equal" unicode="=" horiz-adv-x="1083" 
d="M1010 422v-105h-936v105h936zM1010 764v-105h-936v105h936z" />
    <glyph glyph-name="greater" unicode="&#x3e;" horiz-adv-x="1083" 
d="M98 993l922 -407v-90l-922 -406v111l785 336v8l-785 338v110z" />
    <glyph glyph-name="question" unicode="?" horiz-adv-x="995" 
d="M537 87q0 -44 -31 -77t-75 -33t-74 33t-29 78q0 45 29 78q30 33 75 33t75 -34t30 -78zM743 1166q0 148 -71 225q-72 78 -207 77q-99 0 -161 -54t-111 -159q-27 -63 -74 -63q-63 0 -64 74q0 52 46 118q45 66 141 114t229 48t231 -47t152 -129t53 -182q0 -195 -155 -336
l-54 -43q-80 -59 -137 -121q-96 -86 -96 -348h-74q3 252 61 344q28 43 109 135q39 39 76 82q106 117 106 265z" />
    <glyph glyph-name="at" unicode="@" horiz-adv-x="1523" 
d="M543 658q0 -130 86 -130q55 0 119 50t115 132q52 83 75 177l25 96q-12 45 -39 57t-64 13q-76 0 -150 -66t-120 -163q-47 -96 -47 -166zM981 594q0 -70 61 -70q72 0 138 62t106 158q41 97 41 209t-59 204q-58 92 -164 140q-106 49 -262 49t-306 -81t-236 -227
q-87 -146 -87 -320q0 -175 73 -298q74 -122 196 -186t294 -64t322 80l26 -49q-152 -106 -407 -107q-166 0 -307 74t-226 212q-84 138 -84 334t98 360q98 165 268 258q171 93 376 93q205 -1 333 -69t188 -176t60 -243q0 -134 -59 -251q-58 -116 -152 -184t-176 -68
q-159 0 -157 152q0 20 4 49h-4q-51 -80 -128 -140q-77 -61 -153 -61t-122 49t-46 158t62 223t157 184q97 70 195 70t133 -55h4l12 53h103l-103 -438q-12 -49 -12 -84z" />
    <glyph glyph-name="A" unicode="A" horiz-adv-x="1323" 
d="M598 1294l-219 -727h473l-248 727h-6zM254 118q0 -30 25 -41t88 -11v-66h-334v66q57 0 83 22t48 92l424 1366h90l469 -1337q37 -115 79 -133q24 -10 62 -10v-66h-407v66q63 0 88 12t24 43q0 31 -18 82l-94 280h-531l-76 -264q-20 -71 -20 -101z" />
    <glyph glyph-name="B" unicode="B" horiz-adv-x="1236" 
d="M481 84h170q322 0 322 350q1 146 -95 232t-290 86h-182v-566q0 -64 14 -83t61 -19zM406 1364v-528h143q166 0 261 82t95 224q0 292 -305 292h-137q-37 -1 -47 -15t-10 -55zM72 1450v66h497q141 0 229 -18t156 -71q125 -94 125 -251q1 -115 -73 -225t-291 -146v-4
q186 -5 311 -103t125 -277t-116 -300t-380 -121h-583v66q80 0 112 9t40 41q9 32 9 113v1057q0 82 -9 114t-41 41t-111 9z" />
    <glyph glyph-name="C" unicode="C" horiz-adv-x="1263" 
d="M274 792q0 -308 79 -468t176 -211t184 -52q272 0 383 340l82 -22q-66 -201 -192 -305t-294 -105q-264 0 -422 181q-176 211 -176 622q0 252 78 426t221 261t336 87q82 0 157 -12t187 -57q27 -215 53 -342l-79 -17q-29 143 -55 210t-84 103t-175 35q-227 0 -343 -183
t-116 -491z" />
    <glyph glyph-name="D" unicode="D" horiz-adv-x="1394" 
d="M406 1348v-1155q0 -89 24 -103q14 -8 45 -8h98q258 0 404 161q145 161 145 507q0 178 -30 306q-31 128 -103 222q-119 156 -375 156h-145q-39 -1 -51 -17t-12 -69zM233 225v1065q0 80 -9 111t-41 40t-111 9v66h551q171 0 287 -39t204 -131q186 -198 186 -594t-190 -574
t-530 -178h-508v66q79 0 111 9t41 40t9 110z" />
    <glyph glyph-name="E" unicode="E" horiz-adv-x="1161" 
d="M72 66q80 0 112 9t40 40q9 31 9 110v1065q0 80 -9 111t-41 40t-111 9v66h907l65 -322h-79q-29 119 -50 167q-20 48 -49 60t-92 13h-293q-37 0 -56 -10t-19 -91v-502h276q52 -1 72 13t27 55t7 139h80v-503h-80q0 104 -7 146t-27 54t-72 13h-276v-572q0 -60 12 -76t47 -16
h366q66 0 95 13q28 13 50 63t50 168h80l-70 -328h-964v66z" />
    <glyph glyph-name="F" unicode="F" horiz-adv-x="1099" 
d="M780 516q0 100 -9 143t-31 57t-70 13h-264v-504q0 -81 10 -111t48 -39t136 -9v-66h-528v66q80 0 112 9t40 40q9 31 9 110v1065q0 80 -9 111t-41 40t-111 9v66h915l68 -326h-80q-29 117 -48 166t-49 63t-92 15h-305q-37 0 -51 -8q-24 -13 -24 -97v-518h262q50 0 72 14
q22 13 31 57t9 138h78v-504h-78z" />
    <glyph glyph-name="G" unicode="G" horiz-adv-x="1325" 
d="M723 1466q-129 0 -233 -84t-159 -240q-57 -156 -57 -378q0 -223 58 -385t157 -243t233 -81t257 101v245q0 57 -10 81t-42 31t-114 7v66h453v-66q-66 0 -90 -6t-33 -26q-8 -20 -8 -72v-271q-90 -90 -208 -133t-227 -43q-178 0 -315 90q-137 91 -214 269t-77 425t76 424
t223 273t355 96q156 0 329 -73q8 -100 47 -330l-77 -17q-25 133 -50 199q-25 65 -85 103t-189 38z" />
    <glyph glyph-name="H" unicode="H" horiz-adv-x="1511" 
d="M1278 1290v-1065q0 -81 9 -111t41 -39t114 -9v-66h-477v66q71 0 99 9t36 40t8 108v525h-702v-525q0 -79 8 -109t36 -39t99 -9v-66h-477v66q80 0 112 9t40 40q9 31 9 110v1065q0 80 -9 111t-41 40t-111 9v66h477v-66q-71 0 -99 -9t-36 -39t-8 -108v-463h702v461
q0 80 -8 110t-36 39t-99 9v66h477v-66q-82 0 -114 -9t-41 -40t-9 -111z" />
    <glyph glyph-name="I" unicode="I" horiz-adv-x="655" 
d="M242 1290q0 80 -10 111t-45 40q-34 9 -121 9v66h524v-66q-88 0 -122 -9t-44 -40t-10 -111v-1065q0 -81 10 -111t44 -39t122 -9v-66h-527v66q90 0 124 9t44 40t11 110v1065z" />
    <glyph glyph-name="J" unicode="J" horiz-adv-x="886" 
d="M-25 -72q1 34 19 52t49 18q60 0 102 -74q49 -70 131 -69q117 0 158 100t41 299v1030q0 82 -10 114t-46 42t-126 10v66h514v-66q-80 0 -112 -10t-41 -42t-9 -112v-989q0 -122 -19 -231q-20 -109 -102 -200t-254 -91t-257 82q-38 37 -38 71z" />
    <glyph glyph-name="K" unicode="K" horiz-adv-x="1304" 
d="M1272 66v-66h-275l-442 799l-149 -191v-381q0 -79 9 -111t38 -41t104 -9v-66h-485v66q80 0 112 9t40 40q9 31 9 110v1065q0 80 -9 111t-41 40t-111 9v66h477v-66q-71 0 -99 -10t-36 -41t-8 -109v-534h6l405 522q84 112 84 142t-92 30v66h377v-66q-63 0 -97 -17t-88 -83
l-333 -422l397 -707q43 -71 71 -103t56 -42t80 -10z" />
    <glyph glyph-name="L" unicode="L" horiz-adv-x="1159" 
d="M72 0v66q80 0 112 9t40 41q9 32 9 113v1061q0 80 -9 111t-41 40t-111 9v66h497v-66q-81 0 -113 -9t-41 -40t-9 -113v-1106q0 -62 12 -80t55 -18h354q66 0 96 14q31 14 53 66t50 174h82l-72 -338h-964z" />
    <glyph glyph-name="M" unicode="M" horiz-adv-x="1851" 
d="M1782 1450q-82 0 -114 -9t-41 -40t-9 -111v-1065q0 -81 9 -111t41 -39t114 -9v-66h-488v66q78 0 108 9t38 40t8 110v1071h-4l-520 -1306h-64l-541 1310h-4v-1075q1 -81 9 -111t36 -39t105 -9v-66h-399v66q80 0 110 9t40 40q9 31 9 110v1071q0 78 -9 107t-40 38t-110 9v66
h325l533 -1276h6l510 1276h342v-66z" />
    <glyph glyph-name="N" unicode="N" horiz-adv-x="1454" 
d="M1139 219v1071q-1 78 -11 110t-43 41t-112 9v66h409v-66q-74 0 -104 -9t-39 -41q-10 -32 -10 -110v-1308h-127l-780 1366h-5v-1123q1 -77 11 -109t40 -41t107 -9v-66h-409v66q80 0 110 9t41 41q10 32 10 109v1065q0 80 -9 111t-41 40t-114 9v66h336l736 -1297h4z" />
    <glyph glyph-name="O" unicode="O" horiz-adv-x="1466" 
d="M731 49q94 0 179 41t143 111q135 188 135 567t-135 551q-119 147 -320 147q-94 0 -179 -38q-280 -125 -280 -661q0 -378 136 -566q55 -70 141 -111t180 -41zM1370 756q0 -387 -164 -587t-488 -200t-473 220t-149 594t171 569q171 194 472 194t466 -202t165 -588z" />
    <glyph glyph-name="P" unicode="P" horiz-adv-x="1239" 
d="M979 1108q0 156 -96 246q-94 80 -316 80h-112q-33 0 -41 -23t-8 -100v-547h165q184 0 296 73t112 271zM233 225v1065q0 80 -9 111t-41 40t-111 9v66h520q166 0 264 -25t164 -78q135 -109 135 -300t-93 -285t-218 -120t-273 -26h-165v-457q0 -81 10 -111t47 -39t133 -9
v-66h-524v66q79 0 111 9t41 40t9 110z" />
    <glyph glyph-name="Q" unicode="Q" horiz-adv-x="1466" 
d="M733 49q94 0 180 41t142 111q135 188 135 567t-135 551q-119 147 -320 147q-94 0 -179 -38q-280 -125 -280 -661q0 -378 136 -566q55 -70 141 -111t180 -41zM1155 -381q-315 0 -512 358q-285 27 -416 236t-131 545q0 399 171 594q171 194 472 194t466 -202t165 -600
q0 -400 -163 -574t-388 -193q92 -158 180 -219q89 -61 183 -61t192 29v-66q-113 -41 -219 -41z" />
    <glyph glyph-name="R" unicode="R" horiz-adv-x="1275" 
d="M406 1305v-519h145q197 0 302 80t105 262q0 138 -88 222t-278 84h-133q-25 -1 -39 -12q-14 -12 -14 -117zM1268 66v-66h-273l-401 702h-188v-477q0 -81 9 -111t40 -39t112 -9v-66h-495v66q80 0 112 9t40 41q9 32 9 111v1063q0 80 -9 111t-41 40t-111 9v66h524
q143 0 235 -22t166 -77q139 -99 139 -279t-107 -284q-108 -104 -267 -127l301 -516q39 -65 67 -95t57 -40q30 -10 81 -10z" />
    <glyph glyph-name="S" unicode="S" horiz-adv-x="1058" 
d="M484 53q184 0 274 132q45 67 45 158t-34 151t-95 108q-62 47 -198 133q-136 87 -208 141q-164 124 -166 318q0 84 43 164t143 134t267 54q168 0 307 -55q14 -106 45 -301l-78 -14q-23 117 -51 176q-29 59 -83 85q-55 25 -163 25t-189 -61t-81 -172q0 -76 29 -127t85 -96
q80 -64 267 -179t244 -190q84 -115 84 -243q-1 -128 -59 -222t-170 -148t-274 -54t-341 63q-18 150 -61 317l77 23q59 -239 188 -293q65 -28 153 -27z" />
    <glyph glyph-name="T" unicode="T" horiz-adv-x="1230" 
d="M891 66v-66h-555v66q98 0 135 9t47 39t10 111v1202h-249q-66 0 -94 -13t-45 -63t-42 -180h-75l49 345h1083l47 -345h-76q-23 129 -41 179t-45 64q-27 13 -92 13h-250v-1202q1 -81 11 -111t47 -39t135 -9z" />
    <glyph glyph-name="U" unicode="U" horiz-adv-x="1413" 
d="M754 66q162 0 240 78t96 172q18 93 18 202v772q0 80 -9 111t-38 40t-103 9v66h388v-66q-72 0 -100 -9t-36 -40t-8 -111v-798q0 -522 -477 -523q-219 0 -331 81t-143 197q-32 116 -32 267v776q0 80 -8 111t-38 40t-103 9v66h473v-66q-76 0 -105 -9t-37 -39t-8 -112v-768
q0 -188 69 -322t292 -134z" />
    <glyph glyph-name="V" unicode="V" horiz-adv-x="1368" 
d="M1114 1396q0 30 -25 42q-26 12 -90 12v66h338v-66q-63 0 -87 -20t-48 -97l-452 -1364h-101l-471 1336q-25 71 -40 99t-39 37t-74 9v66h436v-66q-67 0 -95 -13t-28 -45t22 -100l373 -1077h6l355 1079q20 72 20 102z" />
    <glyph glyph-name="W" unicode="W" horiz-adv-x="2027" 
d="M27 1450v66h403v-66q-70 0 -96 -10t-25 -40q0 -30 17 -91l317 -1094h4l330 1133q-21 53 -33 71q-12 19 -34 25t-72 6v66h415v-66q-67 0 -93 -10t-26 -43t19 -90l328 -1092h4l295 1079q18 68 18 102t-22 44q-23 10 -86 10v66h311v-66q-39 0 -58 -8t-31 -32t-30 -79
l-373 -1362h-116l-365 1223h-4l-356 -1223h-121l-389 1342q-20 65 -34 93t-36 37q-20 9 -61 9z" />
    <glyph glyph-name="X" unicode="X" horiz-adv-x="1394" 
d="M291 106q-1 -24 27 -32t90 -8v-66h-379v66q53 0 81 19t83 95l419 572l-327 542q-51 80 -77 109t-54 38t-84 9v66h465v-66q-57 0 -82 -8t-25 -35t57 -123l242 -389h6l301 405q56 78 56 106t-27 36t-86 8v66h369v-66q-49 0 -76 -19t-82 -94l-402 -542l355 -562
q51 -79 81 -113t58 -44t80 -10v-66h-469v66q57 0 83 8t26 38t-62 124l-268 413h-4l-322 -442q-53 -76 -53 -101z" />
    <glyph glyph-name="Y" unicode="Y" horiz-adv-x="1298" 
d="M31 1450v66h440v-66q-67 0 -95 -9t-28 -34t35 -88l315 -553h7l299 545q38 75 38 99t-23 32q-24 8 -81 8v66h334v-66q-39 0 -61 -8t-40 -33t-49 -84l-377 -659v-441q1 -81 11 -111t46 -39t128 -9v-66h-541v66q92 0 128 9t46 41t10 111v439l-374 643q-39 65 -61 93t-44 38
t-63 10z" />
    <glyph glyph-name="Z" unicode="Z" horiz-adv-x="1183" 
d="M813 84q84 0 121 14q38 14 60 62t50 168h82l-65 -328h-987l-29 47l840 1387h-490q-81 -1 -115 -14t-54 -58t-52 -166h-80l64 320h903l35 -52l-832 -1380h549z" />
    <glyph glyph-name="bracketleft" unicode="[" horiz-adv-x="647" 
d="M254 1581h334v-59h-195v-1796h195v-60h-334v1915z" />
    <glyph glyph-name="backslash" unicode="\" horiz-adv-x="927" 
d="M868 -25h-108l-715 1606h109z" />
    <glyph glyph-name="bracketright" unicode="]" horiz-adv-x="647" 
d="M254 -274v1796h-197v59h336v-1915h-336v60h197z" />
    <glyph glyph-name="asciicircum" unicode="^" horiz-adv-x="1083" 
d="M547 1370h-6l-318 -612h-114l393 749h80l395 -749h-115z" />
    <glyph glyph-name="underscore" unicode="_" horiz-adv-x="1024" 
d="M0 -154h1024v-102h-1024v102z" />
    <glyph glyph-name="grave" unicode="`" horiz-adv-x="442" 
d="M249 1317q31 0 53 -24q22 -25 22 -71t-30 -76t-75 -30t-73 38t-27 103q0 172 149 289l37 -43q-100 -88 -104 -209q18 23 48 23z" />
    <glyph glyph-name="a" unicode="a" horiz-adv-x="1042" 
d="M248 266q0 -100 55 -151t154 -52q137 0 256 119v404q-257 -68 -361 -144t-104 -176zM713 752q1 229 -197 229q-100 0 -156 -41t-90 -123q-20 -55 -82 -55t-63 65q0 49 47 101t135 89q89 36 233 36t238 -72t94 -250v-526q0 -152 70 -152q35 0 62 17l16 -54
q-61 -29 -141 -28q-119 0 -154 116h-6q-135 -129 -330 -129q-129 0 -219 69t-90 196q0 164 143 254q125 80 350 129l140 34v95z" />
    <glyph glyph-name="b" unicode="b" horiz-adv-x="1159" 
d="M614 51q129 0 210 127q81 128 81 328t-69 334q-70 133 -222 133t-280 -135v-658q151 -129 280 -129zM174 1311q0 59 -7 84t-31 33t-81 8v51q152 29 258 94l21 -12v-637h4q121 121 307 121q145 0 243 -74t143 -193q46 -120 46 -264t-50 -270t-150 -201q-100 -76 -260 -76
t-298 115h-6l-116 -104l-23 8v1317z" />
    <glyph glyph-name="c" unicode="c" horiz-adv-x="978" 
d="M545 -25q-158 0 -261 75q-200 146 -200 470q0 154 57 275t165 189t228 69q120 0 197 -32q78 -32 121 -81t43 -100q0 -74 -59 -74q-33 0 -54 25q-20 25 -53 90q-51 100 -172 100q-79 0 -149 -52q-70 -53 -112 -157t-42 -254q0 -236 90 -350t229 -115q98 0 165 44t126 134
l58 -34q-139 -222 -377 -222z" />
    <glyph glyph-name="d" unicode="d" horiz-adv-x="1157" 
d="M567 975q-313 0 -313 -457q0 -142 38 -248t106 -161t155 -56q147 0 266 152v618q-44 66 -111 109t-141 43zM979 180q0 -61 9 -87t33 -33t81 -7v-49q-164 0 -254 -31l-17 13l-6 118h-4q-45 -51 -124 -90t-181 -39q-102 -1 -200 47t-164 172q-68 124 -68 341q0 141 49 259
t153 188t260 71q157 0 269 -113h4v358q0 66 -8 93t-35 35t-90 10v51q166 23 270 94l23 -12v-1389z" />
    <glyph glyph-name="e" unicode="e" horiz-adv-x="1030" 
d="M784 606q0 141 -54 258t-199 117t-227 -152q-44 -84 -50 -223h530zM84 539q0 137 50 255t150 188t244 71q216 0 318 -152t102 -366h-694q0 -345 180 -448q63 -36 139 -36q123 1 202 63t116 136l59 -31q-135 -244 -389 -244h-10q-219 1 -343 141t-124 423z" />
    <glyph glyph-name="f" unicode="f" horiz-adv-x="690" 
d="M221 211v743h-151v72h151v150q0 221 97 313t225 92q78 0 139 -30q61 -31 95 -75t34 -87q0 -74 -63 -74q-37 0 -56 23q-18 24 -40 74t-43 74q-22 24 -64 23q-164 0 -164 -344v-139h252v-72h-252v-747q0 -76 9 -105q9 -28 42 -36t119 -9v-57h-485v57q77 1 107 10t39 39
t9 105z" />
    <glyph glyph-name="g" unicode="g" horiz-adv-x="1124" 
d="M199 -258q0 -102 94 -162q95 -60 237 -59q142 0 232 38t134 99t44 131q0 201 -289 201h-264q-188 -115 -188 -248zM805 669q0 132 -68 222q-69 90 -189 90t-189 -91t-69 -223t72 -218q70 -86 190 -86t186 87q67 87 67 219zM293 362q-164 102 -164 318q0 108 55 196
q56 87 150 132t219 45t233 -60l297 31v-96l-227 10q113 -108 113 -248q-1 -140 -57 -225q-56 -86 -150 -129t-202 -43t-206 39q-102 -63 -102 -125q0 -88 188 -88h230q215 0 310 -85q95 -84 95 -198q0 -234 -250 -335q-123 -50 -317 -50t-323 71q-128 71 -128 202
q0 96 70 171t172 117q-70 14 -116 54t-46 100q0 61 41 107t115 89z" />
    <glyph glyph-name="h" unicode="h" horiz-adv-x="1187" 
d="M203 209v1091q0 66 -9 93t-35 35t-89 8v49q162 27 270 96l22 -14v-699h5q158 184 358 185q137 1 205 -63t83 -142t15 -172v-469q0 -72 7 -101q7 -28 32 -38t82 -11v-57h-404v57q59 -1 84 9t32 40t7 103v461q0 96 -11 157t-54 101t-131 41q-139 0 -310 -211v-551
q0 -72 8 -102q8 -31 30 -39t77 -9v-57h-409v57q65 1 92 10t35 39t8 103z" />
    <glyph glyph-name="i" unicode="i" horiz-adv-x="563" 
d="M520 0h-452v57q74 1 104 11t38 38q9 28 9 103v559q0 74 -8 100t-36 33q-28 6 -107 6v49q156 20 290 97l21 -13v-833q0 -72 8 -101q8 -28 36 -38t97 -11v-57zM389 1306q0 -58 -30 -94q-29 -36 -73 -34q-44 0 -73 34t-29 94t29 95t73 35t74 -36q29 -36 29 -94z" />
    <glyph glyph-name="j" unicode="j" horiz-adv-x="544" 
d="M379 86q0 -285 -69 -460t-273 -175q-68 0 -127 26q-59 27 -94 67t-35 81q0 60 59 62q34 1 54 -19t43 -65q41 -80 104 -80q111 1 145 155t33 396v694q0 74 -8 100t-36 33q-28 6 -107 6v49q165 24 290 97l21 -13v-954zM387 1305q0 -57 -29 -93q-30 -36 -74 -34
q-44 0 -73 34t-29 94t29 96t75 36t73 -38q28 -38 28 -95z" />
    <glyph glyph-name="k" unicode="k" horiz-adv-x="1114" 
d="M725 944q0 24 -78 25v57h332v-57q-47 -1 -80 -15t-72 -53l-231 -229l336 -527q34 -57 70 -73t96 -17v-55h-260l-357 571l-121 -125v-239q0 -74 8 -102q8 -27 32 -37t87 -11v-57h-419v57q66 1 92 11t34 38q7 28 7 103v1079q0 70 -8 98t-35 39q-27 10 -90 11v49
q156 25 270 96l22 -14v-1006h5l315 318q45 41 45 65z" />
    <glyph glyph-name="l" unicode="l" horiz-adv-x="565" 
d="M213 209v1091q0 68 -8 94t-38 34t-106 8v49q166 25 291 96l19 -14v-1360q0 -72 8 -101q8 -28 37 -38t100 -11v-57h-455v57q76 1 106 11t38 38t8 103z" />
    <glyph glyph-name="m" unicode="m" horiz-adv-x="1748" 
d="M1298 1053q291 0 291 -359v-497q0 -66 8 -94q8 -29 31 -37t78 -9v-57h-391v57q53 1 76 9t31 34t8 86v494q0 289 -181 289q-147 0 -272 -193v-579q0 -68 7 -96q7 -27 30 -35t78 -9v-57h-390v57q55 1 78 9t29 32t6 88v488q0 123 -32 209q-31 86 -149 86t-272 -195v-575
q0 -68 8 -96q8 -29 30 -37q24 -8 81 -9v-57h-413v57q66 -1 92 9t35 40q8 30 8 103v553q0 72 -8 100t-35 38q-27 9 -92 7v49q158 29 260 97l22 -15l8 -161h2q168 176 320 176q221 0 276 -185h7q161 185 335 185z" />
    <glyph glyph-name="n" unicode="n" horiz-adv-x="1185" 
d="M713 1053q315 0 315 -336v-512q0 -70 7 -99q7 -28 30 -38t78 -11v-57h-393v57q60 -1 82 9t29 40t7 103v502q0 139 -48 198t-152 60q-145 0 -306 -211v-551q0 -74 6 -103q6 -30 30 -38q22 -8 79 -9v-57h-409v57q68 -1 94 9t33 40q8 30 8 103v553q0 72 -8 100t-35 38
q-27 9 -92 7v49q162 29 258 97l24 -15l8 -176h4q158 191 351 191z" />
    <glyph glyph-name="o" unicode="o" horiz-adv-x="1126" 
d="M561 981q-309 0 -309 -468t309 -468t309 468t-309 468zM84 500q0 250 115 401q115 152 356 152q241 1 363 -141t122 -394q0 -543 -477 -543q-237 1 -358 138t-121 387z" />
    <glyph glyph-name="p" unicode="p" horiz-adv-x="1183" 
d="M635 55q188 0 242 154q53 155 53 321t-45 264q-83 178 -253 179q-134 0 -274 -156v-618q119 -144 277 -144zM492 -469v-57h-426v57q66 0 92 9t33 37t8 97v1088q1 72 -7 100t-33 36q-26 9 -93 9v49q150 23 258 97l20 -15l8 -127h4q139 141 322 142q125 -1 220 -63
q94 -62 148 -182t54 -284q0 -322 -135 -436t-305 -113q-170 0 -298 117h-4v-420q1 -69 8 -96q8 -27 34 -36t92 -9z" />
    <glyph glyph-name="q" unicode="q" horiz-adv-x="1159" 
d="M567 977q-185 0 -249 -141t-64 -310q0 -242 82 -358t224 -117q142 0 257 148v651q-51 61 -108 94t-142 33zM1110 -469v-57h-436v57q72 0 100 9t36 36q7 27 7 96v420h-4q-127 -117 -281 -117q-258 0 -353 164q-95 163 -95 397t126 375t349 142q88 0 157 -28t142 -83h6
l94 109l19 -9v-1368q0 -69 8 -97t34 -37t91 -9z" />
    <glyph glyph-name="r" unicode="r" horiz-adv-x="839" 
d="M811 905q0 -78 -68 -80q-51 0 -77 68q-16 41 -32 57t-55 16q-82 1 -219 -190v-569q0 -72 10 -101q10 -28 41 -38q32 -10 109 -11v-57h-452v57q66 -1 92 9t33 40q8 30 8 103v557q0 68 -8 96t-35 36q-27 9 -90 9v49q154 25 260 97l20 -15l8 -159h4q75 94 137 134t139 40
t126 -47t49 -101z" />
    <glyph glyph-name="s" unicode="s" horiz-adv-x="909" 
d="M413 45q121 0 191 60t70 133t-45 124q-35 35 -148 84l-92 43q-47 27 -122 65t-115 81q-62 76 -62 175t95 171t261 72t291 -49q16 -115 37 -216l-61 -12q-25 119 -77 162t-148 43t-170 -37t-74 -117t94 -139q43 -22 132 -58t105 -46q115 -51 190 -128t75 -177
q0 -141 -120 -223t-299 -81q-179 0 -321 64l-34 186q-8 27 -11 45l60 17q36 -136 107 -189t191 -53z" />
    <glyph glyph-name="t" unicode="t" horiz-adv-x="696" 
d="M352 1315v-289h279v-72h-279v-723q0 -176 131 -176q82 0 168 62l35 -51q-102 -90 -246 -91q-246 0 -245 246v733h-150v54q150 11 203 132q27 62 49 175h55z" />
    <glyph glyph-name="u" unicode="u" horiz-adv-x="1177" 
d="M1122 53v-49q-172 0 -266 -29l-14 9l-11 149h-6q-131 -158 -327 -158q-147 0 -236 79q-88 79 -88 298v418q0 70 -6 96t-30 33q-24 8 -83 8v49q150 27 256 97l25 -13v-671q0 -143 43 -225t166 -81q156 0 282 173v534q0 70 -6 96t-28 33q-23 8 -84 8v49q150 27 256 97
l24 -13v-835q0 -74 7 -103t34 -39t92 -10z" />
    <glyph glyph-name="v" unicode="v" horiz-adv-x="1048" 
d="M14 969v57h383v-57q-55 0 -77 -8t-21 -33q0 -25 18 -74l246 -653h4l258 686q26 62 -8 75q-20 7 -72 7v57h281v-57q-47 1 -69 -17t-46 -84l-350 -893h-63l-344 852q-29 68 -45 97q-15 29 -35 37t-60 8z" />
    <glyph glyph-name="w" unicode="w" horiz-adv-x="1556" 
d="M12 969v57h371v-57q-57 -1 -80 -11t-23 -34t17 -74l223 -660h6l222 699l-15 43q-11 25 -31 31t-84 6v57h377v-57q-59 0 -81 -8q-22 -9 -22 -33t13 -68l211 -672h6l226 701q8 29 8 45q0 34 -101 35v57h275v-57q-46 -1 -66 -18t-41 -83l-293 -895h-90l-245 797h-4
l-256 -797h-91l-297 852q-25 72 -39 100t-34 36t-62 8z" />
    <glyph glyph-name="x" unicode="x" horiz-adv-x="1030" 
d="M330 57v-57h-312v57q39 1 70 21t70 72l274 366l-227 346q-60 89 -97 101q-19 6 -53 6v57h394v-57q-88 0 -89 -33q0 -23 33 -70l152 -241h6l186 256q33 39 33 57q0 31 -82 31v57h301v-57q-39 1 -65 -17t-70 -69l-258 -330l256 -387q49 -72 80 -90t76 -19v-57h-396v57
q82 0 82 31q0 23 -30 72l-181 282h-4l-217 -305q-23 -29 -22 -47q0 -33 90 -33z" />
    <glyph glyph-name="y" unicode="y" horiz-adv-x="1083" 
d="M16 969v57h390v-57q-55 0 -79 -8t-24 -33t23 -76l268 -649h4l264 684q12 29 12 47q0 35 -96 35v57h295v-57q-39 0 -58 -6q-34 -11 -67 -95l-436 -1128q-70 -172 -148 -230t-169 -58q-92 0 -149 42q-56 43 -56 96q0 25 17 42t40 18q51 0 94 -64q23 -31 40 -46t44 -15
q106 0 197 213l100 278l-356 811q-29 70 -46 98q-18 28 -38 36t-66 8z" />
    <glyph glyph-name="z" unicode="z" horiz-adv-x="927" 
d="M649 72q57 0 86 15t47 57t41 137h68l-49 -281h-774l-25 35l633 919h-361q-59 0 -88 -15t-43 -52t-34 -127h-68l47 266h725l25 -31l-625 -923h395z" />
    <glyph glyph-name="braceleft" unicode="{" horiz-adv-x="667" 
d="M436 0q0 -145 44 -210t163 -64v-60q-188 0 -268 78t-80 258v365q0 98 -47 151t-137 76v59q92 25 138 78t46 152v362q0 180 80 258t268 78v-59q-119 0 -163 -66t-44 -213v-321q0 -127 -64 -202t-177 -93v-4q112 -19 177 -94t64 -201v-328z" />
    <glyph glyph-name="bar" unicode="|" horiz-adv-x="778" 
d="M440 1604v-2139h-100v2139h100z" />
    <glyph glyph-name="braceright" unicode="}" horiz-adv-x="667" 
d="M27 -334v60q117 0 161 64t45 210v328q-1 128 63 202t179 93v4q-113 16 -177 92t-65 203v321q0 147 -45 213t-161 66v59q188 0 268 -78t80 -258v-362q0 -97 46 -151t138 -79v-59q-90 -23 -137 -76t-47 -151v-365q0 -180 -80 -258t-268 -78z" />
    <glyph glyph-name="asciitilde" unicode="~" horiz-adv-x="1083" 
d="M308 655q90 0 184 -37l131 -57q85 -37 159 -37t111 42t45 75l74 -8q-18 -91 -83 -149t-159 -58t-180 37l-137 61q-86 33 -156 33t-107 -41t-47 -76l-71 6q16 93 81 151t155 58z" />
    <glyph glyph-name="currency" unicode="&#xa4;" 
d="M1350 778q0 88 -44 163t-119 119t-163 44t-163 -44t-119 -119t-44 -163t44 -163t119 -119t164 -43q89 0 164 44q75 45 118 119t43 162zM1434 778q0 -145 -93 -260l111 -108l-59 -60l-109 111q-115 -92 -260 -92t-260 92l-109 -111l-59 60l111 108q-92 115 -93 260
q0 145 93 260l-111 109l59 59l109 -110q115 92 260 92t260 -92l109 110l59 -59l-111 -109q93 -115 93 -260z" />
    <glyph glyph-name="yen" unicode="&#xa5;" horiz-adv-x="1257" 
d="M154 633h397v37l-326 604q-45 88 -77 115t-93 26v66h441v-66q-63 0 -90 -9t-27 -37t31 -83l264 -518h6l264 510q35 66 35 92t-25 36q-25 9 -82 9v66h332v-66q-59 -1 -90 -27t-74 -110l-321 -610v-35h393v-72h-393v-344q0 -73 12 -103t49 -39t125 -9v-66h-540v66
q89 0 125 9t49 40q12 31 12 104v342h-397v72z" />
    <glyph glyph-name="section" unicode="&#xa7;" 
d="M735 808q0 -104 108 -175q56 -37 203 -111t214 -133q70 63 69 160q0 63 -36 123t-156 125q-2 0 -113 59q-143 70 -201 115q-88 -59 -88 -163zM655 1249q0 143 109 220q110 77 270 77t301 -47q8 -70 45 -252l-63 -12q-25 96 -47 141q-50 97 -232 97q-122 1 -188 -55
t-66 -132t34 -125t96 -88t186 -102t188 -107q158 -105 158 -266q0 -162 -135 -256q96 -100 96 -244q-1 -144 -107 -240t-335 -96q-158 0 -312 56q-23 150 -51 262l64 14q38 -139 108 -198q70 -60 218 -60t216 71q66 71 66 160t-28 139t-87 89t-183 103t-194 109
q-161 106 -161 261q0 156 145 244q-51 55 -81 107t-30 130z" />
    <glyph glyph-name="dieresis" unicode="&#xa8;" 
d="M1241 1249q-39 0 -67 28q-28 27 -27 65q0 38 28 66q29 28 67 28t66 -27t28 -66t-28 -67t-67 -27zM895 1342q0 -38 -27 -66q-28 -28 -66 -27q-38 0 -66 28q-28 29 -28 67t28 65t68 27t65 -28q26 -28 26 -66z" />
    <glyph glyph-name="copyright" unicode="&#xa9;" horiz-adv-x="1511" 
d="M791 573q133 0 227 105l47 -25q-115 -145 -293 -145q-127 0 -209 59t-119 151q-36 92 -36 204q0 114 51 202q100 172 315 172q125 0 230 -43q14 -119 36 -215l-55 -8q-19 84 -34 123q-32 82 -168 82t-198 -99q-63 -98 -63 -220t40 -198t102 -110q62 -35 127 -35zM188 898
q0 -157 77 -288t208 -208q131 -76 286 -76t285 76t208 208q77 131 77 289t-77 290t-208 209q-130 77 -286 77t-287 -78t-207 -210t-76 -289zM1411 900q0 -176 -88 -327q-88 -149 -238 -235q-151 -86 -329 -86t-328 86t-238 234t-88 326t88 328q88 148 238 234t328 86
t330 -87q151 -87 238 -235t87 -324z" />
    <glyph glyph-name="degree" unicode="&#xb0;" 
d="M373 1677q-61 0 -103 -42t-43 -103q0 -62 42 -104q41 -42 103 -42t104 42t42 104t-42 103q-42 42 -103 42zM376 1720q81 0 133 -54t52 -135t-52 -134t-135 -53t-136 54t-54 134q0 80 56 134t136 54z" />
    <glyph glyph-name="plusminus" unicode="&#xb1;" 
d="M1792 109v-84h-1536v84h1536zM983 272v629h-727v84h727v629h82v-629h727v-84h-727v-629h-82z" />
    <glyph glyph-name="periodcentered" unicode="&#xb7;" 
d="M1024 987q86 0 147 -61q61 -62 61 -148t-60 -147q-62 -61 -149 -61t-147 62t-60 147t60 147q62 62 148 61z" />
    <glyph glyph-name="multiply" unicode="&#xd7;" 
d="M399 188l566 566l-566 565l60 59l565 -565l565 565l60 -59l-566 -565l566 -566l-60 -59l-565 565l-565 -565z" />
    <glyph glyph-name="agrave" unicode="&#xe0;" 
d="M991 977q-176 0 -261 -138t-85 -370t94 -325t222 -93q184 0 305 148v655q-56 59 -118 91t-157 32zM1491 51q35 0 68 17l12 -50q-57 -31 -139 -30q-123 0 -154 121h-6q-147 -133 -328 -134q-141 0 -245 67q-213 138 -213 460q0 162 64 292q66 128 178 194t230 65
q118 0 190 -28q73 -28 152 -85h7l92 111l20 -9v-833q0 -158 72 -158zM741 1389l74 100l289 -275l-35 -45z" />
    <glyph glyph-name="aacute" unicode="&#xe1;" 
d="M991 977q-176 0 -261 -138t-85 -370t94 -325t222 -93q184 0 305 148v655q-56 59 -118 91t-157 32zM1491 51q35 0 68 17l12 -50q-57 -31 -139 -30q-123 0 -154 121h-6q-147 -133 -328 -134q-141 0 -245 67q-213 138 -213 460q0 162 64 292q66 128 178 194t230 65
q118 0 190 -28q73 -28 152 -85h7l92 111l20 -9v-833q0 -158 72 -158zM1192 1489l35 -45l-289 -275l-74 101z" />
    <glyph glyph-name="egrave" unicode="&#xe8;" 
d="M1317 606q0 162 -70 270t-215 107q-94 0 -191 -77t-112 -300h588zM1075 51q233 0 342 201l60 -35q-74 -123 -183 -182t-229 -60q-274 0 -386 161t-112 399q-1 135 53 253t158 192q104 73 234 73t230 -49q99 -49 165 -165t66 -304h-744q0 -290 111 -387t235 -97zM786 1389
l74 100l289 -275l-35 -45z" />
    <glyph glyph-name="eacute" unicode="&#xe9;" 
d="M1317 606q0 162 -70 270t-215 107q-94 0 -191 -77t-112 -300h588zM1075 51q233 0 342 201l60 -35q-74 -123 -183 -182t-229 -60q-274 0 -386 161t-112 399q-1 135 53 253t158 192q104 73 234 73t230 -49q99 -49 165 -165t66 -304h-744q0 -290 111 -387t235 -97z
M1235 1489l35 -45l-289 -275l-74 101z" />
    <glyph glyph-name="ecircumflex" unicode="&#xea;" 
d="M1317 606q0 162 -70 270t-215 107q-94 0 -191 -77t-112 -300h588zM1075 51q233 0 342 201l60 -35q-74 -123 -183 -182t-229 -60q-274 0 -386 161t-112 399q-1 135 53 253t158 192q104 73 234 73t230 -49q99 -49 165 -165t66 -304h-744q0 -290 111 -387t235 -97z
M1038 1452h9l270 -211l-29 -45l-244 137h-4l-241 -137l-31 45z" />
    <glyph glyph-name="igrave" unicode="&#xec;" 
d="M1260 0h-461v55q79 1 109 11t39 38t9 103v563q0 74 -8 100t-37 32q-29 7 -112 7v47q90 12 152 34t139 63l20 -13v-835q0 -74 8 -102q8 -27 37 -37t105 -11v-55zM780 1389l74 100l289 -275l-35 -45z" />
    <glyph glyph-name="iacute" unicode="&#xed;" 
d="M1260 0h-461v55q79 1 109 11t39 38t9 103v563q0 74 -8 100t-37 32q-29 7 -112 7v47q90 12 152 34t139 63l20 -13v-835q0 -74 8 -102q8 -27 37 -37t105 -11v-55zM1192 1489l35 -45l-289 -275l-74 101z" />
    <glyph glyph-name="ograve" unicode="&#xf2;" 
d="M680 516q0 -190 71 -330t271 -141q141 0 242 101q100 100 100 358t-93 368t-245 111q-152 0 -249 -103t-97 -364zM520 518q0 242 126 388t382 146t376 -153q120 -154 120 -381q0 -307 -146 -425t-356 -118q-502 0 -502 543zM741 1389l74 100l289 -275l-35 -45z" />
    <glyph glyph-name="oacute" unicode="&#xf3;" 
d="M680 516q0 -190 71 -330t271 -141q141 0 242 101q100 100 100 358t-93 368t-245 111q-152 0 -249 -103t-97 -364zM520 518q0 242 126 388t382 146t376 -153q120 -154 120 -381q0 -307 -146 -425t-356 -118q-502 0 -502 543zM1214 1489l35 -45l-288 -275l-74 101z" />
    <glyph glyph-name="divide" unicode="&#xf7;" 
d="M887 196q0 56 40 96t97 40t97 -40t40 -97t-40 -97t-98 -41q-58 0 -97 41q-39 42 -39 98zM246 713v82h1556v-82h-1556zM887 1314q0 56 40 96t97 40t97 -40t40 -97t-40 -97t-98 -40t-97 41t-39 97z" />
    <glyph glyph-name="ugrave" unicode="&#xf9;" 
d="M942 -25q-202 -1 -274 105t-72 282v410q0 70 -7 96t-31 33q-24 8 -87 8v47q152 27 256 97l23 -13v-663q0 -143 47 -231t182 -87q170 0 305 179v536q0 70 -6 96t-30 32q-24 7 -85 7v47q145 25 252 97l23 -13v-833q0 -76 8 -106t36 -40t95 -10v-47q-176 0 -262 -29l-15 7
l-12 157h-4q-141 -164 -342 -164zM754 1389l73 100l289 -275l-35 -45z" />
    <glyph glyph-name="uacute" unicode="&#xfa;" 
d="M942 -25q-202 -1 -274 105t-72 282v410q0 70 -7 96t-31 33q-24 8 -87 8v47q152 27 256 97l23 -13v-663q0 -143 47 -231t182 -87q170 0 305 179v536q0 70 -6 96t-30 32q-24 7 -85 7v47q145 25 252 97l23 -13v-833q0 -76 8 -106t36 -40t95 -10v-47q-176 0 -262 -29l-15 7
l-12 157h-4q-141 -164 -342 -164zM1214 1489l35 -45l-288 -275l-74 101z" />
    <glyph glyph-name="udieresis" unicode="&#xfc;" 
d="M942 -25q-202 -1 -274 105t-72 282v410q0 70 -7 96t-31 33q-24 8 -87 8v47q152 27 256 97l23 -13v-663q0 -143 47 -231t182 -87q170 0 305 179v536q0 70 -6 96t-30 32q-24 7 -85 7v47q145 25 252 97l23 -13v-833q0 -76 8 -106t36 -40t95 -10v-47q-176 0 -262 -29l-15 7
l-12 157h-4q-141 -164 -342 -164zM1274 1302q0 -34 -23 -57t-57 -23t-58 24q-22 22 -22 57t23 57t57 21q34 0 57 -23q23 -22 23 -56zM922 1302q0 -34 -24 -57t-58 -23t-57 24q-22 22 -21 57q0 35 22 57t56 21q34 0 58 -23q24 -22 24 -56z" />
    <glyph glyph-name="amacron" unicode="&#x101;" 
d="M991 977q-176 0 -261 -138t-85 -370t94 -325t222 -93q184 0 305 148v655q-56 59 -118 91t-157 32zM1491 51q35 0 68 17l12 -50q-57 -31 -139 -30q-123 0 -154 121h-6q-147 -133 -328 -134q-141 0 -245 67q-213 138 -213 460q0 162 64 292q66 128 178 194t230 65
q118 0 190 -28q73 -28 152 -85h7l92 111l20 -9v-833q0 -158 72 -158zM739 1274v90h488v-90h-488z" />
    <glyph glyph-name="emacron" unicode="&#x113;" 
d="M1317 606q0 162 -70 270t-215 107q-94 0 -191 -77t-112 -300h588zM1075 51q233 0 342 201l60 -35q-74 -123 -183 -182t-229 -60q-274 0 -386 161t-112 399q-1 135 53 253t158 192q104 73 234 73t230 -49q99 -49 165 -165t66 -304h-744q0 -290 111 -387t235 -97zM791 1274
v90h487v-90h-487z" />
    <glyph glyph-name="ecaron" unicode="&#x11b;" 
d="M1317 606q0 162 -70 270t-215 107q-94 0 -191 -77t-112 -300h588zM1075 51q233 0 342 201l60 -35q-74 -123 -183 -182t-229 -60q-274 0 -386 161t-112 399q-1 135 53 253t158 192q104 73 234 73t230 -49q99 -49 165 -165t66 -304h-744q0 -290 111 -387t235 -97z
M1298 1409l-270 -213h-8l-270 213l30 43l242 -135h4l244 135z" />
    <glyph glyph-name="imacron" unicode="&#x12b;" 
d="M1260 0h-461v55q79 1 109 11t39 38t9 103v563q0 74 -8 100t-37 32q-29 7 -112 7v47q90 12 152 34t139 63l20 -13v-835q0 -74 8 -102q8 -27 37 -37t105 -11v-55zM766 1274v90h487v-90h-487z" />
    <glyph glyph-name="nacute" unicode="&#x144;" 
d="M1591 0h-397v55q61 -1 85 9t31 38t7 105v495q0 131 -47 201t-176 70q-154 0 -330 -217v-551q0 -74 6 -103q6 -30 31 -38t86 -9v-55h-416v55q69 -1 97 9t36 40t8 103v557q0 72 -9 100t-37 38q-28 9 -95 7v47q166 27 258 97l23 -15l8 -182h4q170 197 373 197
q332 0 331 -344v-506q1 -70 9 -99q9 -28 33 -38t81 -11v-55zM1231 1489l35 -45l-289 -275l-74 101z" />
    <glyph glyph-name="ncaron" unicode="&#x148;" 
d="M1591 0h-397v55q61 -1 85 9t31 38t7 105v495q0 131 -47 201t-176 70q-154 0 -330 -217v-551q0 -74 6 -103q6 -30 31 -38t86 -9v-55h-416v55q69 -1 97 9t36 40t8 103v557q0 72 -9 100t-37 38q-28 9 -95 7v47q166 27 258 97l23 -15l8 -182h4q170 197 373 197
q332 0 331 -344v-506q1 -70 9 -99q9 -28 33 -38t81 -11v-55zM1319 1409l-270 -213h-9l-270 213l31 43l241 -135h5l243 135z" />
    <glyph glyph-name="omacron" unicode="&#x14d;" 
d="M680 516q0 -190 71 -330t271 -141q141 0 242 101q100 100 100 358t-93 368t-245 111q-152 0 -249 -103t-97 -364zM520 518q0 242 126 388t382 146t376 -153q120 -154 120 -381q0 -307 -146 -425t-356 -118q-502 0 -502 543zM780 1274v90h488v-90h-488z" />
    <glyph glyph-name="umacron" unicode="&#x16b;" 
d="M942 -25q-202 -1 -274 105t-72 282v410q0 70 -7 96t-31 33q-24 8 -87 8v47q152 27 256 97l23 -13v-663q0 -143 47 -231t182 -87q170 0 305 179v536q0 70 -6 96t-30 32q-24 7 -85 7v47q145 25 252 97l23 -13v-833q0 -76 8 -106t36 -40t95 -10v-47q-176 0 -262 -29l-15 7
l-12 157h-4q-141 -164 -342 -164zM774 1274v90h488v-90h-488z" />
    <glyph glyph-name="acaron" unicode="&#x1ce;" 
d="M991 977q-176 0 -261 -138t-85 -370t94 -325t222 -93q184 0 305 148v655q-56 59 -118 91t-157 32zM1491 51q35 0 68 17l12 -50q-57 -31 -139 -30q-123 0 -154 121h-6q-147 -133 -328 -134q-141 0 -245 67q-213 138 -213 460q0 162 64 292q66 128 178 194t230 65
q118 0 190 -28q73 -28 152 -85h7l92 111l20 -9v-833q0 -158 72 -158zM1260 1409l-271 -213h-8l-270 213l30 43l242 -135h4l244 135z" />
    <glyph glyph-name="icaron" unicode="&#x1d0;" 
d="M1260 0h-461v55q79 1 109 11t39 38t9 103v563q0 74 -8 100t-37 32q-29 7 -112 7v47q90 12 152 34t139 63l20 -13v-835q0 -74 8 -102q8 -27 37 -37t105 -11v-55zM1286 1409l-270 -213h-8l-271 213l31 43l242 -135h4l243 135z" />
    <glyph glyph-name="ocaron" unicode="&#x1d2;" 
d="M680 516q0 -190 71 -330t271 -141q141 0 242 101q100 100 100 358t-93 368t-245 111q-152 0 -249 -103t-97 -364zM520 518q0 242 126 388t382 146t376 -153q120 -154 120 -381q0 -307 -146 -425t-356 -118q-502 0 -502 543zM1298 1409l-270 -213h-8l-270 213l30 43
l242 -135h4l244 135z" />
    <glyph glyph-name="ucaron" unicode="&#x1d4;" 
d="M942 -25q-202 -1 -274 105t-72 282v410q0 70 -7 96t-31 33q-24 8 -87 8v47q152 27 256 97l23 -13v-663q0 -143 47 -231t182 -87q170 0 305 179v536q0 70 -6 96t-30 32q-24 7 -85 7v47q145 25 252 97l23 -13v-833q0 -76 8 -106t36 -40t95 -10v-47q-176 0 -262 -29l-15 7
l-12 157h-4q-141 -164 -342 -164zM1284 1409l-270 -213h-8l-271 213l31 43l242 -135h4l243 135z" />
    <glyph glyph-name="udieresismacron" unicode="&#x1d6;" 
d="M942 -25q-202 -1 -274 105t-72 282v410q0 70 -7 96t-31 33q-24 8 -87 8v47q152 27 256 97l23 -13v-663q0 -143 47 -231t182 -87q170 0 305 179v536q0 70 -6 96t-30 32q-24 7 -85 7v47q145 25 252 97l23 -13v-833q0 -76 8 -106t36 -40t95 -10v-47q-176 0 -262 -29l-15 7
l-12 157h-4q-141 -164 -342 -164zM1268 1246q0 -34 -23 -56t-57 -23q-34 0 -58 23q-22 24 -22 58t22 56q24 22 58 22t57 -23t23 -57zM834 1167q-34 0 -57 23q-21 24 -21 58t22 56t56 22t58 -23t24 -57t-24 -56t-58 -23zM764 1409v90h487v-90h-487z" />
    <glyph glyph-name="udieresisacute" unicode="&#x1d8;" 
d="M942 -25q-202 -1 -274 105t-72 282v410q0 70 -7 96t-31 33q-24 8 -87 8v47q152 27 256 97l23 -13v-663q0 -143 47 -231t182 -87q170 0 305 179v536q0 70 -6 96t-30 32q-24 7 -85 7v47q145 25 252 97l23 -13v-833q0 -76 8 -106t36 -40t95 -10v-47q-176 0 -262 -29l-15 7
l-12 157h-4q-141 -164 -342 -164zM1317 1248q0 -34 -23 -56q-24 -22 -58 -23q-34 0 -56 23q-22 24 -23 58q0 34 23 56t57 22t57 -23t23 -57zM780 1169q-34 0 -56 23q-22 24 -22 58t23 56t57 22t57 -23t23 -57t-24 -56t-58 -23zM1237 1534l35 -45l-289 -275l-74 101z" />
    <glyph glyph-name="udieresiscaron" unicode="&#x1da;" 
d="M942 -25q-202 -1 -274 105t-72 282v410q0 70 -7 96t-31 33q-24 8 -87 8v47q152 27 256 97l23 -13v-663q0 -143 47 -231t182 -87q170 0 305 179v536q0 70 -6 96t-30 32q-24 7 -85 7v47q145 25 252 97l23 -13v-833q0 -76 8 -106t36 -40t95 -10v-47q-176 0 -262 -29l-15 7
l-12 157h-4q-141 -164 -342 -164zM1323 1248q0 -34 -23 -56q-24 -22 -58 -23q-34 0 -56 23q-22 24 -23 58q0 34 23 56t57 22t57 -23t23 -57zM786 1169q-34 0 -56 23q-22 24 -22 58t23 56t57 22t57 -23t23 -57t-24 -56t-58 -23zM1294 1483l-270 -213h-8l-271 213l31 43
l242 -135h4l244 135z" />
    <glyph glyph-name="udieresisgrave" unicode="&#x1dc;" 
d="M942 -25q-202 -1 -274 105t-72 282v410q0 70 -7 96t-31 33q-24 8 -87 8v47q152 27 256 97l23 -13v-663q0 -143 47 -231t182 -87q170 0 305 179v536q0 70 -6 96t-30 32q-24 7 -85 7v47q145 25 252 97l23 -13v-833q0 -76 8 -106t36 -40t95 -10v-47q-176 0 -262 -29l-15 7
l-12 157h-4q-141 -164 -342 -164zM1245 1169q-35 0 -57 23q-22 24 -23 58q0 34 23 56q24 22 58 22t57 -23t23 -57t-24 -56q-22 -22 -57 -23zM788 1169q-34 0 -56 23q-22 24 -22 58t23 56t57 22t57 -23t23 -57t-24 -56t-58 -23zM786 1473l86 90l232 -291l-41 -39z" />
    <glyph glyph-name="uni01F9" unicode="&#x1f9;" 
d="M1591 0h-397v55q61 -1 85 9t31 38t7 105v495q0 131 -47 201t-176 70q-154 0 -330 -217v-551q0 -74 6 -103q6 -30 31 -38t86 -9v-55h-416v55q69 -1 97 9t36 40t8 103v557q0 72 -9 100t-37 38q-28 9 -95 7v47q166 27 258 97l23 -15l8 -182h4q170 197 373 197
q332 0 331 -344v-506q1 -70 9 -99q9 -28 33 -38t81 -11v-55zM776 1389l74 100l289 -275l-35 -45z" />
    <glyph glyph-name="ascript" unicode="&#x251;" 
d="M991 977q-176 0 -261 -138t-85 -370t94 -325t222 -93q184 0 305 148v655q-56 59 -118 91t-157 32zM1491 51q35 0 68 17l12 -50q-57 -31 -139 -30q-123 0 -154 121h-6q-147 -133 -328 -134q-141 0 -245 67q-213 138 -213 460q0 162 64 292q66 128 178 194t230 65
q118 0 190 -28q73 -28 152 -85h7l92 111l20 -9v-833q0 -158 72 -158z" />
    <glyph glyph-name="gscript" unicode="&#x261;" 
d="M995 977q-176 0 -261 -127t-85 -324q1 -264 99 -369t250 -105t272 147v655q-56 59 -118 91t-157 32zM958 -547q-124 0 -216 36q-93 36 -145 89t-52 89q0 67 55 69q59 0 94 -64t93 -106t167 -43q156 0 236 99t80 284v192h-4q-135 -123 -303 -123q-225 1 -349 141t-125 403
t137 399t361 135q92 0 165 -28t153 -85h6l92 111l18 -9v-1136q0 -152 -63 -253q-64 -101 -170 -151t-230 -49z" />
    <glyph glyph-name="caron" unicode="&#x2c7;" 
d="M731 1595l291 -393l293 393l39 -20l-332 -580l-328 580z" />
    <glyph glyph-name="firsttonechinese" unicode="&#x2c9;" 
d="M1403 1331v-61h-756v61h756z" />
    <glyph glyph-name="secondtonechinese" unicode="&#x2ca;" 
d="M1298 1802q26 0 44 -21t18 -38q0 -33 -55 -68l-508 -303l-25 37l473 373q27 20 53 20z" />
    <glyph glyph-name="fourthtonechinese" unicode="&#x2cb;" 
d="M745 1743q0 16 18 38q38 46 97 1l473 -373l-24 -37l-508 303q-56 33 -56 68z" />
    <glyph glyph-name="dotaccent" unicode="&#x2d9;" 
d="M911 1543q0 44 34 77t79 33t80 -32t35 -79t-33 -80q-33 -32 -81 -32t-81 34t-33 79z" />
    <glyph glyph-name="Alpha" unicode="&#x391;" 
d="M723 567h512l-268 744h-9zM1270 63q118 0 116 54q0 27 -20 84l-102 286h-568l-84 -268q-20 -75 -20 -104t24 -40t91 -12v-63h-340v63q59 0 86 23t49 94l450 1366h84l496 -1339q42 -115 84 -133q23 -10 63 -11v-63h-409v63z" />
    <glyph glyph-name="Beta" unicode="&#x392;" 
d="M872 82h199q147 0 247 71q99 71 99 279q0 150 -100 236t-311 86h-209v-570q0 -66 14 -84t61 -18zM963 836q188 0 284 81t96 225q0 292 -331 292h-156q-37 0 -48 -14t-11 -56v-528h166zM1589 430q-1 -188 -119 -309t-389 -121h-612v63q80 -1 112 9t42 42t10 113v1061
q0 82 -10 114t-42 41t-112 9v64h516q150 -1 239 -20q176 -38 252 -179q34 -66 33 -143q0 -152 -100 -248t-268 -121v-4q125 -4 227 -49t162 -128t59 -194z" />
    <glyph glyph-name="Gamma" unicode="&#x393;" 
d="M901 1434q-45 0 -58 -18t-14 -81v-1110q1 -83 11 -113t46 -39t136 -10v-63h-520v63q82 -1 114 9t41 42q10 32 11 109v1067q0 80 -10 112t-43 41q-32 9 -113 9v64h995l78 -334h-78q-32 123 -54 173t-52 64q-31 14 -99 15h-391z" />
    <glyph glyph-name="Delta" unicode="&#x394;" 
d="M1159 778l-188 533h-8l-396 -1205h830q-93 271 -238 672zM1040 1544l574 -1544h-1180l522 1544h84z" />
    <glyph glyph-name="Epsilon" unicode="&#x395;" 
d="M653 223v1069q0 80 -10 111t-42 40t-114 9v64h943l65 -322h-78q-29 119 -49 167t-49 60t-92 13h-334q-37 0 -52 -6t-19 -26q-4 -19 -5 -69v-504h311q50 -1 70 13t28 56q7 42 7 140h78v-501h-78q0 104 -7 146q-8 42 -28 54t-72 13h-309v-576q0 -56 12 -74t48 -18h409
q66 0 96 13t51 63q22 50 50 170h80l-74 -328h-1000v63q80 1 112 10t42 40t10 110z" />
    <glyph glyph-name="Zeta" unicode="&#x396;" 
d="M1280 82q82 0 119 15t61 65t53 176h78l-67 -338h-1039l-30 47l895 1387h-547q-82 -1 -116 -14t-53 -57t-50 -163h-80l63 316h953l32 -52l-884 -1382h612z" />
    <glyph glyph-name="Eta" unicode="&#x397;" 
d="M1735 0h-475v63q74 -1 102 9t37 40q8 30 8 109v529h-766v-529q0 -79 8 -109t37 -39t102 -10v-63h-475v63q80 -1 112 9t42 41t10 110v1071q0 78 -10 109t-42 40t-112 9v64h475v-64q-74 0 -102 -9t-37 -39q-8 -30 -8 -108v-467h766v465q0 80 -8 110t-37 39t-102 9v64h475
v-64q-82 0 -114 -9t-41 -40t-9 -109v-1071q0 -79 9 -110t41 -40t114 -10v-63z" />
    <glyph glyph-name="Theta" unicode="&#x398;" 
d="M1311 1001h69v-436h-69q0 90 -7 125q-6 35 -26 45t-70 10h-381q-49 0 -68 -9t-27 -45t-7 -126h-70v436h70q0 -87 7 -121q8 -34 28 -43t69 -10h377q50 1 70 10t28 44q7 35 7 120zM1022 49q109 0 207 43t157 115q150 180 150 551q0 709 -516 708q-232 1 -365 -153
q-151 -171 -151 -543t149 -563q55 -70 157 -114t212 -44zM336 758q0 270 89 446t244 259t338 83t337 -66t261 -240q108 -175 107 -482q0 -393 -183 -591t-507 -198t-505 199t-181 590z" />
    <glyph glyph-name="Iota" unicode="&#x399;" 
d="M762 1452v64h526v-64q-92 0 -127 -9t-45 -39t-10 -110v-1071q0 -81 10 -111t45 -39t127 -10v-63h-528v63q92 -1 127 9t45 41t10 110v1071q0 78 -10 109t-45 40t-125 9z" />
    <glyph glyph-name="Kappa" unicode="&#x39a;" 
d="M1683 0h-297l-473 805l-161 -195v-387q0 -81 9 -111t40 -39t108 -10v-63h-485v63q82 -1 114 9t41 41t9 110v1069q0 80 -9 111t-41 40t-114 9v64h475v-64q-75 0 -103 -9t-36 -40t-8 -113v-540h6l438 530q88 106 88 139t-96 33v64h383v-64q-66 0 -100 -17t-89 -83
l-362 -426l422 -707q45 -73 75 -104q31 -31 65 -41t101 -11v-63z" />
    <glyph glyph-name="Lambda" unicode="&#x39b;" 
d="M1690 0h-404v63q55 -1 78 13q22 14 22 45t-26 110l-49 138q-139 389 -338 925h-6q-76 -215 -308 -917l-51 -160q-24 -79 -24 -105t22 -37t78 -12v-63h-326v63q55 0 82 23t49 92l463 1368h92l500 -1339q25 -67 40 -95t38 -38t68 -11v-63z" />
    <glyph glyph-name="Mu" unicode="&#x39c;" 
d="M1692 1290v-1067q0 -81 9 -111t40 -39t110 -10v-63h-473v63q76 -1 105 9t37 41t8 110v1080h-4l-498 -1313h-61l-519 1315h-4v-1082q0 -81 8 -111t38 -39q28 -9 102 -10v-63h-393v63q79 -1 109 9t39 41t9 110v1075q0 78 -9 107t-39 38t-109 9v64h319l508 -1278h6l488 1278
h333v-64q-79 0 -110 -9t-40 -40t-9 -113z" />
    <glyph glyph-name="Nu" unicode="&#x39d;" 
d="M1466 1292q0 80 -10 111t-43 40t-115 9v64h414v-64q-76 0 -106 -9t-40 -40q-9 -31 -10 -111v-1310h-120l-844 1372h-4v-1131q0 -77 10 -109t41 -41t109 -10v-63h-414v63q82 -1 114 9t40 41q9 31 10 110v1071q0 80 -10 111t-40 39t-114 8v64h328l800 -1307h4v1083z" />
    <glyph glyph-name="Xi" unicode="&#x39e;" 
d="M643 109h762q57 0 84 14t47 60t53 161h78l-61 -344h-1166l-61 344h80q31 -115 51 -160t48 -60t85 -15zM1268 739h-486q-50 0 -72 -10t-29 -46t-7 -120h-76v443h76q0 -88 8 -124t28 -45t74 -10h482q53 -1 73 9t29 46q8 36 8 124h76v-443h-76q0 84 -7 120t-29 46t-72 10z
M1366 1409h-684q-59 0 -85 -14q-26 -15 -41 -61t-42 -165h-80l51 347h1076l51 -347h-78q-27 119 -43 165t-42 60t-83 15z" />
    <glyph glyph-name="Omicron" unicode="&#x39f;" 
d="M1027 49q106 0 203 44t148 114q144 190 144 562t-144 542q-135 155 -357 155t-360 -163q-139 -163 -139 -533t146 -563q57 -72 155 -115t204 -43zM1026 1546q168 0 319 -68t251 -244q100 -175 100 -476q0 -397 -179 -593t-491 -196q-379 1 -525 233t-147 556
q0 200 52 358t145 252q178 178 475 178z" />
    <glyph glyph-name="Pi" unicode="&#x3a0;" 
d="M788 0h-475v63q82 -1 114 9t41 42t9 111v1065q0 80 -9 112t-41 41t-114 9v64h1422v-64q-82 0 -114 -9t-41 -40t-9 -113v-1065q0 -81 9 -111t41 -40t114 -11v-63h-473v63q74 -1 102 9t35 41q8 31 8 110v1051q0 76 -7 108t-33 41q-26 10 -89 11h-510q-61 0 -87 -10t-33 -40
q-7 -31 -7 -108v-1053q0 -77 9 -109t38 -41t100 -10v-63z" />
    <glyph glyph-name="Rho" unicode="&#x3a1;" 
d="M797 1311v-547h188q219 0 327 80t107 266q0 143 -67 214q-68 71 -162 90t-215 20h-127q-23 -1 -37 -11t-14 -112zM469 1452v64h532q177 0 279 -25t174 -82q135 -109 135 -303t-136 -310q-136 -114 -466 -114h-190v-459q0 -81 10 -111t47 -39t137 -10v-63h-522v63
q82 -1 114 9t41 41t9 110v1071q0 78 -9 109t-41 40t-114 9z" />
    <glyph glyph-name="Sigma" unicode="&#x3a3;" 
d="M473 1516h1026l70 -326h-82q-33 125 -53 170t-58 59t-127 15h-542l464 -637v-6l-540 -691h633q90 0 127 12t63 61q26 48 66 177h77l-81 -350h-1102v33l587 739l-528 713v31z" />
    <glyph glyph-name="Tau" unicode="&#x3a4;" 
d="M1303 0h-558v63q101 -1 139 9t48 40t10 109v1213h-274q-68 0 -96 -14t-45 -64q-17 -51 -38 -180h-77l49 340h1128l47 -340h-75q-25 129 -42 179t-45 64t-94 15h-274v-1213q0 -79 10 -109t48 -39t139 -10v-63z" />
    <glyph glyph-name="Upsilon" unicode="&#x3a5;" 
d="M942 225v887q0 125 -64 206q-65 81 -192 81t-187 -70t-65 -174h-67q6 170 86 281t243 110q94 0 167 -50t114 -131t43 -171h12q2 90 41 171t112 131t167 50q166 0 244 -110t85 -281h-65q-6 104 -66 174t-188 70q-127 0 -192 -80t-64 -207v-885q0 -83 10 -113t51 -40
t154 -11v-63h-596v63q113 1 155 11t52 40t10 111z" />
    <glyph glyph-name="Phi" unicode="&#x3a6;" 
d="M1546 756q0 162 -64 265q-65 103 -165 153t-213 57v-948q164 12 262 90t139 181t41 202zM500 756q0 -64 26 -162t123 -196q98 -98 291 -115v948q-190 -14 -315 -132t-125 -343zM332 760q0 129 63 253q137 270 545 294q0 75 -9 101t-44 35t-127 9v64h524v-64
q-92 0 -128 -9t-44 -36t-8 -100q225 -8 377 -103q115 -70 175 -192t60 -270t-79 -270t-217 -190t-316 -73q0 -69 9 -97t45 -38t126 -11v-63h-524v63q92 1 128 11t44 37t8 98q-211 8 -347 92t-199 207q-62 123 -62 252z" />
    <glyph glyph-name="Chi" unicode="&#x3a7;" 
d="M643 100q0 -37 111 -37v-63h-361v63q51 -1 77 19t79 96l397 574l-311 546q-49 78 -72 107t-49 38t-82 9v64h438v-64q-56 0 -78 -8t-22 -36t53 -122l232 -391h4l284 408q51 76 52 108q0 41 -109 41v64h352v-64q-48 0 -72 -19t-79 -96l-379 -544l336 -566q49 -81 77 -113
q29 -32 55 -41t77 -10v-63h-447v63q55 1 80 9t25 38t-56 123l-254 414h-6l-301 -444q-51 -72 -51 -103z" />
    <glyph glyph-name="Psi" unicode="&#x3a8;" 
d="M944 1262q0 104 -7 137t-38 42t-125 9v66h500v-66q-94 0 -125 -9t-38 -42t-7 -137v-592q104 0 160 30q55 31 92 121q38 90 74 299t107 321t138 111q98 0 99 -67q0 -32 -52 -86q-106 -121 -178 -455q-43 -198 -146 -274t-292 -76v-385q0 -78 9 -105q9 -28 40 -34t121 -7
v-63h-504v63q88 -1 120 7t41 36t9 103v385q-189 0 -292 76t-146 274q-63 295 -148 418q-25 31 -28 35q-53 61 -54 88q0 68 99 67q69 0 139 -112t107 -320q37 -209 73 -299t92 -121q55 -31 160 -30v592z" />
    <glyph glyph-name="Omega" unicode="&#x3a9;" 
d="M358 854q0 138 42 278t141 242q176 172 483 172h2q305 0 481 -172q99 -102 141 -241t42 -279q0 -582 -471 -672v-92h139q102 0 144 12t66 56t52 159h76l-41 -317h-520v225q385 111 385 629q0 283 -126 450q-126 166 -370 166t-370 -166t-126 -450q0 -518 385 -629v-225
h-520l-41 317h76q28 -115 52 -159t66 -56t144 -12h139v92q-471 90 -471 672z" />
    <glyph glyph-name="alpha" unicode="&#x3b1;" 
d="M1001 973q-111 0 -185 -110q-74 -111 -108 -265t-34 -284t46 -194t123 -65q77 0 157 78t157 250v145q0 164 -12 259t-52 141t-92 45zM1290 299q0 -231 51 -231q37 0 75 62t59 173l63 -8q-20 -147 -85 -233t-146 -87q-113 0 -142 244q-145 -244 -360 -244q-137 -1 -216 89
t-79 242t52 325q52 174 167 295t278 121t227 -124t69 -298q2 2 4 0q76 207 125 401h92q-99 -340 -228 -610q-6 -57 -6 -117z" />
    <glyph glyph-name="beta" unicode="&#x3b2;" 
d="M1242 1534q95 0 166 -44q70 -44 106 -114t36 -141q0 -168 -95 -280t-275 -140q166 -39 242 -138t75 -212q0 -113 -46 -227t-140 -192q-93 -77 -223 -77t-254 107l53 63q88 -92 192 -92q66 0 124 53q58 52 93 144t35 200q0 162 -94 247t-227 95l8 62q113 4 199 58t132 140
t46 188t-49 164t-125 62q-107 0 -201 -130t-141 -400l-226 -1309l-155 -10l215 1245q63 389 239 563q61 61 128 88t162 27z" />
    <glyph glyph-name="gamma" unicode="&#x3b3;" 
d="M1389 1051q29 0 47 -28t18 -84t-47 -185t-135 -293l-64 -113q-133 -229 -182 -336q-53 -279 -102 -418q-33 -88 -105 -88q-21 0 -37 20t-16 51q0 32 16 69t85 171t96 226q-47 348 -138 672q-31 119 -51 157t-42 39q-22 0 -40 -20q-20 -20 -51 -80l-49 20q86 219 203 220
q55 0 99 -86t94 -330t65 -416h6q198 418 239 721q16 111 91 111z" />
    <glyph glyph-name="delta" unicode="&#x3b4;" 
d="M709 348q0 -137 54 -218t151 -81t177 68q79 67 123 175t46 207q0 99 -26 179t-62 134t-60 97q-186 -49 -294 -202q-109 -154 -109 -359zM551 331q0 167 73 300t191 215q119 82 260 115l-63 114q-94 152 -94 290t133 206q63 33 150 33t156 -27t105 -71t35 -97
q0 -53 -53 -53q-45 0 -74 47q-43 73 -85 101t-97 28t-92 -39t-37 -96q0 -104 67 -215q240 -375 277 -505q18 -67 18 -136q0 -164 -61 -292t-182 -201q-121 -72 -283 -72t-253 94t-91 261z" />
    <glyph glyph-name="epsilon" unicode="&#x3b5;" 
d="M592 264q0 80 47 142t120 97q73 36 144 44v6q-90 33 -137 78t-47 131q0 139 124 215t302 76q69 0 141 -24q72 -23 120 -63t48 -82t-20 -62q-20 -19 -50 -19q-57 0 -79 61q-43 119 -170 119q-66 0 -126 -29q-61 -29 -99 -80q-38 -52 -38 -118t31 -108t80 -77
q121 35 167 35t75 -15t27 -43t-34 -45q-76 -38 -255 9q-87 -18 -147 -86t-60 -163t74 -152t184 -58q207 0 336 209l63 -22q-144 -265 -426 -267q-167 0 -281 74t-114 217z" />
    <glyph glyph-name="zeta" unicode="&#x3b6;" 
d="M635 264q0 150 71 344t171 371q100 176 180 266q-63 2 -107 30q-43 28 -43 73q0 96 60 163q25 29 42 29t17 -16l-8 -49l-10 -76q0 -43 24 -69t68 -27q63 73 138 125t107 52t49 -14q17 -16 17 -45t-46 -69t-112 -71q-66 -32 -116 -42q-72 -96 -156 -270t-140 -348
q-57 -173 -57 -267t32 -138t126 -77l197 -67q135 -44 135 -198q0 -82 -52 -172t-132 -142q-80 -54 -159 -54t-79 56q0 68 121 88q219 41 219 168q0 59 -26 91t-79 48l-198 55q-254 70 -254 252z" />
    <glyph glyph-name="eta" unicode="&#x3b7;" 
d="M801 1053q118 0 134 -94q7 -40 7 -106t-4 -157q94 207 182 282t200 75t156 -74q44 -73 44 -141t-21 -197l-145 -1137l-168 -18l164 1192l12 137q0 150 -102 150q-68 -1 -152 -99t-174 -315l-86 -545l-156 -16l105 702q18 121 18 206t-51 85q-111 0 -178 -227l-58 10
q70 287 273 287z" />
    <glyph glyph-name="theta" unicode="&#x3b8;" 
d="M694 436q0 -172 54 -280t172 -107q297 0 393 678h-594q-23 -168 -25 -270v-21zM1343 1069q0 213 -63 303q-62 90 -166 90t-194 -108q-129 -147 -189 -539h592q20 139 20 254zM539 473q0 152 32 337q33 185 97 350q63 165 151 251q133 127 303 127t280 -111
q108 -111 107 -385q1 -143 -31 -327t-92 -348t-143 -248q-139 -145 -329 -145t-291 143q-84 119 -84 356z" />
    <glyph glyph-name="iota" unicode="&#x3b9;" 
d="M811 104q0 39 35 209l127 695l139 18l14 -14l-125 -678l-10 -51q-27 -133 -27 -171t11 -52q10 -14 44 -15q34 0 81 53t84 183l59 -11q-39 -136 -90 -202t-96 -81t-99 -16q-147 0 -147 133z" />
    <glyph glyph-name="kappa" unicode="&#x3ba;" 
d="M1392 1053q68 0 68 -54q0 -29 -20 -44t-86 -47t-189 -207q-6 -9 -12 -17q-104 -135 -188 -149q2 -2 0 -5q74 -8 124 -44t68 -91l41 -151q29 -113 47 -153t45 -40q63 0 111 115l57 -14q-43 -96 -90 -138t-123 -41q-127 0 -176 185l-55 221q-12 53 -53 84t-103 33l-82 -496
l-158 -10l177 1034l149 14l-76 -477q101 3 182 110q32 42 98 148t122 170q54 64 122 64z" />
    <glyph glyph-name="lambda" unicode="&#x3bb;" 
d="M1001 1599q86 0 140 -71q53 -72 65 -262l78 -1035q12 -156 70 -155q68 0 114 162l56 -15q-18 -74 -74 -162t-162 -88q-66 0 -102 67t-51 251l-48 502q-51 -113 -268 -557l-117 -236l-180 8q279 457 555 957q-12 209 -30 375t-105 167q-63 0 -127 -98l-53 31
q106 159 239 159z" />
    <glyph glyph-name="mu" unicode="&#x3bc;" 
d="M1274 132q0 -44 12 -58t49 -14t86 50q49 52 88 162l62 -10q-94 -287 -277 -287q-92 -1 -116 51t-25 108q0 56 6 108q-47 -129 -130 -198t-191 -69q-41 1 -75 19t-48 51l-37 -235q-25 -144 -36 -220t-36 -102t-71 -25q-59 -1 -59 71t42 259l217 1235l154 12l-131 -759
q-6 -33 -6 -81t34 -82t87 -34q54 0 116 41q61 41 110 124q48 83 68 202l101 577l153 12l-118 -692q-29 -172 -29 -216z" />
    <glyph glyph-name="nu" unicode="&#x3bd;" 
d="M737 938q-47 0 -94 -133l-47 16q29 96 79 164t122 68q121 0 151 -244l74 -598h4l154 313q78 156 105 244q28 88 38 190q5 43 25 69t47 26q55 -1 55 -107t-123 -328l-373 -645h-43l-112 803q-23 162 -62 162z" />
    <glyph glyph-name="xi" unicode="&#x3be;" 
d="M778 -494q-102 0 -102 67q0 34 42 54t154 33q246 29 246 156q0 72 -49 104t-183 62q-134 29 -203 83q-69 53 -69 189t96 266t236 211q-129 63 -129 180q0 74 56 155t153 179q-141 25 -141 111q-1 43 21 86q22 42 54 70t50 28q20 0 20 -16q0 -6 -17 -58t-18 -94
q0 -59 84 -78q78 74 162 124t137 50t54 -51q-1 -28 -49 -71q-47 -43 -123 -75t-154 -32q-143 -143 -143 -285t57 -184q84 39 161 39t76 -47q0 -74 -143 -74q-39 0 -98 17q-108 -75 -178 -181t-70 -196t17 -126q17 -38 57 -60t145 -52t165 -74q60 -45 60 -130t-34 -140
t-107 -115q-154 -125 -293 -125z" />
    <glyph glyph-name="omicron" unicode="&#x3bf;" 
d="M666 350q0 -134 74 -219q74 -86 208 -86q86 0 166 41q80 42 135 112t91 205t37 267t-80 222q-81 91 -222 91t-235 -105q-94 -106 -134 -250t-40 -278zM1106 1053q121 0 219 -46q99 -47 155 -137t56 -223t-44 -285t-176 -270t-377 -117q-245 0 -365 160q-65 86 -64 221
q0 135 44 292t176 281t376 124z" />
    <glyph glyph-name="pi" unicode="&#x3c0;" 
d="M560 -25q-60 0 -60 54q0 30 36 75q36 44 44 54q111 139 163 323l113 422q-88 0 -121 -9t-49 -50h-57q16 86 65 134t119 48h588q45 0 64 6t30 25h51q-14 -78 -46 -116t-89 -38h-61l-95 -489q-23 -124 -23 -232t52 -108q59 0 100 106l52 -12q-27 -98 -77 -145t-110 -48
q-147 0 -147 226q0 96 47 288q10 53 57 244l39 170h-282l-115 -471q-23 -96 -68 -202t-102 -181q-58 -74 -118 -74z" />
    <glyph glyph-name="rho" unicode="&#x3c1;" 
d="M1096 983q-156 0 -251 -103q-95 -104 -135 -248t-40 -278t80 -223q80 -88 216 -88t233 96q97 95 141 239t44 256t-31 184q-32 73 -98 119t-159 46zM1116 1053q136 -1 234 -53t147 -141t49 -200q0 -190 -70 -346q-70 -157 -206 -247q-137 -90 -328 -91q-129 -1 -202 51
t-117 130l-91 -652l-155 -18l143 963q98 604 596 604z" />
    <glyph glyph-name="sigma" unicode="&#x3c3;" 
d="M1060 983q-144 0 -240 -98q-96 -99 -138 -243q-43 -144 -43 -282t76 -228q75 -89 223 -89q148 1 244 107t133 245t37 267t-74 224q-74 97 -218 97zM1513 643q0 -174 -61 -326q-60 -153 -196 -247t-345 -95q-139 1 -235 55q-193 110 -193 340q0 112 43 270q43 157 176 285
t379 128q33 0 88 -11q272 12 404 29l14 -96q-21 -2 -248 -2q88 -53 131 -145t43 -185z" />
    <glyph glyph-name="tau" unicode="&#x3c4;" 
d="M967 209q0 -137 51 -137q59 0 102 108l51 -14q-25 -94 -81 -143t-118 -49q-60 0 -103 44q-42 44 -42 144t35 260l115 481h-189q-57 0 -85 -13t-41 -46h-58q18 88 68 135t114 47h512q48 0 66 6t31 23h51q-27 -152 -137 -152h-219q-107 -513 -115 -576t-8 -118z" />
    <glyph glyph-name="upsilon" unicode="&#x3c5;" 
d="M856 1053q53 0 86 -42q33 -43 33 -101t-10 -115l-84 -420q-21 -106 -21 -166t20 -104t85 -44q98 -1 184 101t137 250t51 244q0 98 -13 147t-25 86q-11 37 -11 61q0 102 70 103q45 1 75 -51q29 -52 29 -174t-56 -328q-56 -205 -179 -365t-314 -160q-94 1 -155 59
q-62 58 -62 146t23 195l67 330q23 105 23 171t-41 66q-28 0 -62 -38t-57 -103l-63 18q96 234 270 234z" />
    <glyph glyph-name="phi" unicode="&#x3c6;" 
d="M1391 644q1 110 -51 206t-197 125l-162 -926q176 17 274 144q63 81 99 211t37 240zM657 350q0 -144 72 -212q72 -67 176 -89l137 928q-155 -26 -243 -137q-61 -78 -101 -212t-41 -278zM1548 658q0 -148 -44 -288q-119 -379 -535 -395l-56 -321l-65 -6l47 329
q-184 14 -290 122q-105 108 -105 275t57 311t148 224q129 117 348 140l41 290l116 11l-53 -301q203 -18 297 -130q94 -113 94 -261z" />
    <glyph glyph-name="chi" unicode="&#x3c7;" 
d="M817 942q-51 0 -106 -125l-58 21q51 125 99 171t118 46q45 1 80 -55t60 -220l53 -368l315 606l181 14q-187 -305 -455 -780l82 -490q18 -124 46 -166t73 -42q72 0 139 127l59 -19q-93 -207 -237 -207q-45 1 -80 17t-70 79t-55 191q-14 119 -47 352l-342 -612l-180 -8
q209 303 446 723l39 67l-14 84q-41 229 -64 388t-42 183q-19 23 -40 23z" />
    <glyph glyph-name="psi" unicode="&#x3c8;" 
d="M1393 686q0 88 -28 166t-28 102q0 98 76 99q45 -1 76 -51t31 -170t-60 -317t-179 -353q-120 -156 -292 -182l-74 -326l-65 -4l61 325q-117 -1 -191 57t-73 156q0 98 23 191l73 326q25 109 25 177t-49 66q-31 0 -68 -39t-61 -104l-62 18q100 229 285 230q51 0 85 -38
q34 -37 34 -97t-12 -119l-89 -424q-20 -96 -20 -152q0 -143 119 -164l250 1280l114 9l-286 -1289q116 21 203 138t135 259q47 142 47 230z" />
    <glyph glyph-name="omega" unicode="&#x3c9;" 
d="M1071 281q0 -100 40 -167t93 -67q82 0 144 97q61 98 94 236t33 255q0 248 -162 377l45 37q80 -33 144 -104t102 -158q36 -87 36 -164t-24 -220t-122 -286q-97 -143 -294 -144q-94 -1 -146 53t-71 189h-6q-57 -137 -130 -189t-183 -52t-183 88q-73 89 -73 257t59 323
t157 260t214 147l39 -41q-76 -37 -145 -125q-69 -87 -114 -231t-45 -337q0 -266 138 -266q45 0 90 42q103 96 131 280l84 532l149 19l-88 -572q-6 -36 -6 -69z" />
    <glyph glyph-name="uni0401" unicode="&#x401;" 
d="M651 223v1071q0 78 -10 109t-42 40t-114 9v64h942l66 -322h-78q-29 119 -50 167q-22 48 -49 60q-28 12 -91 13h-334q-37 0 -51 -8q-25 -13 -25 -93v-504h307q51 -1 73 13t29 56t7 140h78v-501h-78q0 102 -7 145t-29 55t-71 13h-309v-576q0 -56 12 -74t45 -18h410
q66 0 96 13t50 63q22 50 51 170h80l-72 -328h-1000v63q80 1 112 10t42 41t10 109zM1274 1782q0 -38 -26 -63t-64 -25t-62 26q-25 26 -24 64q0 40 26 64t64 24t62 -26t24 -64zM694 1784q0 40 26 64t64 24t63 -26q23 -26 23 -64t-24 -63t-64 -25t-64 26t-24 64z" />
    <glyph glyph-name="uni0410" unicode="&#x410;" 
d="M723 567h512l-266 744h-8zM1270 63q118 0 116 54q0 27 -20 84l-102 286h-568l-82 -268q-22 -71 -22 -102t26 -42t91 -12v-63h-342v63q59 0 86 23t49 94l450 1366h84l496 -1339q42 -115 85 -133q24 -10 64 -11v-63h-411v63z" />
    <glyph glyph-name="uni0411" unicode="&#x411;" 
d="M866 80h201q346 0 346 350q0 143 -100 232q-104 88 -312 88h-210v-566q0 -66 14 -85t61 -19zM1075 0h-612v63q82 -1 114 9t41 42q10 32 11 111v1063q0 80 -11 113q-10 33 -41 42q-32 9 -114 9v64h948l76 -336h-80q-31 125 -53 175q-23 50 -52 64q-30 14 -98 15h-344
q-45 0 -57 -16t-12 -72v-515h184q285 1 457 -108q152 -111 152 -297t-116 -301q-129 -125 -393 -125z" />
    <glyph glyph-name="uni0412" unicode="&#x412;" 
d="M852 82h199q348 0 348 350q1 146 -103 234t-311 88h-209v-570q1 -64 15 -83t61 -19zM1325 1157q0 123 -80 200t-252 77h-159q-34 0 -46 -14t-12 -56v-528h166q185 -1 284 80t99 241zM1491 1186q0 -146 -90 -248t-281 -133v-4q106 -2 210 -42t171 -123q68 -83 68 -206
q0 -172 -110 -301t-398 -129h-610v63q81 -1 113 9t41 42t9 113v1061q0 82 -9 114t-41 41t-113 9v64h514q143 -1 234 -19t165 -72q127 -92 127 -239z" />
    <glyph glyph-name="uni0413" unicode="&#x413;" 
d="M918 1434q-34 0 -48 -6q-24 -11 -24 -93v-1112q0 -83 10 -113t46 -38t136 -9v-63h-520v63q82 -1 114 9t42 41t10 108v1067q0 80 -10 113t-42 42t-114 9v64h995l76 -336h-78q-30 123 -53 174t-53 65q-31 14 -96 15h-391z" />
    <glyph glyph-name="uni0414" unicode="&#x414;" 
d="M858 1364q0 -422 -35 -728t-133 -554h658v1280q0 47 -12 59t-56 13h-356q-42 -1 -54 -13t-12 -57zM717 1352q-1 42 -17 64t-53 29t-110 7v64h1126v-64q-73 0 -103 -10t-40 -42t-11 -108v-1210h101l76 -320h-76q-35 119 -57 165t-56 60q-35 13 -115 13h-718
q-70 0 -104 -14t-58 -62t-56 -162h-75l75 320h93q104 252 141 548t37 722z" />
    <glyph glyph-name="uni0415" unicode="&#x415;" 
d="M651 223v1069q0 78 -10 110t-42 41t-114 9v64h942l66 -322h-78q-29 119 -50 167q-22 48 -49 60q-28 12 -91 13h-334q-37 0 -51 -8q-25 -13 -25 -93v-504h309q49 -1 71 13t29 56t7 140h78v-501h-78q0 102 -7 145t-29 55t-71 13h-309v-576q0 -60 12 -76t47 -16h408
q68 0 98 13t51 63q22 50 50 170h78l-72 -328h-1000v63q82 1 114 10t41 40t9 110z" />
    <glyph glyph-name="uni0416" unicode="&#x416;" 
d="M944 221v547q-94 0 -169 -45t-113 -127l-293 -596h-293v63q59 1 94 11q66 20 123 131l205 399q51 102 129 154t200 51v4q-211 20 -309 246q-106 246 -205 301q-115 63 -114 119q0 67 95 67t178 -101q82 -101 142 -261t137 -241t193 -91v442q0 76 -11 107t-46 41t-121 10
v64h516v-64q-86 0 -121 -10t-46 -41t-11 -107v-442q118 10 194 91t136 241t142 261q83 101 178 101t95 -67q-1 -35 -31 -62t-85 -59t-103 -107q-48 -76 -102 -192q-94 -225 -307 -246v-4q123 0 201 -51t128 -154l205 -399q57 -111 123 -131q35 -10 94 -11v-63h-295l-291 596
q-39 82 -113 127q-75 45 -169 45v-547q0 -75 12 -107t49 -41t127 -10v-63h-536v63q90 1 127 10t49 41t12 107z" />
    <glyph glyph-name="uni0417" unicode="&#x417;" 
d="M551 108q-66 67 -66 155q0 87 78 87q39 0 66 -51q45 -94 79 -142q76 -108 275 -108q137 0 229 52t138 133q45 81 45 169q1 137 -101 229t-256 119q-154 28 -239 27v70q104 0 225 36t207 112t86 194q0 61 -40 126q-40 66 -117 108t-179 42q-229 0 -303 -186
q-34 -100 -100 -100t-66 88q0 66 56 130t162 106t253 42q145 0 261 -48t178 -130t63 -182q0 -140 -117 -240t-313 -123v-6q155 -12 271 -67q116 -54 178 -142t62 -204t-69 -218q-70 -102 -203 -159q-132 -57 -294 -57q-314 0 -449 138z" />
    <glyph glyph-name="uni0418" unicode="&#x418;" 
d="M1735 0h-478v63q76 -1 105 9t37 40t8 107v907l-768 -882q0 -94 7 -127t36 -43t106 -11v-63h-477v63q82 -1 114 9t42 41t10 108v1071q0 80 -10 111t-42 40t-114 9v64h477v-64q-74 0 -102 -9t-38 -40q-9 -31 -9 -109v-919l768 887q0 100 -7 134t-35 45t-108 11v64h478v-64
q-82 0 -114 -9t-42 -41t-10 -110v-1071q0 -77 10 -108t42 -40t114 -10v-63z" />
    <glyph glyph-name="uni0419" unicode="&#x419;" 
d="M1733 0h-473v63q74 -1 102 9t35 41q8 31 8 108v905l-764 -882q0 -92 7 -126t35 -44t103 -11v-63h-473v63q82 -1 114 9t41 41t9 110v1069q0 80 -9 111t-41 40t-114 9v64h473v-64q-74 0 -102 -9t-35 -39q-8 -30 -8 -110v-919l764 887q0 100 -6 135t-34 45t-105 10v64h473
v-64q-82 0 -114 -9t-41 -40t-9 -111v-1069q0 -79 9 -110t41 -40t114 -10v-63zM1022 1716q82 0 137 31q-27 20 -27 53t25 58q25 24 64 24t63 -27t25 -63q0 -66 -76 -102t-211 -37q-135 0 -210 37t-75 102q0 38 25 64q26 26 64 26t62 -24t24 -58q0 -33 -27 -53q55 -31 137 -31
z" />
    <glyph glyph-name="uni041A" unicode="&#x41a;" 
d="M1683 0h-297l-473 805l-161 -195v-387q0 -81 9 -111t40 -39t108 -10v-63h-485v63q82 -1 114 9t41 41t9 110v1069q0 80 -9 111t-41 40t-114 9v64h475v-64q-75 0 -103 -9t-36 -40t-8 -113v-540h6l438 530q88 106 88 139t-96 33v64h383v-64q-66 0 -100 -17t-89 -83
l-362 -426l422 -707q45 -73 75 -104q31 -31 65 -41t101 -11v-63z" />
    <glyph glyph-name="uni041B" unicode="&#x41b;" 
d="M459 1452v64h1188v-64q-78 0 -108 -9t-39 -41t-9 -112v-1065q0 -79 9 -111t39 -41t108 -10v-63h-457v63q68 -1 94 9t36 42q9 32 9 107v1053q0 78 -8 110t-31 40q-23 9 -82 10h-323q-61 0 -86 -10t-30 -38q-5 -27 -3 -96v-469q0 -245 -41 -439t-110 -304t-153 -109
q-84 0 -85 64q0 55 65 112q109 102 146 302t37 372v471q-1 76 -12 109t-45 43t-109 10z" />
    <glyph glyph-name="uni041C" unicode="&#x41c;" 
d="M1692 1290v-1067q0 -81 9 -111t40 -39t110 -10v-63h-473v63q76 -1 105 9t37 41t8 110v1080h-4l-498 -1313h-61l-519 1315h-4v-1082q0 -81 8 -111t38 -39q28 -9 102 -10v-63h-393v63q79 -1 109 9t39 41t9 110v1075q0 78 -9 107t-39 38t-109 9v64h319l508 -1278h6l488 1278
h333v-64q-79 0 -110 -9t-40 -40t-9 -113z" />
    <glyph glyph-name="uni041D" unicode="&#x41d;" 
d="M1729 0h-472v63q72 -1 101 9t37 41t8 108v529h-764v-529q0 -79 8 -109t36 -39t101 -10v-63h-471v63q80 -1 112 9t41 41t9 108v1071q0 80 -9 111t-41 40t-112 9v64h471v-64q-72 0 -100 -9t-37 -40q-8 -31 -8 -109v-465h764v465q0 78 -8 109t-37 40t-101 9v64h472v-64
q-80 0 -112 -9t-41 -40t-9 -111v-1071q0 -77 9 -108t41 -40t112 -10v-63z" />
    <glyph glyph-name="uni041E" unicode="&#x41e;" 
d="M1022 49q104 0 200 42t156 116q146 193 146 561t-146 545q-133 153 -355 153t-355 -153q-144 -173 -144 -545t146 -561q61 -74 155 -116q93 -42 197 -42zM1034 1546q290 0 475 -194t185 -598q0 -406 -184 -595t-478 -189q-295 0 -486 177q-192 177 -192 609t195 611
t485 179z" />
    <glyph glyph-name="uni041F" unicode="&#x41f;" 
d="M786 0h-475v63q82 -1 114 9t41 41t9 112v1065q0 80 -9 112t-41 41t-114 9v64h1424v-64q-84 0 -116 -9t-41 -41t-9 -112v-1065q0 -81 9 -111t41 -40t116 -11v-63h-475v63q74 -1 102 9t37 41q8 31 8 108v1053q0 76 -7 106t-33 42q-26 11 -89 12h-510q-63 0 -88 -10t-33 -40
q-8 -31 -8 -108v-1055q0 -77 9 -108t37 -40t101 -10v-63z" />
    <glyph glyph-name="uni0420" unicode="&#x420;" 
d="M803 1311v-547h188q201 0 319 74t117 272q0 158 -98 241t-346 83h-129q-23 -1 -37 -12q-14 -12 -14 -111zM475 1452v64h535q176 0 280 -27t172 -82q135 -109 135 -305t-131 -301q-72 -59 -182 -88t-289 -29h-192v-461q0 -81 10 -111t48 -39t136 -10v-63h-522v63
q82 -1 114 9t42 41t10 110v1071q0 78 -10 109t-42 40t-114 9z" />
    <glyph glyph-name="uni0421" unicode="&#x421;" 
d="M428 774q0 244 80 418t229 264q151 90 345 90t372 -71q25 -205 53 -338l-77 -17q-29 143 -55 209t-89 102t-192 35q-238 0 -367 -185t-129 -503q0 -260 72 -421t180 -231t223 -69q287 0 412 344l78 -22q-74 -207 -206 -308t-306 -102q-276 0 -439 185q-184 211 -184 620z
" />
    <glyph glyph-name="uni0422" unicode="&#x422;" 
d="M1305 0h-557v63q100 -1 138 9t48 40t10 109v1213h-280q-66 0 -94 -14t-45 -62q-17 -49 -40 -178h-73l49 336h1128l49 -336h-73q-25 129 -42 179t-44 62t-95 13h-278v-1213q0 -79 11 -109t49 -39t139 -10v-63z" />
    <glyph glyph-name="uni0423" unicode="&#x423;" 
d="M494 1452v64h411v-66q-61 0 -85 -8t-24 -28t21 -73l281 -657h8l291 696q10 27 10 37q0 19 -24 27t-85 8v64h316v-64q-55 0 -79 -17t-50 -81l-459 -1098q-74 -158 -153 -222t-172 -65q-93 0 -157 38t-65 99q-1 26 19 46t45 20q47 0 82 -51q29 -37 48 -52t63 -15
q88 -1 174 183q40 85 114 263l-369 813q-31 65 -50 94t-42 37t-69 8z" />
    <glyph glyph-name="uni0424" unicode="&#x424;" 
d="M1394 389q99 89 130 189t30 178q0 196 -112 330t-338 147v-952q191 18 290 108zM604 1086q-113 -130 -112 -330q0 -106 44 -210t145 -177q101 -74 259 -88v952q-223 -17 -336 -147zM760 1452v64h524v-64q-94 0 -129 -9t-43 -36t-8 -100q219 -6 381 -99q119 -76 179 -198
t60 -250q0 -178 -87 -300t-227 -184t-306 -69q0 -71 9 -97t46 -36t127 -11v-63h-526v63q90 1 126 11t45 37t9 96q-207 10 -346 93t-206 205q-66 123 -66 241t48 238t186 216t384 107q0 77 -9 103t-43 34t-128 8z" />
    <glyph glyph-name="uni0425" unicode="&#x425;" 
d="M596 106q0 -26 30 -34t95 -9v-63h-391v63q53 -1 83 19t87 94l450 580l-348 538q-55 80 -82 110q-28 30 -56 39t-87 11v64h471v-64q-61 -2 -88 -10t-27 -34t64 -122l264 -401h6l328 416q59 74 59 108q0 43 -119 43v64h379v-64q-49 0 -77 -19t-87 -96l-432 -544l379 -564
q55 -79 88 -113t63 -44t83 -11v-63h-478v63q61 1 88 9t27 38t-63 123l-297 426h-4l-353 -456q-55 -70 -55 -97z" />
    <glyph glyph-name="uni0426" unicode="&#x426;" 
d="M1493 0h-1204v63q83 -1 115 9t41 42t10 111v1065q1 80 -9 111t-43 41t-114 10v64h477v-64q-76 0 -104 -9t-35 -40q-8 -31 -9 -111v-1050q0 -78 8 -110t34 -41q24 -9 88 -9h509q63 0 89 9q25 9 32 40q8 31 8 111v1050q0 78 -9 110t-38 41t-100 9v64h473v-64q-82 0 -113 -9
t-39 -40t-10 -113v-1065q1 -79 9 -110q7 -31 37 -41t104 -11l57 -307h-76q-29 119 -48 167q-19 49 -48 63t-92 14z" />
    <glyph glyph-name="uni0427" unicode="&#x427;" 
d="M1468 213q0 -71 10 -101t42 -39q31 -9 108 -10v-63h-491v63q85 1 117 9t41 37t10 104v438h-5q-176 -188 -409 -188q-158 -1 -234 67t-94 149t-18 173v453q0 73 -10 101t-41 37t-107 9v64h461v-64q-68 0 -96 -9t-36 -38q-9 -29 -9 -98v-449q0 -131 48 -218t193 -87
q168 0 357 213v545q-1 69 -9 97t-34 37q-27 9 -93 9v62h457v-62q-77 0 -108 -10t-40 -39t-10 -100v-1092z" />
    <glyph glyph-name="uni0428" unicode="&#x428;" 
d="M940 238v1056q0 82 -9 111t-44 38t-129 9v64h528v-64q-94 0 -129 -8t-44 -38t-9 -112v-1056q0 -82 9 -111t43 -37t130 -8h182q61 0 87 11t33 42t7 107v1050q0 82 -8 112t-38 39t-111 9v64h491v-64q-88 0 -121 -10t-42 -40t-9 -112v-1065q0 -83 9 -113t42 -39t121 -10v-63
h-1816v63q87 -1 119 9t42 41t11 112v1065q1 82 -9 113t-43 40t-120 9v64h491v-64q-78 0 -108 -9t-38 -40q-9 -31 -9 -111v-1050q0 -76 7 -108q8 -32 32 -42t85 -10h181q96 0 132 8t45 38t9 110z" />
    <glyph glyph-name="uni0429" unicode="&#x429;" 
d="M604 1452q-78 0 -108 -9t-38 -40q-9 -31 -9 -111v-1050q0 -80 7 -111q8 -31 32 -40t85 -9h228q71 0 97 9t34 40t8 111v1050q0 82 -9 112t-44 39t-129 9v64h530v-64q-92 0 -128 -9t-46 -41t-10 -112v-1048q0 -80 7 -111t32 -40t86 -9h241q61 0 86 9t32 40t7 111v1050
q0 80 -8 111t-39 40t-110 9v64h491v-64q-86 0 -119 -10t-42 -40t-9 -112v-1065q0 -77 10 -109t41 -42t107 -11l59 -305h-75q-29 119 -49 166q-19 48 -48 62t-94 14h-1597v63q85 1 119 11t43 41t10 110v1065q1 80 -9 111t-44 41t-119 10v64h491v-64z" />
    <glyph glyph-name="uni042A" unicode="&#x42a;" 
d="M1090 82h200q344 0 344 350q0 162 -109 241q-110 79 -302 79h-209v-568q0 -64 14 -83t62 -19zM1296 0h-610v63q82 -1 114 9t41 42t9 113v1119q0 57 -11 72t-57 16h-264q-66 0 -96 -14t-54 -65q-22 -50 -53 -173h-77l73 334h867v-64q-82 0 -114 -9t-41 -41t-9 -114v-457
h186q291 0 449 -106q157 -105 157 -293t-120 -310t-390 -122z" />
    <glyph glyph-name="uni042B" unicode="&#x42b;" 
d="M565 82h191q172 0 254 85t82 265q0 140 -96 230t-304 90h-200v-568q0 -66 13 -84t60 -18zM1362 1452v64h518v-64q-88 0 -123 -9t-45 -40t-10 -111v-1069q0 -81 10 -111t45 -39t123 -10v-63h-520v63q90 -1 125 9t45 41t10 110v1069q0 80 -10 111t-44 40t-124 9zM762 0
h-596v63q80 -1 112 9t41 42q10 32 11 111v1078q0 73 -10 101t-44 38q-33 10 -110 10v64h500v-64q-84 0 -119 -10t-45 -42t-10 -112v-457h180q207 0 340 -56q250 -105 252 -345q0 -188 -117 -305q-119 -125 -385 -125z" />
    <glyph glyph-name="uni042C" unicode="&#x42c;" 
d="M924 82h200q346 0 346 350q0 148 -103 234t-310 86h-209v-568q0 -66 14 -84t62 -18zM1133 0h-613v63q82 -1 114 9t42 42t10 111v1078q0 73 -10 101t-44 38t-112 10v64h504v-64q-88 0 -122 -9t-44 -41t-10 -114v-457h186q301 1 454 -109q152 -110 152 -286t-110 -306
t-397 -130z" />
    <glyph glyph-name="uni042D" unicode="&#x42d;" 
d="M1579 774q0 -410 -182 -620q-162 -184 -441 -185q-92 0 -189 36t-169 99q-49 47 -85 120t-36 116q0 104 66 104q49 0 63 -53q78 -334 330 -334q111 0 216 65q105 66 179 220t78 408h-647v79h645q-13 330 -149 484t-343 153q-129 0 -192 -34t-90 -102q-27 -67 -55 -210
l-76 17q31 154 51 338q176 71 368 71t340 -85t233 -258t85 -429z" />
    <glyph glyph-name="uni042E" unicode="&#x42e;" 
d="M1352 47q92 0 177 41t140 113q131 182 131 563t-129 557q-127 145 -319 145q-274 0 -362 -211t-87 -499q0 -369 131 -555q54 -72 140 -113t178 -41zM551 0h-475v63q80 -1 110 9t40 41q9 31 10 110v1071q0 78 -10 109t-40 40q-31 9 -110 9v64h475v-64q-74 0 -104 -9
q-31 -9 -39 -40t-9 -109v-463h336q16 339 173 527t446 188q290 0 454 -198t164 -591q0 -392 -170 -599q-170 -188 -439 -188t-448 173q-178 174 -180 607h-336v-527q1 -77 10 -109t39 -41t103 -10v-63z" />
    <glyph glyph-name="uni042F" unicode="&#x42f;" 
d="M1305 786v521q-1 105 -15 115q-14 11 -41 12h-153q-224 0 -308 -90t-83 -214q0 -342 434 -344h166zM397 0v63q55 -1 86 9t60 40t69 97l320 518q-98 12 -190 60q-92 49 -149 135q-58 86 -58 204q0 186 141 291q76 55 171 77t243 22h542v-64q-82 0 -114 -9t-41 -40
q-10 -31 -11 -111v-1069q0 -81 10 -111t43 -39q32 -9 113 -10v-63h-495v63q85 -1 117 9t41 41t10 110v482h-211l-426 -705h-271z" />
    <glyph glyph-name="uni0430" unicode="&#x430;" 
d="M756 251q0 -87 58 -139t169 -53q154 0 285 127v400q-358 -77 -465 -196q-47 -52 -47 -139zM1268 750q0 233 -214 233q-108 0 -167 -40t-103 -128q-20 -53 -77 -53q-61 0 -61 73q0 37 46 91q47 54 139 90q92 37 244 37t249 -72t97 -252v-520q0 -158 72 -158q37 0 68 19
l14 -52q-57 -31 -141 -30q-123 0 -152 121h-8q-150 -135 -354 -136q-137 0 -232 72q-94 72 -94 193q0 166 154 258q123 80 374 129l146 32v93z" />
    <glyph glyph-name="uni0431" unicode="&#x431;" 
d="M672 586q0 -162 47 -285t131 -189t176 -67q198 0 296 196q50 99 50 234t-39 248t-115 183t-186 69q-110 0 -193 -74t-125 -168t-42 -147zM1532 508q0 -268 -138 -402t-378 -133q-240 0 -373 171t-133 456q0 156 60 306t166 271q106 122 235 195q72 41 243 107l66 24
q92 29 122 53t40 23q10 0 10 -16q0 -59 -65 -123t-211 -119t-231 -100t-140 -111t-85 -130t-54 -167h6q72 125 164 182t235 57t247 -74q104 -75 158 -199q56 -124 56 -271z" />
    <glyph glyph-name="uni0432" unicode="&#x432;" 
d="M1327 288q0 90 -72 153q-72 62 -245 65h-158v-373q0 -41 8 -51t41 -10h164q140 0 201 63t61 153zM1266 776q0 178 -248 178h-131q-23 0 -29 -8t-6 -33v-342h127q111 1 199 51t88 154zM1487 282q0 -112 -95 -197t-321 -85h-500v57q68 0 92 5q25 6 31 24t6 70v714
q0 50 -7 70t-31 26t-91 5v55h428q422 0 422 -235q0 -102 -68 -162q-69 -59 -169 -80v-4q133 -18 218 -84q85 -67 85 -179z" />
    <glyph glyph-name="uni0433" unicode="&#x433;" 
d="M1251 954h-297q-33 0 -42 -12t-9 -53v-731q0 -56 7 -74t35 -24t108 -5v-55h-430v55q63 0 88 6q25 5 31 25t8 72v708q0 54 -8 74t-30 26q-24 6 -89 5v55h786l61 -233h-65q-23 81 -40 113t-40 40t-74 8z" />
    <glyph glyph-name="uni0434" unicode="&#x434;" 
d="M1196 954h-260q-29 0 -39 -9t-10 -36q0 -283 -26 -474t-103 -363h487v839q0 29 -8 36t-41 7zM1294 0h-577q-53 0 -77 -10t-42 -42t-45 -110h-64l58 234h67q78 174 105 363t26 470q0 41 -26 53q-27 12 -111 13v55h908v-55q-57 0 -80 -6q-23 -5 -30 -25t-7 -70v-798h76
l53 -234h-62q-29 84 -43 113t-41 39t-88 10z" />
    <glyph glyph-name="uni0435" unicode="&#x435;" 
d="M1035 983q-122 0 -209 -92t-99 -287h588q-4 193 -81 286t-199 93zM565 537q0 141 56 259q55 118 160 188t249 69q203 0 323 -134t120 -384h-746q0 -342 195 -448q70 -38 173 -38q103 1 190 61t130 140l62 -33q-155 -242 -422 -242q-240 0 -373 154q-117 145 -117 408z
" />
    <glyph glyph-name="uni0436" unicode="&#x436;" 
d="M1255 971q-77 0 -107 -6q-30 -5 -38 -23t-8 -65v-291q110 8 176 64t123 184q41 86 104 152t149 67q86 0 87 -52q0 -27 -23 -44t-69 -39q-88 -41 -181 -199q-80 -125 -225 -162v-6q154 -17 227 -117t199 -289q41 -59 75 -76t109 -18v-51h-260l-260 412q-66 102 -231 98
v-360q0 -48 8 -66t38 -24t109 -5v-55h-466v55q79 0 109 6q30 5 38 23t8 66v360q-92 2 -144 -23t-87 -75l-262 -412h-258v51q75 -1 109 17t75 77l39 58q92 139 162 235t223 113v6q-145 37 -223 162q-92 158 -181 199q-92 39 -92 83q0 51 86 51q85 0 149 -65q64 -66 105 -151
q57 -126 123 -184t176 -66v291q0 47 -8 65t-38 24t-109 5v55h464v-55z" />
    <glyph glyph-name="uni0437" unicode="&#x437;" 
d="M690 797q-63 0 -63 63q0 49 47 94t133 72t194 27q189 0 305 -69t116 -177t-87 -176q-86 -68 -225 -82v-4q178 -8 275 -79t97 -166t-56 -167q-58 -72 -168 -116t-270 -44q-160 -1 -270 53t-110 148q0 33 18 51q18 19 49 19q30 0 47 -18t44 -62l25 -41q57 -80 219 -80
q104 0 175 35q136 67 136 197q0 129 -136 180t-329 51v67q168 1 288 59t120 177q0 70 -69 122t-181 52t-164 -32t-76 -91q-12 -27 -35 -45t-49 -18z" />
    <glyph glyph-name="uni0438" unicode="&#x438;" 
d="M1470 162q0 -54 8 -74t34 -26q24 -6 90 -7v-55h-398v55q57 0 79 6q22 5 29 25t7 72v573l-592 -565q0 -55 6 -77t29 -28t80 -6v-55h-396v55q64 0 90 6q26 7 32 27t7 74v704q0 52 -7 72q-8 20 -32 26t-90 7v55h396v-55q-57 0 -79 -6q-22 -5 -29 -25t-7 -72v-583l592 569
q0 59 -5 81t-28 29t-82 7v55h398v-55q-66 0 -91 -5q-25 -6 -33 -26t-8 -74v-704z" />
    <glyph glyph-name="uni0439" unicode="&#x439;" 
d="M1468 162q0 -54 8 -74t34 -26t89 -7v-55h-397v55q59 0 81 6q22 5 28 25t6 74v571l-590 -565q0 -55 6 -77t28 -28t81 -6v-55h-398v55q63 0 88 6q25 7 33 27t8 74v704q0 52 -8 72t-33 26t-88 7v55h398v-55q-59 0 -81 -6q-22 -5 -28 -25t-6 -72v-583l590 569q0 59 -5 81
t-28 29t-82 7v55h397v-55q-63 0 -89 -6q-26 -5 -34 -25t-8 -72v-706zM1024 1253q76 0 129 29q-27 24 -27 54t23 54t59 24t61 -26q24 -26 23 -61q0 -63 -70 -100t-198 -37q-127 0 -198 37t-70 100q0 35 23 61q24 26 60 26q37 0 59 -24t22 -56t-25 -52q53 -29 129 -29z" />
    <glyph glyph-name="uni043A" unicode="&#x43a;" 
d="M1552 55v-55h-235l-369 530l-117 -120v-254q-1 -52 7 -70t32 -24t88 -5v-57h-409v57q67 0 91 5q24 6 31 24t7 70v716q0 52 -7 70t-31 24t-91 5v55h401v-55q-61 0 -84 -5q-22 -6 -28 -24t-7 -70v-337l330 327q63 66 63 88t-73 21v55h332v-55q-55 -1 -85 -14t-73 -58
l-270 -272l325 -469q59 -82 93 -93q35 -10 79 -10z" />
    <glyph glyph-name="uni043B" unicode="&#x43b;" 
d="M1423 160q-1 -52 7 -72t32 -26t88 -7v-55h-393v55q57 0 79 5q22 4 29 24t7 72v698q0 48 -5 68t-23 26t-62 6h-262q-78 0 -86 -30q-4 -16 -5 -62v-237q0 -261 -47 -400q-29 -96 -86 -174t-123 -78q-33 1 -53 19t-20 54t41 71q84 73 125 185t41 323v241q1 51 -9 73t-34 27
t-91 5v55h977v-55q-65 0 -89 -5q-25 -6 -31 -26t-7 -74v-706z" />
    <glyph glyph-name="uni043C" unicode="&#x43c;" 
d="M1604 868v-710q0 -52 7 -72t31 -26t93 -5v-55h-406v55q63 0 87 5q24 4 30 24t6 74v667h-4l-424 -831h-47l-442 837h-5v-673q0 -54 6 -72t30 -24q22 -6 83 -7v-55h-336v55q65 0 89 6q24 7 31 25t7 72v714q0 52 -7 70t-31 24t-89 5v55h273l442 -844h4l426 844h277v-55
q-68 0 -93 -5q-26 -4 -32 -24t-6 -74z" />
    <glyph glyph-name="uni043D" unicode="&#x43d;" 
d="M1604 55v-55h-398v55q57 0 80 6q23 7 29 25t6 70v344h-582v-344q0 -52 6 -70t29 -24t80 -7v-55h-395v55q67 0 91 5q24 4 31 24t7 74v712q0 50 -7 70t-32 26t-90 5v55h395v-55q-59 0 -81 -5q-22 -6 -28 -24t-6 -70v-299h582v299q0 52 -6 70t-28 24t-81 5v55h398v-55
q-66 0 -91 -5q-25 -4 -33 -24t-7 -72v-712q0 -52 8 -72q9 -20 33 -26t90 -5z" />
    <glyph glyph-name="uni043E" unicode="&#x43e;" 
d="M1022 45q82 0 156 35t122 94q47 70 74 166t27 179t-26 178t-72 165q-111 123 -279 123t-276 -123q-47 -66 -73 -159t-26 -180t25 -182t71 -165q49 -61 122 -96t155 -35zM1024 1053q236 0 389 -142q72 -75 110 -183t38 -212t-33 -208t-96 -179q-150 -156 -407 -156
t-407 156q-130 156 -128 404q0 122 56 244t176 199t302 77z" />
    <glyph glyph-name="uni043F" unicode="&#x43f;" 
d="M737 852v-694q0 -50 6 -70t28 -26t77 -7v-55h-393v55q67 0 91 6q24 5 31 25t7 74v708q0 52 -7 72t-32 26t-90 5v55h1138v-55q-65 0 -89 -5q-24 -4 -30 -24t-8 -74v-708q0 -52 6 -72t32 -26q24 -6 89 -7v-55h-393v55q57 0 79 6q22 7 28 25t6 72v694q0 48 -5 68
q-4 20 -24 27t-65 7h-388q-47 0 -65 -6t-24 -25t-5 -71z" />
    <glyph glyph-name="uni0440" unicode="&#x440;" 
d="M1061 53q164 0 249 123t85 359q0 164 -52 262q-93 178 -278 178q-145 0 -301 -154v-622q133 -146 297 -146zM905 -471v-55h-432v55q71 0 97 9t34 36t8 96v1094q0 72 -7 100t-35 36q-28 9 -97 9v47q152 23 258 97l21 -15l8 -127h4q154 141 344 142q131 -1 232 -63
q102 -62 158 -182t56 -282q0 -282 -128 -416t-322 -134t-336 118h-4v-424q0 -67 8 -95t36 -37t97 -9z" />
    <glyph glyph-name="uni0441" unicode="&#x441;" 
d="M1092 53q199 0 317 180l55 -36q-39 -56 -81 -101q-43 -45 -123 -83t-220 -38t-248 75t-158 199q-50 123 -50 277t65 275t177 187t235 65q123 0 205 -33t126 -83t44 -99q0 -72 -60 -72q-29 0 -52 29t-56 88q-63 100 -189 100q-90 0 -167 -53q-76 -52 -122 -158t-47 -254
q1 -219 95 -342t254 -123z" />
    <glyph glyph-name="uni0442" unicode="&#x442;" 
d="M1251 55v-55h-454v55q81 0 109 5q28 6 35 24t7 74v796h-211q-51 0 -73 -8t-33 -40q-12 -32 -33 -120h-61l36 240h900l36 -240h-63q-20 88 -33 120t-33 40t-71 8h-209v-796q0 -56 7 -74t35 -24t109 -5z" />
    <glyph glyph-name="uni0443" unicode="&#x443;" 
d="M483 971v55h391v-55q-60 0 -84 -9t-24 -33t22 -75l289 -666h4l287 703q14 33 14 49q0 31 -102 31v55h299v-55q-55 1 -78 -17t-49 -84l-459 -1128q-69 -150 -143 -220t-176 -71q-102 0 -159 40q-56 40 -56 95q0 27 15 42t38 16q51 0 94 -60t88 -61q109 0 211 219l105 272
l-373 815q-31 70 -48 98t-39 36t-67 8z" />
    <glyph glyph-name="uni0444" unicode="&#x444;" 
d="M1410 49q182 0 246 159t64 324q0 86 -26 186t-98 178q-71 77 -176 77t-177 -41t-145 -113v-622q130 -148 312 -148zM622 975q-104 0 -175 -77t-97 -178t-26 -188q0 -209 77 -348q92 -133 253 -133t292 148v622q-73 72 -146 113q-74 41 -178 41zM615 1053q177 0 325 -135
h6v385q0 67 -8 93t-37 35t-96 9v47q160 23 272 94l21 -12v-651h4q148 135 321 135t272 -83t142 -204q43 -122 43 -274t-61 -276t-163 -183t-229 -60q-182 0 -325 121h-4v-424q0 -68 8 -96t36 -36q28 -9 95 -9v-55h-428v55q69 0 95 9t34 37t8 95v424h-4q-141 -121 -321 -121
q-223 0 -343 152t-120 401q0 98 40 220t140 214t277 93z" />
    <glyph glyph-name="uni0445" unicode="&#x445;" 
d="M735 88q0 -33 96 -33v-55h-319v55q41 -1 72 19t73 73l291 371l-241 346q-51 70 -80 88t-76 19v55h393v-55q-94 0 -94 -33q0 -18 37 -72l168 -245h6l207 260q31 41 30 57q0 33 -84 33v55h308v-55q-41 -1 -69 -19t-73 -71l-274 -330l270 -387q51 -74 83 -91t77 -18v-55
h-397v55q90 0 90 31q0 23 -35 70l-195 293h-6l-233 -314q-25 -31 -25 -47z" />
    <glyph glyph-name="uni0446" unicode="&#x446;" 
d="M1407 0h-948v55q67 0 91 6q24 5 31 25t7 74v708q0 52 -7 72t-32 26t-90 5v55h395v-55q-59 0 -81 -5q-22 -6 -28 -24t-6 -72v-696q0 -50 6 -70q7 -20 25 -26t66 -6h376q47 0 65 6q17 6 23 25t7 71v696q1 50 -7 70t-30 26t-78 5v55h395v-55q-67 0 -91 -5q-24 -4 -31 -24
t-7 -74v-708q0 -52 7 -72t30 -26t80 -7l45 -219h-68q-20 80 -34 113t-37 42t-74 9z" />
    <glyph glyph-name="uni0447" unicode="&#x447;" 
d="M1397 874v-724q0 -46 7 -64t31 -24t83 -7v-55h-404v55q63 0 89 5q26 6 34 24t8 66v282h-6q-143 -123 -315 -123q-285 0 -285 266v302q0 47 -5 64t-28 23t-80 7v55h373v-55q-53 0 -75 -5q-22 -4 -26 -22t-5 -63v-287q0 -203 176 -203q129 0 276 141v347q0 45 -6 62
q-11 30 -100 30v55h379v-55q-59 0 -83 -6q-24 -7 -31 -25t-7 -66z" />
    <glyph glyph-name="uni0448" unicode="&#x448;" 
d="M944 172v698q0 50 -7 70t-32 26t-92 5v55h410v-55q-65 0 -89 -5q-24 -6 -30 -24t-6 -72v-698q0 -54 6 -72t29 -23t86 -5h124q47 0 66 6q18 6 24 25q5 19 5 71v696q0 54 -6 72t-26 24t-79 5v55h393v-55q-68 0 -92 -5q-24 -4 -30 -24q-7 -20 -7 -74v-708q0 -52 7 -72
t32 -26t90 -7v-55h-1398v55q66 0 90 5q24 6 32 26q6 20 7 74v708q1 52 -7 72t-32 26t-90 5v55h395v-55q-57 0 -79 -5q-22 -4 -29 -24t-7 -72v-696q0 -50 6 -70t26 -26t66 -6h115q65 0 90 6t32 24t7 70z" />
    <glyph glyph-name="uni0449" unicode="&#x449;" 
d="M453 868q1 52 -7 72t-32 26t-88 5v55h393v-55q-57 0 -79 -5q-22 -4 -28 -24t-6 -72v-694q0 -52 6 -72t24 -26t64 -6h142q53 0 73 6t27 26q6 20 6 72v692q0 54 -7 72t-33 24t-93 7v55h410v-55q-63 0 -87 -6q-24 -5 -31 -25t-7 -72v-692q0 -52 5 -72t23 -26t64 -6h154
q47 0 65 6t25 26q6 20 6 72v694q0 50 -6 70t-28 26t-81 5v55h395v-55q-68 0 -92 -5q-24 -4 -30 -24t-7 -74v-708q-1 -50 7 -70t32 -28t78 -7l41 -219h-65q-23 80 -38 112t-39 42t-75 10h-1208v55q63 0 88 6q26 5 32 25t7 74v708z" />
    <glyph glyph-name="uni044A" unicode="&#x44a;" 
d="M1491 287q0 129 -96 172t-209 43h-164v-365q0 -41 10 -53t45 -12h156q104 0 181 43t77 172zM1653 295q0 -137 -115 -223q-109 -72 -299 -72h-498v55q65 0 89 5q24 6 32 26t8 74v737q0 37 -9 47t-42 10h-203q-50 0 -74 -9t-41 -42t-40 -112h-64l60 235h694v-55
q-65 0 -89 -5q-24 -6 -32 -26t-8 -74v-297h139q492 0 492 -274z" />
    <glyph glyph-name="uni044B" unicode="&#x44b;" 
d="M1040 295q0 123 -99 166t-212 43h-156v-367q1 -41 11 -53t43 -12h155q258 0 258 223zM1470 158v712q0 50 -7 70t-33 26t-101 5v55h436v-55q-75 0 -101 -5q-26 -4 -34 -24t-8 -72v-712q0 -52 8 -72t35 -26t100 -5v-55h-436v55q74 0 101 5q28 4 34 24t6 74zM422 162v715
q0 45 -8 63t-34 24t-87 7v55h412v-55q-66 0 -92 -6q-27 -7 -33 -27t-7 -74v-295h142q487 0 487 -274q0 -59 -32 -126t-124 -118t-258 -51h-495v55q65 0 90 5q25 6 32 26t7 76z" />
    <glyph glyph-name="uni044C" unicode="&#x44c;" 
d="M1333 304q0 100 -91 150t-222 50h-158v-367q0 -41 10 -53t46 -12h157q146 0 202 66t56 166zM711 879q-1 45 -9 62t-32 23t-88 7v55h411v-55q-67 0 -91 -6q-24 -7 -32 -27t-8 -74v-295h144q193 0 340 -57t147 -217q0 -59 -34 -127t-126 -118t-254 -50h-497v55q65 0 90 5
q26 6 32 26t7 76v717z" />
    <glyph glyph-name="uni044D" unicode="&#x44d;" 
d="M1487 509q0 -169 -69 -293q-68 -124 -184 -183t-238 -59t-210 37q-90 39 -141 99t-51 107q0 94 61 92q59 0 77 -86t89 -133q70 -47 159 -47t169 54q80 53 127 157t49 246h-506v69h508q-14 178 -106 296t-265 118t-222 -92q-22 -43 -46 -139l-72 12q23 98 43 237
q351 113 579 -16q249 -141 249 -476z" />
    <glyph glyph-name="uni044E" unicode="&#x44e;" 
d="M1294 981q-202 0 -284 -137t-82 -332q0 -138 46 -244t130 -166t181 -61q183 0 296 139q92 141 92 340t-88 330t-291 131zM1302 1053q225 0 373 -129q76 -76 118 -189t42 -221q0 -166 -69 -288q-68 -122 -190 -188t-260 -65q-305 0 -460 213q-84 117 -88 314h-254v-346
q0 -52 6 -70t29 -24t84 -5v-55h-400v55q66 0 90 5q25 6 31 24t6 70v718q0 52 -7 70t-31 24t-89 5v55h400v-55q-63 0 -85 -5q-22 -4 -28 -22t-6 -72v-301h256q25 236 166 359t366 123z" />
    <glyph glyph-name="uni044F" unicode="&#x44f;" 
d="M772 762q0 -109 85 -167t247 -58h119v346q0 51 -6 64t-33 14h-117q-177 0 -236 -66t-59 -133zM612 758q0 137 125 203t322 65h446v-55q-67 0 -91 -5q-24 -6 -31 -24t-7 -70v-718q0 -52 7 -70t31 -24t91 -5v-55h-409v55q66 0 90 5q24 6 30 24t7 70v317h-156l-326 -471
h-235v57q66 -1 94 15t76 80l242 335q-144 17 -225 90t-81 181z" />
    <glyph glyph-name="uni0451" unicode="&#x451;" 
d="M1030 983q-94 0 -191 -78t-112 -301h588q-4 187 -80 283t-205 96zM727 535q0 -486 368 -486q103 0 188 56t132 145l62 -33q-162 -242 -410 -242q-248 1 -375 143t-127 417q0 143 57 261q56 118 161 188t247 69q203 0 323 -134t120 -384h-746zM1313 1298q0 -38 -26 -62
q-25 -24 -61 -24t-62 25t-26 61t25 61q25 26 63 26t62 -25q25 -25 25 -62zM940 1297q0 -37 -26 -61t-62 -24t-60 25q-26 25 -26 61t26 62q26 25 62 25t61 -26t25 -62z" />
    <glyph glyph-name="macute" unicode="&#x1e3f;" 
d="M772 973q-130 0 -293 -201v-577q0 -68 7 -95q7 -28 32 -36t86 -9v-55h-416v55q70 -1 97 9t35 40t8 103v559q0 70 -8 98t-36 38q-28 9 -96 7v47q158 29 258 97l21 -15l8 -166h4q171 180 321 180t214 -60t82 -128h6q162 188 346 189q303 0 303 -361v-497q0 -66 8 -94
q8 -29 32 -37t79 -9v-55h-389v55q55 0 79 8t31 34q8 26 8 85v500q0 291 -194 291q-160 0 -289 -199v-579q0 -68 7 -96t31 -36t83 -8v-55h-391v55q57 0 81 8t30 33q7 25 8 86v492q0 151 -47 225t-146 74zM1296 1489l35 -45l-289 -275l-73 101z" />
    <glyph glyph-name="hyphentwo" unicode="&#x2010;" 
d="M770 827h512v-90h-512v90z" />
    <glyph glyph-name="endash" unicode="&#x2013;" 
d="M1501 809v-59h-899v59h899z" />
    <glyph glyph-name="emdash" unicode="&#x2014;" 
d="M2048 799v-62h-2048v62h2048z" />
    <glyph glyph-name="uni2015" unicode="&#x2015;" 
d="M1950 807v-59h-1798v59h1798z" />
    <glyph glyph-name="dblverticalbar" unicode="&#x2016;" 
d="M1229 1802v-2048h-60v2048h60zM872 1802v-2048h-59v2048h59z" />
    <glyph glyph-name="quoteleft" unicode="&#x2018;" 
d="M1712 1487q51 0 91 -38t40 -97q0 -58 -42 -100q-43 -42 -101 -42t-102 47t-44 137t66 192t164 140l37 -47q-108 -55 -135 -194q8 2 26 2z" />
    <glyph glyph-name="quoteright" unicode="&#x2019;" 
d="M342 1450q-53 0 -93 38t-40 97t41 101q40 42 100 40q60 0 104 -46t44 -136t-66 -192q-66 -100 -164 -142l-37 47q109 56 136 195q-8 -2 -25 -2z" />
    <glyph glyph-name="quotedblleft" unicode="&#x201c;" 
d="M1757 1499q51 0 89 -36t38 -92t-40 -95t-95 -39t-96 43t-41 129t61 183t154 134l35 -45q-102 -53 -129 -184q8 2 24 2zM1280 1499q51 0 89 -36t38 -92t-40 -95t-96 -39t-97 43t-41 130t61 183t156 133l34 -45q-102 -53 -129 -184q8 2 25 2z" />
    <glyph glyph-name="quotedblright" unicode="&#x201d;" 
d="M772 1462q-53 0 -92 37t-39 93t40 96t96 38q56 0 97 -44t41 -130t-61 -182t-156 -133l-34 43q102 55 129 184q-6 -2 -21 -2zM295 1462q-53 0 -92 37t-39 93t40 96t95 38q55 0 96 -44t41 -130t-61 -182t-154 -133l-35 43q102 55 129 184q-6 -2 -20 -2z" />
    <glyph glyph-name="twodotenleader" unicode="&#x2025;" 
d="M1253 774q0 43 30 73t73 30q42 0 72 -30t30 -73t-30 -73q-30 -29 -72 -29t-73 30q-30 30 -30 72zM610 774q0 43 30 73t73 30t73 -30t29 -73q0 -43 -30 -73q-31 -29 -73 -29t-72 30t-30 72z" />
    <glyph glyph-name="ellipsis" unicode="&#x2026;" 
d="M1591 779q0 46 34 80t81 34t81 -34t34 -81t-34 -81t-82 -34t-81 35t-33 81zM909 779q0 46 34 80t81 34t81 -34t34 -81t-34 -81t-82 -34t-81 35t-33 81zM227 779q0 46 34 80t81 34t81 -34t34 -81t-34 -81t-82 -34t-81 35t-33 81z" />
    <glyph glyph-name="perthousand" unicode="&#x2030;" 
d="M1688 33q153 0 153 332q0 139 -30 234t-125 95q-156 1 -156 -329q0 -133 30 -233t128 -99zM1032 33q152 0 154 332q0 139 -30 234t-126 95q-156 1 -156 -329q0 -133 30 -233t128 -99zM1411 364q0 389 275 390q278 0 278 -389t-278 -390q-275 0 -275 389zM756 364
q0 389 276 390q276 0 276 -389t-278 -390q-274 0 -274 389zM358 1448q-155 0 -155 -330q-1 -133 27 -232t128 -100q154 0 154 332q0 156 -33 243t-121 87zM1047 1507h90l-795 -1532h-92zM360 727q-278 0 -278 390t277 390t278 -387q0 -244 -89 -318t-188 -75z" />
    <glyph glyph-name="minute" unicode="&#x2032;" 
d="M420 1751q0 -33 -19 -74q-84 -168 -168 -377l-36 11q25 156 82 381q29 111 83 110q8 0 21 -4q37 -14 37 -47z" />
    <glyph glyph-name="second" unicode="&#x2033;" 
d="M600 1692q29 111 84 110q8 0 21 -4q61 -23 18 -121q-82 -168 -168 -377l-37 11q25 156 82 381zM428 1751q0 -33 -18 -74q-82 -168 -168 -377l-37 11q25 156 82 381q29 111 84 110q8 0 20 -4q37 -14 37 -47z" />
    <glyph glyph-name="primeReversed" unicode="&#x2035;" 
d="M891 1754q0 28 41 44q16 4 24 4q53 0 68 -53l113 -475l-35 -12l-199 434q-12 30 -12 58z" />
    <glyph glyph-name="referencemark" unicode="&#x203b;" 
d="M1178 194q0 -62 -45 -108t-109 -45q-64 0 -109 45q-45 44 -45 108t45 109t110 45t109 -46t44 -108zM1608 932q62 0 108 -45q45 -45 45 -109t-45 -108q-45 -45 -108 -45t-109 45q-45 46 -45 110t46 108t108 44zM440 625q-62 0 -108 45q-45 45 -45 108q0 62 45 108t108 46
q62 0 108 -45t46 -109t-46 -109q-46 -44 -108 -44zM1700 1513l59 -59l-676 -676l676 -676l-59 -59l-676 676l-678 -678l-59 59l678 678l-676 676l59 59l676 -675zM870 1362q0 62 45 108t109 46t108 -46q46 -46 46 -108t-45 -108t-110 -46t-109 46t-44 108z" />
    <glyph glyph-name="uni205D" unicode="&#x205d;" 
d="M1025 211q46 0 80 -34t34 -81t-34 -81q-34 -33 -81 -33t-81 34t-34 81q0 48 35 81t81 33zM1025 893q46 0 80 -34t34 -81t-34 -81q-34 -33 -81 -33t-81 34t-34 81q0 48 35 81t81 33zM1025 1575q46 0 80 -34t34 -81t-34 -81q-34 -33 -81 -33t-81 34t-34 81q0 48 35 81
t81 33z" />
    <glyph glyph-name="Euro" unicode="&#x20ac;" horiz-adv-x="1257" 
d="M766 1507q166 0 328 -67q27 -207 51 -334l-78 -16q-23 134 -47 200t-81 103q-56 37 -169 37q-164 0 -285 -124t-145 -415h770l-20 -80h-754q-2 -16 -2 -61t2 -72h751l-20 -80h-725q18 -200 86 -320q123 -216 324 -219q154 1 240 105t122 229l78 -22q-70 -223 -197 -313
t-264 -89q-227 0 -380 157t-179 472h-133l22 80h107q-4 49 -4 74l2 59h-105l23 80h88q24 289 180 453t414 163z" />
    <glyph glyph-name="centigrade" unicode="&#x2103;" 
d="M633 1369q0 73 -51 124t-125 51t-126 -51t-52 -125t52 -125t127 -51t125 52t50 125zM1319 -31q-158 0 -297 83t-221 263q-82 179 -82 447t84 442t232 258q147 84 335 84t367 -71q27 -223 51 -338l-76 -17q-29 145 -56 212q-28 67 -91 102q-63 34 -199 34t-249 -76
q-112 -76 -175 -232t-63 -402q-1 -246 73 -408t182 -228t220 -65q160 -1 261 101t150 245l78 -24q-86 -240 -226 -325t-298 -85zM203 1368q0 68 35 126t93 93t126 35t126 -35t93 -93t35 -126t-35 -126t-93 -93t-127 -35t-127 35t-92 93t-34 126z" />
    <glyph glyph-name="uni2105" unicode="&#x2105;" 
d="M1274 414q0 -154 58 -264q58 -111 188 -111q130 -1 191 109q60 110 61 260q0 150 -62 258t-186 108t-187 -103t-63 -257zM1137 412q0 110 43 206t130 158t211 62t211 -58t131 -154q44 -97 44 -214q1 -201 -99 -319t-288 -118t-286 122q-97 122 -97 315zM1481 1507h96
l-991 -1532h-99zM559 645q-137 0 -222 66q-159 123 -159 370q0 119 49 216t137 153t186 57q181 0 263 -91q37 -40 37 -73q0 -63 -45 -63q-61 0 -96 80q-13 32 -51 58t-89 26t-108 -31t-101 -111t-45 -239q0 -158 76 -252t191 -94q143 0 245 141l47 -35q-118 -178 -315 -178z
" />
    <glyph glyph-name="fahrenheit" unicode="&#x2109;" 
d="M1458 731h-373v-510q-1 -81 11 -111t53 -39t151 -10v-61h-536v61q84 -1 118 9t44 42t10 109v1075q0 80 -10 111t-43 39t-119 8v62h1053l73 -324h-82q-31 115 -52 164q-22 49 -51 64q-30 15 -89 16h-453q-37 0 -52 -8t-20 -26q-5 -19 -6 -69v-522h377q45 0 67 14
q22 15 30 59t8 136h80v-502h-80q0 101 -8 144t-30 56t-71 13zM594 1369q0 73 -51 124t-125 51t-126 -51t-52 -125t52 -125t127 -51t125 52t50 125zM164 1368q0 68 35 126t93 93t126 35t126 -35t93 -93t35 -126t-35 -126t-93 -93t-127 -35t-127 35t-92 93t-34 126z" />
    <glyph glyph-name="uni2116" unicode="&#x2116;" 
d="M1733 469h-512v90h512v-90zM1473 1372q-179 0 -179 -330q0 -145 36 -237t143 -92q176 0 176 329q0 138 -34 234t-142 96zM1464 1432q316 0 316 -390q0 -231 -96 -311t-210 -80t-210 75t-97 314q0 162 69 277q70 115 228 115zM961 1290q-1 78 -11 111t-42 42t-109 9v64
h397v-64q-68 0 -96 -9t-36 -42q-9 -33 -9 -111v-1308h-156l-565 1366h-4v-1123q0 -79 8 -111t38 -41t103 -10v-63h-401v63q76 -1 106 9t40 42q9 32 9 111v1067q0 80 -9 111t-40 40t-106 9v64h334l542 -1309h7v1083z" />
    <glyph glyph-name="telephone" unicode="&#x2121;" 
d="M1316 1059q-70 0 -118 -6v20q25 4 32 10t7 23v299q0 14 -6 19t-29 10v20q20 -2 62 -2t61 2v-20q-31 -2 -38 -8t-7 -21v-299q0 -20 14 -21h60q20 0 32 8t31 83l19 -5q-13 -57 -17 -118q-33 6 -103 6zM834 1417h-43v-313q0 -16 9 -22t42 -9v-20q-20 4 -70 4t-72 -4v20
q33 4 41 9t9 22v313h-52q-26 0 -34 -16t-17 -78h-18q4 94 2 131q25 -4 131 -4t137 4q0 -41 10 -133h-20q-5 64 -15 80t-40 16zM1052 1057q-86 0 -118 -4v18q27 4 36 10t9 23v295q0 20 -7 27t-34 10l6 20q37 -4 112 -4t97 2l6 -102h-18q-9 47 -17 59t-28 12h-58q-10 0 -13 -4
t-3 -20v-119h61q18 0 21 57h20l-2 -75l2 -72h-20q0 59 -21 59h-61v-145q0 -23 14 -23h66q23 -1 33 15t24 73l21 -4q-15 -59 -15 -112q-27 4 -113 4z" />
    <glyph glyph-name="trademark" unicode="&#x2122;" horiz-adv-x="1724" 
d="M834 1397v-506q0 -43 5 -59t20 -22q15 -5 54 -5v-47h-219v47q41 0 58 5q16 4 20 22t4 61v502q0 37 -4 51t-20 18t-58 4v48h199l262 -615h2l256 615h209v-48q-69 0 -76 -19q-8 -19 -8 -56v-502q0 -41 5 -58t21 -23t58 -5v-47h-274v47q53 0 67 14t15 72v514h-5l-266 -651
h-57l-266 643h-2zM516 1460h-115v-571q-1 -41 5 -56q10 -28 90 -28v-47h-303v47q81 -1 91 27q6 16 5 57v571h-113q-33 0 -49 -7q-30 -13 -47 -116h-49l22 179h582l24 -179h-51q-17 103 -45 116q-14 7 -47 7z" />
    <glyph glyph-name="Oneroman" unicode="&#x2160;" 
d="M762 1452v64h526v-64q-92 0 -127 -9t-44 -39t-9 -110v-1071q0 -81 10 -111t45 -39t127 -10v-63h-528v63q92 -1 127 9t45 41t10 110v1071q0 78 -10 109t-45 40t-127 9z" />
    <glyph glyph-name="Tworoman" unicode="&#x2161;" 
d="M1241 223v1071q0 78 -10 108t-44 40t-120 10h-88q-86 0 -119 -10t-42 -40t-9 -108v-1071q0 -79 9 -109t43 -40t120 -11h86q86 1 120 11t44 41t10 108zM645 223v1071q0 78 -10 109t-45 40t-127 9v64h1122v-64q-92 0 -127 -9t-45 -40t-10 -109v-1071q0 -81 10 -111t45 -39
t127 -10v-63h-1122v63q92 1 127 10t45 40t10 110z" />
    <glyph glyph-name="Threeroman" unicode="&#x2162;" 
d="M1268 1452q-80 0 -112 -9t-41 -39t-9 -110v-1071q0 -79 9 -109t40 -40t113 -10t114 8q32 10 40 41q9 31 10 110v1071q-1 76 -10 107t-41 41q-33 10 -113 10zM779 1452q-81 0 -113 -9t-40 -39q-9 -30 -10 -110v-1071q0 -79 10 -109t40 -40t112 -10t114 8q32 10 41 41
t9 110v1071q0 76 -9 107t-41 41t-113 10zM455 1294q-1 78 -11 109t-45 40t-123 9v64h1496v-64q-90 0 -124 -9t-43 -39t-10 -110v-1071q-1 -81 9 -111t44 -39t124 -10v-63h-1496v63q88 1 123 10t45 40t11 110v1071z" />
    <glyph glyph-name="Fourroman" unicode="&#x2163;" 
d="M1698 1397q0 33 -27 44t-90 11v64h342v-64q-83 0 -106 -41q-14 -23 -35 -76l-473 -1366h-95l-489 1338q-33 93 -57 119t-72 26q-49 0 -73 -10t-33 -43t-9 -105v-1071q1 -81 11 -111t44 -39t123 -10v-63h-514v63q88 -1 122 9t44 41t11 110v1071q0 78 -10 109t-45 40
q-34 9 -122 9v64h856v-64q-69 0 -97 -13t-28 -46t23 -97l395 -1093h6l375 1093q23 68 23 101z" />
    <glyph glyph-name="Fiveroman" unicode="&#x2164;" 
d="M1536 1395q0 33 -28 45t-97 12v64h356v-64q-67 0 -91 -22t-56 -97l-533 -1364h-98l-547 1338q-29 69 -46 97t-43 38t-74 10v64h450v-64q-75 0 -105 -12t-30 -46t24 -96l453 -1122h6l434 1120q25 66 25 99z" />
    <glyph glyph-name="Sixroman" unicode="&#x2165;" 
d="M1372 63q92 -1 127 9t45 41t10 110v1071q0 126 -36 146q-18 10 -54 10t-55 -24q-20 -24 -45 -91l-475 -1366h-92l-490 1338q-27 71 -42 99t-39 37t-74 9v64h430v-64q-70 0 -98 -13t-28 -46t23 -97l395 -1093h7l374 1093q23 68 23 101t-27 44t-90 11v64h733v-64
q-90 0 -125 -9t-45 -40t-10 -109v-1071q0 -81 10 -111t45 -39t127 -10v-63h-524v63z" />
    <glyph glyph-name="Sevenroman" unicode="&#x2166;" 
d="M1518 1450q-48 0 -71 -10q-24 -10 -33 -42t-9 -104v-1071q0 -73 9 -105t33 -43t72 -11q49 0 71 10q42 22 42 149v1071q0 70 -9 103t-33 43t-72 10zM1083 63q88 -1 122 9t44 41t11 110v1071q0 126 -33 143q-18 9 -62 13q-41 -2 -58 -24t-36 -91l-371 -1366h-90l-389 1340
q-21 69 -35 97t-36 37t-72 9v64h399v-64q-59 0 -83 -12t-24 -43t21 -107l295 -1046h6l277 1054q16 70 16 101t-22 42q-23 11 -82 11v64h1069v-64q-84 0 -117 -9t-43 -40t-10 -109v-1071q0 -81 10 -111t43 -39t117 -10v-63h-867v63z" />
    <glyph glyph-name="Eightroman" unicode="&#x2167;" 
d="M1625 63q50 0 66 34q15 34 15 124v1075q0 88 -15 122t-67 34t-66 -34q-15 -34 -16 -122v-1075q1 -90 17 -124t66 -34zM1316 63q52 0 69 34t18 124v1075q1 88 -17 122t-71 34t-69 -33t-17 -123v-1075q0 -90 17 -124q18 -34 70 -34zM451 1452q-55 0 -77 -13t-22 -41
t19 -112l247 -1016h7l235 1028q14 72 14 101t-21 41q-22 12 -79 12v64h1204v-64q-61 0 -87 -9q-27 -9 -35 -41t-9 -108v-1071q-1 -77 9 -109t36 -41t86 -10v-63h-1058v63q86 -1 118 9t42 41q9 31 10 110v1073q0 88 -12 119t-58 33q-43 -2 -68 -111l-323 -1368h-82l-340 1340
q-17 69 -31 97t-36 37t-68 9v64h379v-64z" />
    <glyph glyph-name="Nineroman" unicode="&#x2168;" 
d="M666 1452q-58 0 -88 -9t-39 -41q-10 -32 -11 -108v-1071q0 -130 41 -149q23 -10 64 -10t69 21q28 22 78 93l404 574l-318 546q-44 74 -69 105t-49 40t-82 9zM367 1294q-1 78 -11 109t-44 40t-122 9v64h914v-64q-55 0 -80 -8t-25 -36t56 -122l235 -391h6l289 410
q55 79 55 105t-25 34q-26 8 -85 8v64h354v-64q-47 0 -72 -18t-79 -95l-387 -544l340 -566q50 -79 78 -113t56 -43t78 -10v-63h-446v63q55 1 80 9q24 8 24 36t-57 125l-260 416h-6l-309 -444q-52 -72 -52 -99q0 -26 27 -34t86 -9v-63h-795v63q88 1 122 10t44 40t11 110v1071z
" />
    <glyph glyph-name="Tenroman" unicode="&#x2169;" 
d="M532 100q0 -37 140 -37v-63h-422v63q57 -1 89 19t93 92l508 584l-387 530q-61 84 -92 115t-63 40t-97 9v64h510v-64q-69 0 -99 -8t-30 -36t72 -122l301 -409h4l375 426q68 77 68 105t-33 36q-32 8 -105 8v64h414v-64q-53 0 -84 -18t-95 -93l-483 -548l424 -560
q63 -81 99 -115t69 -44t88 -11v-63h-512v63q68 1 98 9t29 38q0 30 -74 126l-338 434h-6l-397 -467q-64 -76 -64 -103z" />
    <glyph glyph-name="Elevenroman" unicode="&#x216a;" 
d="M1534 223v1071q0 76 -9 107t-42 41t-99 10t-90 -19q-25 -19 -75 -94l-369 -544l326 -568q77 -131 126 -152q26 -11 87 -11t94 10t42 41t9 108zM944 63q53 1 77 9q23 8 23 38t-55 123l-244 414h-6l-293 -442q-49 -74 -49 -103q0 -39 109 -39v-63h-354v63q35 1 55 9
q39 17 98 108l385 572l-303 548q-45 76 -69 105t-50 38t-80 9v64h433v-64q-53 0 -76 -8t-23 -36t53 -122l222 -389h6l272 408q53 75 53 103t-24 36q-25 8 -82 8v64h854v-64q-92 0 -127 -9t-44 -39t-9 -110v-1071q0 -81 9 -111t44 -39t127 -10v-63h-932v63z" />
    <glyph glyph-name="Twelveroman" unicode="&#x216b;" 
d="M1651 223v1071q0 72 -7 103t-35 42t-91 11q-64 0 -92 -11t-34 -42t-8 -103v-1071q1 -71 9 -103q9 -32 35 -44t90 -12t91 12q28 12 35 43t7 104zM1134 63q44 -1 65 13q22 14 30 47t8 100v1071q0 94 -19 126q-18 32 -66 32t-71 -22t-63 -95l-318 -540l281 -570
q51 -98 80 -130t73 -32zM764 63q50 1 70 9t20 34t-49 127l-203 404h-6l-248 -432q-41 -72 -41 -99q0 -26 23 -34t71 -9v-63h-321v63q33 1 51 9t37 31q18 24 51 79l330 566l-264 557q-39 75 -59 103t-44 36q-23 8 -71 8v64h393v-64q-46 0 -66 -8t-20 -35t45 -121l186 -383h4
l234 400q45 79 45 105t-22 34t-70 8v64h1126v-64q-84 0 -116 -9t-42 -40t-10 -109v-1071q0 -81 10 -111t42 -39t116 -10v-63h-1202v63z" />
    <glyph glyph-name="oneroman" unicode="&#x2170;" 
d="M1282 0h-463v55q78 1 109 11t40 38t9 103v627q0 74 -8 100t-37 32q-29 7 -113 7v53q153 17 293 96l16 -12v-905q1 -72 10 -101q9 -28 39 -38t105 -11v-55zM1139 1366q0 -57 -28 -91t-70 -34q-43 0 -71 35t-28 92t29 92t71 35t70 -36q27 -36 27 -93z" />
    <glyph glyph-name="tworoman" unicode="&#x2171;" 
d="M1450 205q0 -72 9 -101q9 -28 39 -38t104 -11v-55h-463v55q81 1 111 11t39 38t9 103v624q0 74 -8 100t-38 33t-113 7v55q154 17 293 96l18 -12v-905zM995 0h-463v55q78 1 109 11t40 38t9 103v624q0 74 -8 100t-37 33t-113 7v55q90 10 152 32t141 64l19 -12v-905
q0 -72 8 -101q8 -28 38 -38t105 -11v-55zM1362 1241q-43 0 -71 35t-27 92q0 57 27 92q28 35 72 35t71 -36q26 -36 26 -93t-28 -91t-70 -34zM854 1366q0 -57 -28 -91t-70 -34t-71 35q-28 35 -28 92t28 92q27 35 71 35t71 -36t27 -93z" />
    <glyph glyph-name="threeroman" unicode="&#x2172;" 
d="M393 55q76 1 107 11t39 38t8 103v627q0 74 -7 100t-36 31q-29 6 -111 6v55q146 17 285 96l18 -12v-905q0 -72 8 -101q8 -28 38 -38q28 -10 100 -10t102 10t37 38q8 28 8 103v627q0 74 -7 100t-36 31q-29 6 -110 6v55q86 10 148 32t136 64l19 -12v-905q0 -72 8 -101
q8 -28 37 -38q28 -10 100 -10t102 10t37 38q8 28 9 103v627q0 74 -8 100t-36 31q-28 6 -110 6v55q86 10 148 32t137 64l18 -12v-905q0 -72 8 -101q8 -28 38 -38t102 -11v-55h-1336v55zM1497 1495q43 0 70 -36t27 -93t-28 -91t-72 -34t-70 36t-26 92t28 91t71 35zM956 1369
q0 56 28 91t71 35t69 -36t27 -93q0 -57 -28 -91q-27 -34 -71 -34t-70 36t-26 92zM514 1369q0 56 28 91t70 35t70 -36q27 -36 27 -93t-28 -91q-27 -34 -71 -34t-70 36t-26 92z" />
    <glyph glyph-name="fourroman" unicode="&#x2173;" 
d="M739 971v55h381v-55q-57 0 -80 -9q-22 -10 -22 -32t20 -74l262 -668h7l276 703q10 31 10 48t-19 25t-73 7v55h281v-55q-48 -1 -68 -17t-47 -84l-369 -895h-57l-356 852q-29 70 -46 99t-37 37t-63 8zM756 53v-53h-449v53q76 0 106 10t39 40t9 104v627q0 74 -8 100t-36 31
q-28 6 -110 6v55q85 10 147 32t138 64l18 -12v-905q0 -74 8 -103t37 -39t101 -10zM621 1366q0 -57 -28 -91t-70 -34q-41 0 -69 35t-28 92t28 92t70 35t70 -36q27 -36 27 -93z" />
    <glyph glyph-name="fiveroman" unicode="&#x2174;" 
d="M442 971v55h410v-55q-61 0 -87 -9t-26 -33t23 -73l307 -688h4l320 723q14 33 14 49q0 31 -102 31v55h299v-55q-51 -1 -73 -17t-54 -84l-414 -895h-55l-404 854q-33 68 -52 96t-42 37t-68 9z" />
    <glyph glyph-name="sixroman" unicode="&#x2175;" 
d="M1599 205q1 -72 9 -101q8 -28 37 -38t100 -11v-55h-449v55q76 1 106 11t39 38t9 103v627q0 72 -7 98t-33 32q-26 7 -84 7q-58 1 -78 -17t-48 -84l-375 -895h-57l-362 852q-30 70 -48 99t-38 37t-62 8v55h387v-55q-59 0 -82 -9q-23 -10 -23 -32t21 -74l268 -670h5l282 705
q12 29 12 47t-21 26q-22 7 -75 7v55h277q133 17 272 96l18 -12v-905zM1415 1369q0 56 28 91q29 35 71 35t69 -36t27 -93t-28 -91t-70 -34t-70 36q-27 36 -27 92z" />
    <glyph glyph-name="sevenroman" unicode="&#x2176;" 
d="M1100 55q76 1 106 11t38 38q9 28 9 103v627q0 68 -8 94t-31 35q-22 8 -70 8q-48 -1 -68 -19t-48 -82l-362 -895h-60l-352 852q-50 122 -84 136q-20 8 -59 8v55h378v-55q-57 0 -79 -8q-22 -7 -23 -29q0 -22 21 -78l260 -666h4l274 701q10 31 10 47q0 33 -92 33v55h236
q84 10 139 30t135 64l19 -10v-905q0 -70 8 -100q8 -29 34 -39t85 -10t87 10t37 40t9 101v627q0 74 -8 100t-36 31q-28 6 -110 6v55q84 10 139 30t136 64l18 -10v-905q0 -72 8 -101q8 -28 37 -38t100 -11v-55h-837v55zM1620 1369q0 52 26 84t66 32t64 -34t24 -85t-26 -83
t-66 -32t-64 33t-24 85zM1313 1485q41 0 65 -33t25 -85q0 -52 -27 -84q-26 -32 -66 -32t-65 33t-25 85t26 84t67 32z" />
    <glyph glyph-name="eightroman" unicode="&#x2177;" 
d="M1169 203q1 -90 21 -119t70 -29q50 -1 69 11q37 21 37 139v629q0 74 -6 100t-30 31q-24 6 -93 6v55q72 10 119 30t123 64l18 -10v-907q-1 -90 19 -119t69 -29q49 -1 69 11q36 20 38 139v629q0 74 -6 100t-30 31q-24 6 -91 6v55q73 10 117 30t122 64l19 -10v-905
q0 -72 8 -101q8 -28 38 -38t101 -11v-55h-1085v55q75 1 106 11t40 38t9 103v629q0 63 -6 90t-24 36t-56 9q-38 1 -55 -19q-18 -20 -39 -82l-297 -895h-57l-289 852q-43 123 -71 136q-18 8 -50 8v55h342v-55q-51 0 -69 -8q-19 -9 -19 -31t17 -76l198 -635h4l211 670
q8 25 8 44q0 36 -81 36v55h200q118 19 246 94l16 -10v-907zM1748 1481q40 0 62 -33t21 -84q0 -51 -24 -82q-23 -31 -63 -31t-62 32t-22 84t24 83t64 31zM1333 1368q0 51 24 82q23 31 63 31t63 -32t23 -84t-26 -83q-24 -31 -62 -31t-62 33q-23 33 -23 84zM1095 1481
q41 0 63 -32t22 -84t-25 -83t-63 -31t-62 33q-22 33 -22 84t23 82q24 31 64 31z" />
    <glyph glyph-name="nineroman" unicode="&#x2178;" 
d="M1384 55q86 0 86 31q0 25 -32 72l-193 288h-4l-231 -313q-23 -29 -23 -45q0 -33 92 -33v-55h-751v55q76 1 106 11t39 38q8 28 8 103v627q0 74 -7 100t-36 31q-29 6 -110 6v55q86 10 148 32t136 64l19 -12v-905q0 -70 9 -100q9 -29 35 -39t78 -10t85 20t73 71l285 371
l-240 346q-61 89 -99 101q-19 6 -54 6v55h389v-55q-90 0 -90 -33q0 -23 33 -70l165 -245h7l202 258q31 41 31 59q0 31 -84 31v55h301v-55q-41 1 -67 -17t-70 -71l-268 -332l266 -387q51 -72 82 -90t76 -19v-55h-392v55zM547 1495q43 0 69 -36t27 -93q0 -57 -28 -91
q-27 -34 -71 -34t-70 36t-26 92t28 91t71 35z" />
    <glyph glyph-name="tenroman" unicode="&#x2179;" 
d="M705 90q0 -35 102 -35v-55h-342v55q45 -1 79 19t81 73l321 371l-270 344q-70 92 -101 100q-31 9 -67 9v55h418v-55q-100 0 -101 -31q0 -20 41 -72l191 -252h8l233 267q35 35 35 55q0 33 -94 33v55h330v-55q-45 1 -73 -17t-81 -73l-305 -332l303 -385q76 -94 116 -104
q22 -5 54 -5v-55h-418v55q94 0 95 33q0 25 -37 70l-226 297h-4l-264 -318q-24 -31 -24 -47z" />
    <glyph glyph-name="arrowleft" unicode="&#x2190;" 
d="M1952 801v-68h-1602l357 -260l-17 -29l-588 322l586 321l19 -26l-357 -260h1602z" />
    <glyph glyph-name="arrowup" unicode="&#x2191;" 
d="M1061 -139h-68v1601l-260 -356l-28 16l321 588l322 -586l-27 -18l-260 356v-1601z" />
    <glyph glyph-name="arrowright" unicode="&#x2192;" 
d="M102 733v68h1602l-356 260l18 26l586 -321l-588 -322l-16 29l356 260h-1602z" />
    <glyph glyph-name="arrowdown" unicode="&#x2193;" 
d="M993 1690h68v-1602l260 356l29 -16l-322 -588l-321 586l26 18l260 -356v1602z" />
    <glyph glyph-name="arrowupleft" unicode="&#x2196;" 
d="M436 999l-250 615l613 -242l-15 -39l-372 99l1431 -1430l-37 -45l-1439 1436l102 -375z" />
    <glyph glyph-name="arrowupright" unicode="&#x2197;" 
d="M1679 1395l-1439 -1436l-37 45l1431 1430l-372 -99l-15 39l613 242l-250 -615l-33 19z" />
    <glyph glyph-name="arrowdownright" unicode="&#x2198;" 
d="M1645 119l-1436 1440l45 36l1429 -1431l-98 373l39 14l242 -612l-615 249l19 33z" />
    <glyph glyph-name="arrowdownleft" unicode="&#x2199;" 
d="M801 186l-615 -249l242 612l39 -14l-98 -373l1429 1431l45 -37l-1435 -1439l374 102z" />
    <glyph glyph-name="element" unicode="&#x2208;" 
d="M537 820q0 138 52 270t147 227q96 96 212 129t214 42t261 9v-55q-301 0 -447 -64t-233 -204q-86 -140 -92 -334h762v-68h-760q7 -176 99 -309t237 -207q86 -43 213 -67t232 -23v-55q-252 0 -482 79q-117 42 -212 138t-149 225t-54 267z" />
    <glyph glyph-name="product" unicode="&#x220f;" 
d="M1374 -33q33 0 57 24t23 60v1540h-856v-1538q0 -37 20 -61t56 -25h182v-51h-661v51h161q102 0 103 86v1432q0 106 -101 106h-182v51h1708v-51h-203q-43 1 -65 -25t-23 -69v-1446q0 -39 32 -61t81 -23h184v-51h-673v51h157z" />
    <glyph glyph-name="summation" unicode="&#x2211;" 
d="M1526 1579h-1088l516 -733l-624 -801h1204q82 0 140 45t73 139l37 248h49l-45 -571h-1622l668 858l-609 866h1528l66 -487h-47l-58 252q-43 184 -188 184z" />
    <glyph glyph-name="divisionslash" unicode="&#x2215;" 
d="M1432 1624h69l-893 -1720h-65z" />
    <glyph glyph-name="radical" unicode="&#x221a;" 
d="M129 772l-12 35l393 125l360 -807l1178 1626v-90l-1231 -1698l-401 899z" />
    <glyph glyph-name="proportional" unicode="&#x221d;" 
d="M637 1112q-160 0 -265 -85q-106 -85 -106 -243t114 -238t248 -79q134 0 212 30q78 29 136 101t107 199q-78 173 -182 244t-264 71zM203 782q0 186 120 288q120 104 305 104t300 -72t188 -221q68 152 186 212t330 60h262v-61h-262q-202 0 -312 -65t-169 -222
q77 -178 185 -252t300 -74h271v-61h-271q-204 0 -324 76t-194 225q-61 -152 -171 -233q-110 -80 -300 -80t-317 95t-127 281z" />
    <glyph glyph-name="infinity" unicode="&#x221e;" 
d="M566 459q126 0 227 68q100 69 206 245q-117 166 -221 236t-225 69q-168 0 -266 -84t-99 -235q0 -78 43 -147t126 -111t209 -41zM1507 1102q-95 0 -161 -27t-128 -97t-145 -204q121 -170 215 -240t208 -71q114 0 198 42q86 41 134 109t48 142q0 162 -99 254t-270 92z
M1038 715q-198 -318 -473 -318t-387 186q-51 85 -51 183q0 170 116 272t310 103q135 0 250 -73t231 -239q84 127 155 200t145 104t184 31t208 -50q98 -49 154 -139q56 -89 55 -197q0 -108 -55 -193q-56 -85 -154 -134t-225 -49t-235 69q-108 70 -228 244z" />
    <glyph glyph-name="orthogonal" unicode="&#x221f;" 
d="M414 1499v-1339h1335v-58h-1393v1397h58z" />
    <glyph glyph-name="angle" unicode="&#x2220;" 
d="M1610 53v-51h-1284l1237 1579l41 -33l-1172 -1495h1178z" />
    <glyph glyph-name="divides" unicode="&#x2223;" 
d="M1053 8h-60v1540h60v-1540z" />
    <glyph glyph-name="parallel" unicode="&#x2225;" 
d="M1362 1538l47 -12l-391 -1532l-47 14zM1030 1556l49 -14l-399 -1546l-49 12z" />
    <glyph glyph-name="logicaland" unicode="&#x2227;" 
d="M451 121l-80 41l653 1425l557 -1433l-82 -33l-481 1227z" />
    <glyph glyph-name="logicalor" unicode="&#x2228;" 
d="M518 1432l502 -1268l543 1272l82 -39l-631 -1473l-578 1473z" />
    <glyph glyph-name="intersection" unicode="&#x2229;" 
d="M1026 1405q-217 0 -352 -116t-135 -378v-856h-82v858q0 322 160 449q161 127 401 127q578 0 577 -584v-850h-82v848q0 268 -135 385t-352 117z" />
    <glyph glyph-name="union" unicode="&#x222a;" 
d="M1016 53q-240 0 -401 127t-160 449v868h82v-866q0 -262 135 -378t352 -116t352 117t135 385v858h82v-860q1 -584 -577 -584z" />
    <glyph glyph-name="integral" unicode="&#x222b;" 
d="M1490 1442q-30 0 -52 30t-12 54q10 26 10 39q0 33 -37 43q-16 4 -25 4q-55 0 -111 -52t-77 -126q-35 -135 -81 -471t-74 -458t-93 -343q-47 -156 -126 -232t-159 -76t-138 41q-58 40 -58 109q0 41 25 70q26 29 73 28q88 0 88 -92q0 -32 -31 -56q-30 -24 -30 -33t22 -19
q29 -8 39 -8q72 0 129 86t84 229q62 346 100 605t64 369q27 110 82 234q55 123 144 189t168 66t133 -39q55 -38 55 -93t-58 -86q-24 -12 -54 -12z" />
    <glyph glyph-name="contourintegral" unicode="&#x222e;" 
d="M1399 775q0 124 -71 217t-183 128l-10 -71q-6 -31 -36 -249t-77 -403q102 0 188 44q189 97 189 334zM649 752q0 -116 74 -209q74 -94 186 -129q37 209 67 421t50 304q-100 4 -186 -46q-86 -49 -138 -137t-53 -204zM1504 1430q-30 0 -52 30t-12 54q10 26 10 38
q0 33 -37 43q-16 4 -24 4q-55 0 -111 -52t-80 -139q-23 -87 -47 -245q125 -41 209 -147t84 -238t-62 -228q-62 -94 -163 -148q-100 -54 -209 -50l-35 -119q-4 -20 -23 -83q-47 -156 -126 -232t-159 -76t-138 40t-58 110q0 42 26 70t72 28q52 0 70 -30t18 -62q-1 -32 -31 -56
t-30 -33t22 -20q29 -8 39 -8q72 0 129 86t84 230l31 176q-125 41 -211 149t-86 232q0 123 60 219t160 153q99 57 212 58q20 82 78 213t146 197q90 66 169 65q79 0 133 -38t54 -93t-57 -86q-25 -12 -55 -12z" />
    <glyph glyph-name="therefore" unicode="&#x2234;" 
d="M1423 253q0 56 40 96q39 40 97 40t98 -40t40 -97t-40 -97t-98 -40t-98 41q-39 41 -39 97zM350 253q0 56 40 96t97 40t97 -40t41 -97q0 -57 -40 -97q-41 -40 -99 -40t-97 41t-39 97zM887 1254q0 56 40 96t97 41q57 0 97 -40q40 -39 40 -97t-40 -98t-98 -40t-97 41t-39 97z
" />
    <glyph glyph-name="because" unicode="&#x2235;" 
d="M1161 253q0 -56 -40 -96t-97 -40t-97 40t-40 97t40 97t98 40t97 -41t39 -97zM1423 1256q0 56 40 96q39 40 97 41q58 0 98 -40q40 -39 40 -97t-40 -98t-98 -40t-98 41q-39 41 -39 97zM350 1256q0 56 40 96t97 41q57 0 97 -40q40 -39 41 -97q0 -58 -40 -98q-41 -40 -99 -40
t-97 41t-39 97z" />
    <glyph glyph-name="ratio" unicode="&#x2236;" 
d="M887 302q0 56 40 97t97 41t97 -41t40 -98t-40 -97t-98 -40t-97 41t-39 97zM887 1255q0 57 40 97t97 41q57 0 97 -40q40 -39 40 -97t-40 -99t-98 -41t-97 41t-39 98z" />
    <glyph glyph-name="proportion" unicode="&#x2237;" 
d="M1532 184q-43 0 -73 30t-29 73q0 43 30 73t72 29q43 0 73 -30q30 -31 30 -73t-30 -72t-73 -30zM520 184q-43 0 -73 30t-29 73q0 43 30 73t72 29q43 0 73 -30q30 -31 30 -73t-30 -72t-73 -30zM1532 1389q43 0 73 -30t30 -73t-30 -73q-30 -29 -73 -29t-73 30t-29 72
q0 43 29 73q30 30 73 30zM520 1389q43 0 73 -30t30 -73t-30 -73q-30 -29 -73 -29t-73 30t-29 72q0 43 29 73q30 30 73 30z" />
    <glyph glyph-name="reversedtilde" unicode="&#x223d;" 
d="M190 834q0 -68 30 -144t87 -130q84 -79 277 -83q133 0 229 68t162 223q82 197 213 297t291 100q218 0 320 -146q73 -103 73 -235q0 -78 -27 -151q-74 -209 -387 -197v53q264 -4 326 148q24 59 24 151t-53 183q-53 92 -149 116q-59 16 -131 17q-285 0 -439 -354
q-80 -180 -184 -255t-248 -75q-241 0 -349 101q-65 59 -97 143t-33 168q0 84 35 149q61 111 159 155t269 44v-62q-156 0 -241 -38t-130 -124q-27 -54 -27 -122z" />
    <glyph glyph-name="approxequal" unicode="&#x2248;" 
d="M1325 432q-170 0 -364 135q-35 25 -140 73t-180 48q-74 0 -158 -55t-213 -193l-32 29q147 164 244 227t200 64q164 0 350 -122q185 -122 340 -122q111 0 241 100q52 41 113 119l39 -30q-71 -93 -119 -137t-132 -90t-189 -46zM1325 766q-170 0 -364 135q-73 52 -220 103
q-63 18 -98 18q-76 0 -160 -55t-213 -193l-32 29q147 164 244 227t200 64q163 0 373 -138q162 -106 317 -106q114 0 241 100q52 41 113 119l39 -31q-71 -92 -119 -136t-132 -90t-189 -46z" />
    <glyph glyph-name="allequal" unicode="&#x224c;" 
d="M1858 336v-62h-1661v62h1661zM1858 598v-61h-1661v61h1661zM575 1378q-195 0 -265 -61q-38 -33 -70 -95t-31 -140q0 -80 61 -159q60 -79 156 -108t156 -29q248 0 415 332q158 311 461 312q82 0 154 -15q124 -20 192 -108t68 -215q0 -57 -21 -141t-104 -141
q-84 -56 -213 -56q-35 0 -53 2v53q256 0 313 160q18 49 18 127t-52 156t-141 98t-157 20q-270 0 -403 -270q-178 -369 -467 -369q-80 0 -194 35t-182 130q-69 96 -69 194t40 168t88 109q48 40 118 56t182 17v-62z" />
    <glyph glyph-name="approxequalorimage" unicode="&#x2252;" 
d="M1534 274q-43 0 -73 30t-29 73q0 43 29 73q30 30 73 30t73 -30t30 -73t-30 -73t-73 -30zM1729 678v-82h-1407v82h1407zM1729 961v-82h-1407v82h1407zM526 1079q-42 0 -72 30t-30 73q0 42 30 72t72 30t73 -30q30 -30 30 -72t-30 -73q-30 -30 -73 -30z" />
    <glyph glyph-name="notequal" unicode="&#x2260;" 
d="M319 565v76h562l184 297h-743v76h790l180 293l62 -31l-162 -262h537v-76h-584l-184 -297h765v-76h-813l-200 -325l-62 30l183 295h-515z" />
    <glyph glyph-name="equivalence" unicode="&#x2261;" 
d="M1729 502v-76h-1407v76h1407zM1729 797v-76h-1407v76h1407zM1729 1100v-76h-1407v76h1407z" />
    <glyph glyph-name="lessequal" unicode="&#x2264;" 
d="M262 670l1389 -430l-17 -62l-1388 430zM1657 403l-1393 447l1399 516l18 -59l-1241 -453l1237 -391z" />
    <glyph glyph-name="greaterequal" unicode="&#x2265;" 
d="M1763 666l17 -62l-1377 -446l-16 61zM1606 848l-1246 448l19 60l1411 -510l-1409 -451l-21 60z" />
    <glyph glyph-name="lessoverequal" unicode="&#x2266;" 
d="M1694 285v-58h-1334v58h1334zM1694 612v-57h-1334v57h1334zM1694 758l-1327 327l1327 373v-59l-1102 -309l1102 -273v-59z" />
    <glyph glyph-name="greateroverequal" unicode="&#x2267;" 
d="M1694 285v-58h-1334v58h1334zM1694 612v-57h-1334v57h1334zM1462 1090l-1102 309v59l1328 -373l-1328 -327v59z" />
    <glyph glyph-name="notless" unicode="&#x226e;" 
d="M995 512v492l-600 -236zM1057 127h-62v317l-764 328l764 299v340h62v-315l610 237l19 -59l-629 -246v-543l631 -268l-21 -61l-610 262v-291z" />
    <glyph glyph-name="notgreater" unicode="&#x226f;" 
d="M1649 762l-596 258v-504zM991 115v307l-588 -244l-26 62l614 252v555l-614 268l24 57l590 -254v271h62v-297l766 -328l-766 -318v-331h-62z" />
    <glyph glyph-name="circleplus" unicode="&#x2295;" 
d="M1057 745v-325q131 14 221 104t104 221h-325zM991 745h-325q14 -131 103 -221t222 -104v325zM1057 811h325q-14 131 -103 221t-222 105v-326zM991 811v326q-131 -15 -221 -105t-104 -221h325zM598 778q0 117 57 214q57 96 155 154t214 58q117 0 214 -57q96 -57 154 -155
t58 -214q0 -117 -57 -214t-155 -154q-98 -58 -214 -58q-117 0 -214 58t-155 154q-57 97 -57 214z" />
    <glyph glyph-name="circleot" unicode="&#x2299;" 
d="M1031 694q-35 0 -59 25t-24 59t25 57t59 23t57 -24q24 -24 24 -56q0 -34 -24 -59t-58 -25zM1016 1493q-192 0 -356 -93q-163 -93 -257 -257t-94 -366q0 -203 95 -367q96 -164 260 -257t360 -93t360 88q166 89 266 252q99 163 99 376t-103 376q-102 163 -270 252t-360 89z
M1024 6q-205 0 -381 102t-281 278q-104 177 -104 390t104 390q104 178 282 280t377 102q200 0 378 -97t290 -274t112 -401t-109 -401t-286 -273t-382 -96z" />
    <glyph glyph-name="uptack" unicode="&#x22a5;" 
d="M999 59v1514h52v-1514h745v-51h-1448v51h651z" />
    <glyph glyph-name="righttriangle" unicode="&#x22bf;" 
d="M1735 66v1337l-1336 -1337h1336zM1792 8h-1528l1528 1530v-1530z" />
    <glyph glyph-name="arc" unicode="&#x2312;" 
d="M348 455h-51q0 264 152 458q119 152 251 215q132 64 320 64t319 -64t256 -215q152 -184 152 -458h-49q0 112 -43 237t-109 199q-112 129 -238 189t-288 60t-288 -60t-234 -189q-74 -88 -112 -204t-38 -232z" />
    <glyph glyph-name="uni2460" unicode="&#x2460;" 
d="M1110 414q0 -61 10 -86t48 -32t137 -7v-58h-531v58q102 0 141 7t50 31q10 24 10 87v686q0 51 -8 71q-8 21 -35 21t-129 -39l-21 55q179 66 310 146l18 -11v-929zM133 777q0 -241 120 -445t325 -325q204 -120 446 -120t446 120t325 325q120 204 120 446t-120 447t-325 325
t-447 119q-242 0 -446 -121q-204 -122 -324 -326t-120 -445zM1972 777q0 -257 -127 -475t-345 -345t-476 -127t-476 127t-345 345t-127 476t127 476t345 345t477 127t476 -128t344 -346t127 -475z" />
    <glyph glyph-name="uni2461" unicode="&#x2461;" 
d="M1249 1104q-1 102 -65 150t-164 49q-172 0 -217 -175q-20 -72 -82 -71q-23 0 -38 17t-15 50t33 90q34 56 115 102t210 46q186 0 278 -82t93 -199q0 -172 -195 -293q-152 -94 -236 -158t-137 -134t-84 -164h449q55 0 82 9t42 38t36 96l55 -6l-51 -238h-701l-20 25
q39 160 111 270t143 171q72 59 168 121t143 124t47 162zM133 777q0 -241 120 -445t325 -325q204 -120 446 -120t446 120t325 325q120 204 120 446t-120 447t-325 325t-447 119q-242 0 -446 -121q-204 -122 -324 -326t-120 -445zM1972 777q0 -257 -127 -475t-345 -345
t-476 -127t-476 127t-345 345t-127 476t127 476t345 345t477 127t476 -128t344 -346t127 -475z" />
    <glyph glyph-name="uni2462" unicode="&#x2462;" 
d="M1227 1100q0 104 -65 152q-66 48 -146 48t-138 -40t-80 -98q-22 -56 -38 -73t-51 -18q-51 0 -52 68q0 45 41 97t121 88t191 36q188 0 273 -78t85 -174t-66 -173t-225 -95v-4q133 -6 237 -80t103 -217q0 -80 -42 -156t-135 -126t-222 -50t-214 37t-129 91q-44 53 -44 111
t55 58q39 0 66 -45q59 -99 117 -145q57 -46 151 -46t173 62t79 202q0 170 -123 220t-256 51v57q100 0 217 47t117 193zM133 777q0 -241 120 -445t325 -325q204 -120 446 -120t446 120t325 325q120 204 120 446t-120 447t-325 325t-447 119q-242 0 -446 -121
q-204 -122 -324 -326t-120 -445zM1972 777q0 -257 -127 -475t-345 -345t-476 -127t-476 127t-345 345t-127 476t127 476t345 345t477 127t476 -128t344 -346t127 -475z" />
    <glyph glyph-name="uni2463" unicode="&#x2463;" 
d="M1083 1042q0 41 4 156h-6q-4 -6 -43 -63q-18 -33 -53 -84l-305 -445h403v436zM1221 1360v-754h147l-12 -67h-135v-125q0 -59 7 -84t33 -33t89 -8v-58h-418v58q76 0 106 8t37 32q8 24 8 85v125h-501v49l536 772h103zM133 777q0 -241 120 -445t325 -325q204 -120 446 -120
t446 120t325 325q120 204 120 446t-120 447t-325 325t-447 119q-242 0 -446 -121q-204 -122 -324 -326t-120 -445zM1972 777q0 -257 -127 -475t-345 -345t-476 -127t-476 127t-345 345t-127 476t127 476t345 345t477 127t476 -128t344 -346t127 -475z" />
    <glyph glyph-name="uni2464" unicode="&#x2464;" 
d="M1397 594q0 -86 -37 -176t-126 -150t-210 -61q-121 0 -201 36t-126 88t-46 94q0 77 62 79q45 0 65 -53q70 -180 228 -181q88 0 166 68t79 258q0 299 -250 299q-150 0 -243 -121l-53 17l81 550h443q43 1 55 6t23 21h51l-37 -129h-463l-59 -346l4 -2q90 65 231 65t223 -59
t111 -138t29 -165zM133 777q0 -241 120 -445t325 -325q204 -120 446 -120t446 120t325 325q120 204 120 446t-120 447t-325 325t-447 119q-242 0 -446 -121q-204 -122 -324 -326t-120 -445zM1972 777q0 -257 -127 -475t-345 -345t-476 -127t-476 127t-345 345t-127 476
t127 476t345 345t477 127t476 -128t344 -346t127 -475z" />
    <glyph glyph-name="uni2465" unicode="&#x2465;" 
d="M1032 868q-110 0 -182 -70t-72 -167q0 -206 114 -312q56 -51 148 -51t164 79t72 235q0 100 -52 193t-192 93zM1364 1155q0 -63 -51 -63q-31 0 -47 17t-39 62q-19 57 -65 93t-120 36q-147 0 -211 -157q-63 -158 -63 -363h4q45 72 121 114t168 42q158 0 259 -96t101 -250
q0 -102 -43 -190t-132 -140q-89 -53 -218 -53q-180 0 -292 135t-111 422q0 208 88 402t336 194q109 0 181 -34t102 -81q32 -47 32 -90zM133 777q0 -241 120 -445t325 -325q204 -120 446 -120t446 120t325 325q120 204 120 446t-120 447t-325 325t-447 119q-242 0 -446 -121
q-204 -122 -324 -326t-120 -445zM1972 777q0 -257 -127 -475t-345 -345t-476 -127t-476 127t-345 345t-127 476t127 476t345 345t477 127t476 -128t344 -346t127 -475z" />
    <glyph glyph-name="uni2466" unicode="&#x2466;" 
d="M870 1239q-59 0 -87 -8t-43 -36t-35 -93h-62l53 239h729l17 -28q-180 -215 -293 -494t-123 -606h-160q10 305 141 573q130 268 287 453h-424zM133 777q0 -241 120 -445t325 -325q204 -120 446 -120t446 120t325 325q120 204 120 446t-120 447t-325 325t-447 119
q-242 0 -446 -121q-204 -122 -324 -326t-120 -445zM1972 777q0 -257 -127 -475t-345 -345t-476 -127t-476 127t-345 345t-127 476t127 476t345 345t477 127t476 -128t344 -346t127 -475z" />
    <glyph glyph-name="uni2467" unicode="&#x2467;" 
d="M967 770q-213 -78 -213 -270q0 -94 72 -162t190 -68t189 60t71 152q0 151 -164 230q-61 30 -145 58zM788 1117q0 -87 70 -143t197 -100q94 39 146 85q52 45 52 129t-53 148q-52 64 -164 64t-180 -48t-68 -135zM657 1098q0 64 37 124t118 99t208 39q182 0 271 -74t89 -188
q0 -162 -235 -256v-2q162 -68 220 -156t58 -160q-1 -154 -115 -236t-286 -81q-172 0 -286 81t-113 228q0 84 69 163q70 79 193 126v4q-228 105 -228 289zM133 777q0 -241 120 -445t325 -325q204 -120 446 -120t446 120t325 325q120 204 120 446t-120 447t-325 325t-447 119
q-242 0 -446 -121q-204 -122 -324 -326t-120 -445zM1972 777q0 -257 -127 -475t-345 -345t-476 -127t-476 127t-345 345t-127 476t127 476t345 345t477 127t476 -128t344 -346t127 -475z" />
    <glyph glyph-name="uni2468" unicode="&#x2468;" 
d="M1272 943q0 95 -30 175t-87 131t-148 51t-163 -80t-72 -231q1 -60 19 -119q51 -168 224 -168q109 0 183 73t74 168zM713 481q29 0 46 -16q17 -17 42 -71t65 -89t131 -35q154 0 220 152t65 366l-6 3q-94 -152 -289 -152q-129 0 -210 53t-117 132t-36 169t42 175
q41 84 129 138t223 54q176 0 291 -133t115 -409t-110 -444q-108 -168 -319 -167q-98 0 -174 30q-76 31 -118 79q-41 48 -41 106t51 59zM133 777q0 -241 120 -445t325 -325q204 -120 446 -120t446 120t325 325q120 204 120 446t-120 447t-325 325t-447 119q-242 0 -446 -121
q-204 -122 -324 -326t-120 -445zM1972 777q0 -257 -127 -475t-345 -345t-476 -127t-476 127t-345 345t-127 476t127 476t345 345t477 127t476 -128t344 -346t127 -475z" />
    <glyph glyph-name="uni2469" unicode="&#x2469;" 
d="M1130 788q0 -347 70 -452q43 -61 115 -62q113 0 151 127t37 433q0 306 -76 405q-39 55 -109 55t-114 -55q-74 -104 -74 -451zM709 418q0 -59 8 -83t38 -31t107 -7v-59h-440v59q82 0 113 7t39 30t8 84v678q0 51 -8 70q-8 20 -32 20t-104 -37l-20 55q141 56 272 144l19 -13
v-917zM993 793q0 245 68 403t252 158t256 -153t71 -408q0 -356 -114 -484q-82 -94 -208 -94t-210 94q-115 127 -115 484zM133 777q0 -241 120 -445t325 -325q204 -120 446 -120t446 120t325 325q120 204 120 446t-120 447t-325 325t-447 119q-242 0 -446 -121
q-204 -122 -324 -326t-120 -445zM1972 777q0 -257 -127 -475t-345 -345t-476 -127t-476 127t-345 345t-127 476t127 476t345 345t477 127t476 -128t344 -346t127 -475z" />
    <glyph glyph-name="uni2474" unicode="&#x2474;" 
d="M1104 287q0 -80 10 -110t47 -39t131 -9v-61h-536v61q98 0 136 9t49 39t11 110v911q0 61 -10 88t-41 27t-133 -41l-16 61q186 70 329 170l23 -14v-1202zM1972 781q0 -333 -78 -561t-225 -400l-47 33q80 121 130 241q106 253 106 685t-106 684q-50 120 -130 241l47 33
q143 -169 223 -396t80 -560zM76 775q0 333 78 561t225 401l47 -33q-80 -121 -130 -241q-106 -254 -106 -685t106 -685q50 -120 130 -240l-47 -33q-143 168 -223 395t-80 560z" />
    <glyph glyph-name="uni2475" unicode="&#x2475;" 
d="M1036 1442q-145 0 -212 -60t-99 -165q-13 -43 -31 -59t-51 -15q-57 1 -57 73t51 140t150 114t257 46t260 -58t138 -140q37 -81 37 -161q0 -81 -36 -147t-85 -115t-127 -113l-94 -65q-190 -135 -246 -189q-152 -135 -217 -340h567q69 0 99 12t50 49q19 36 44 124l63 -11
l-61 -294h-863l-24 30q88 361 296 546q89 79 221 168t192 167q60 77 60 191t-68 193q-69 79 -214 79zM1972 781q0 -333 -78 -561t-225 -400l-47 33q80 121 130 241q106 253 106 685t-106 684q-50 120 -130 241l47 33q143 -169 223 -396t80 -560zM76 775q0 333 78 561
t225 401l47 -33q-80 -121 -130 -241q-106 -254 -106 -685t106 -685q50 -120 130 -240l-47 -33q-143 168 -223 395t-80 560z" />
    <glyph glyph-name="uni2476" unicode="&#x2476;" 
d="M1290 1182q0 120 -77 190t-185 70q-221 0 -297 -193q-19 -55 -39 -78t-57 -22q-61 0 -62 84q-1 55 53 122t153 113t231 48q276 0 356 -119t80 -235t-96 -206t-260 -108v-4q102 -6 197 -48t157 -125t61 -199q0 -253 -216 -372q-113 -61 -273 -61t-265 49t-158 118
q-52 69 -52 126q0 82 63 82q43 0 78 -62q6 -10 31 -52t65 -77q88 -111 230 -111t240 85q100 84 100 259t-130 261t-350 86v69q178 6 300 78t122 232zM1972 781q0 -333 -78 -561t-225 -400l-47 33q80 121 130 241q106 253 106 685t-106 684q-50 120 -130 241l47 33
q143 -169 223 -396t80 -560zM76 775q0 333 78 561t225 401l47 -33q-80 -121 -130 -241q-106 -254 -106 -685t106 -685q50 -120 130 -240l-47 -33q-143 168 -223 395t-80 560z" />
    <glyph glyph-name="uni2477" unicode="&#x2477;" 
d="M1155 1108q0 90 6 201h-8l-41 -66q-35 -63 -76 -123l-370 -577h489v565zM1309 1511v-968h178l-12 -82h-166v-174q0 -76 9 -107t40 -41t106 -10v-61h-495v61q92 0 129 10t47 41t10 107v174h-604v61l647 989h111zM1972 781q0 -333 -78 -561t-225 -400l-47 33
q80 121 130 241q106 253 106 685t-106 684q-50 120 -130 241l47 33q143 -169 223 -396t80 -560zM76 775q0 333 78 561t225 401l47 -33q-80 -121 -130 -241q-106 -254 -106 -685t106 -685q50 -120 130 -240l-47 -33q-143 168 -223 395t-80 560z" />
    <glyph glyph-name="uni2478" unicode="&#x2478;" 
d="M1036 997q158 0 258 -62q100 -63 148 -165t49 -225q0 -123 -45 -238t-153 -191t-258 -77q-149 0 -249 45t-154 113t-54 119q0 52 19 74t47 22t45 -14t38 -56q27 -82 95 -156t194 -73q179 0 267 172q48 93 48 269t-92 280q-80 86 -227 86q-102 0 -182 -43t-130 -113
l-59 18l100 707h551q54 0 69 6t23 31h62l-41 -158h-588l-76 -461l4 -2q133 92 291 92zM1972 781q0 -333 -78 -561t-225 -400l-47 33q80 121 130 241q106 253 106 685t-106 684q-50 120 -130 241l47 33q143 -169 223 -396t80 -560zM76 775q0 333 78 561t225 401l47 -33
q-80 -121 -130 -241q-106 -254 -106 -685t106 -685q50 -120 130 -240l-47 -33q-143 168 -223 395t-80 560z" />
    <glyph glyph-name="uni2479" unicode="&#x2479;" 
d="M1348 520q0 192 -120 306q-70 66 -182 67q-110 0 -185 -46t-117 -120q-42 -75 -42 -171t38 -201t111 -173t169 -68t169 49q73 48 116 139t43 218zM1507 528q0 -124 -50 -236q-50 -110 -159 -180t-272 -71q-217 0 -354 173t-137 538q0 461 222 662q116 105 294 106
q125 0 213 -42t132 -104t44 -106q0 -90 -62 -88q-33 0 -53 22t-45 76q-57 168 -245 168q-103 0 -183 -87t-121 -242t-41 -349h8q129 205 374 205q128 1 230 -59t153 -161q52 -101 52 -225zM1972 781q0 -333 -78 -561t-225 -400l-47 33q80 121 130 241q106 253 106 685
t-106 684q-50 120 -130 241l47 33q143 -169 223 -396t80 -560zM76 775q0 333 78 561t225 401l47 -33q-80 -121 -130 -241q-106 -254 -106 -685t106 -685q50 -120 130 -240l-47 -33q-143 168 -223 395t-80 560z" />
    <glyph glyph-name="uni247A" unicode="&#x247a;" 
d="M821 1372q-75 0 -107 -11t-51 -46t-42 -121h-72l63 299h871l18 -33q-266 -338 -395 -749q-106 -319 -115 -664h-170q10 381 165 731t347 594h-512zM1972 781q0 -333 -78 -561t-225 -400l-47 33q80 121 130 241q106 253 106 685t-106 684q-50 120 -130 241l47 33
q143 -169 223 -396t80 -560zM76 775q0 333 78 561t225 401l47 -33q-80 -121 -130 -241q-106 -254 -106 -685t106 -685q50 -120 130 -240l-47 -33q-143 168 -223 395t-80 560z" />
    <glyph glyph-name="uni247B" unicode="&#x247b;" 
d="M678 436q0 -147 94 -233t242 -86t240 80q91 80 92 219q0 221 -394 350q-274 -102 -274 -330zM1313 1173q1 103 -63 187t-230 84t-235 -74t-68 -168q0 -122 92 -190t248 -121q125 47 191 113t65 169zM573 1182q-1 88 49 165t149 125t245 48q200 0 320 -92t120 -246
q0 -221 -293 -328v-6q164 -66 255 -176t91 -228q0 -119 -60 -210t-173 -142t-256 -51t-253 47t-173 137q-64 90 -64 212t92 220t236 152v4q-285 138 -285 369zM1972 781q0 -333 -78 -561t-225 -400l-47 33q80 121 130 241q106 253 106 685t-106 684q-50 120 -130 241l47 33
q143 -169 223 -396t80 -560zM76 775q0 333 78 561t225 401l47 -33q-80 -121 -130 -241q-106 -254 -106 -685t106 -685q50 -120 130 -240l-47 -33q-143 168 -223 395t-80 560z" />
    <glyph glyph-name="uni247C" unicode="&#x247c;" 
d="M692 1060q0 -211 116 -323q71 -68 202 -67q168 0 262 131q35 45 50 87t15 128t-38 192q-38 104 -111 171q-74 67 -178 67t-177 -58t-107 -150t-34 -178zM1006 1520q310 0 436 -305q66 -157 65 -392q0 -336 -126 -559t-396 -223q-135 0 -228 42t-139 104q-45 62 -45 129
t62 67q35 0 53 -19t47 -77q37 -92 99 -131t153 -39q223 0 293 221t70 455h-7q-123 -203 -375 -203q-128 0 -229 58q-100 58 -153 160q-54 102 -54 232q0 129 55 239q54 109 163 175t256 66zM1972 781q0 -333 -78 -561t-225 -400l-47 33q80 121 130 241q106 253 106 685
t-106 684q-50 120 -130 241l47 33q143 -169 223 -396t80 -560zM76 775q0 333 78 561t225 401l47 -33q-80 -121 -130 -241q-106 -254 -106 -685t106 -685q50 -120 130 -240l-47 -33q-143 168 -223 395t-80 560z" />
    <glyph glyph-name="uni247D" unicode="&#x247d;" 
d="M1305 113q104 0 140 170t36 503q0 469 -78 598q-33 66 -98 66q-103 0 -138 -171t-34 -493q0 -481 75 -610q37 -63 97 -63zM727 283q0 -78 8 -108t36 -39t99 -9v-55h-430v55q76 0 105 9t38 39t9 108v925q0 63 -9 89t-35 26t-104 -45l-18 55q166 82 279 172l22 -12v-1210z
M1305 1520q195 0 257 -205t62 -528t-60 -535t-254 -211q-194 0 -257 208t-63 524q0 315 60 531t255 216zM1972 781q0 -333 -78 -561t-225 -400l-47 33q80 121 130 241q106 253 106 685t-106 684q-50 120 -130 241l47 33q143 -169 223 -396t80 -560zM76 775q0 333 78 561
t225 401l47 -33q-80 -121 -130 -241q-106 -254 -106 -685t106 -685q50 -120 130 -240l-47 -33q-143 168 -223 395t-80 560z" />
    <glyph glyph-name="uni247E" unicode="&#x247e;" 
d="M1448 283q0 -78 8 -108t36 -39t99 -9v-55h-430v55q76 0 105 9t38 39t9 108v925q0 63 -9 89t-36 26t-101 -45l-20 55q165 82 278 172l23 -12v-1210zM758 283q0 -78 8 -108t36 -39t99 -9v-55h-432v55q77 0 105 9t37 39t10 108v925q-1 63 -9 89t-36 26t-101 -45l-18 55
q163 82 278 172l23 -12v-1210zM1972 781q0 -333 -78 -561t-225 -400l-47 33q80 121 130 241q106 253 106 685t-106 684q-50 120 -130 241l47 33q143 -169 223 -396t80 -560zM76 775q0 333 78 561t225 401l47 -33q-80 -121 -130 -241q-106 -254 -106 -685t106 -685
q50 -120 130 -240l-47 -33q-143 168 -223 395t-80 560z" />
    <glyph glyph-name="uni247F" unicode="&#x247f;" 
d="M727 283q0 -78 8 -108t36 -39t99 -9v-55h-430v55q76 0 105 9t38 39t9 108v925q0 63 -9 89t-35 26t-104 -45l-18 55q166 82 279 172l22 -12v-1210zM1454 1160q0 164 -45 226t-109 62t-96 -54q-31 -54 -41 -127t-25 -90t-44 -18q-57 0 -58 94q0 47 27 109t89 110t161 48
q131 0 208 -100t77 -262q0 -161 -97 -327q-39 -61 -103 -143t-110 -145q-135 -201 -160 -361h279q51 0 75 12t37 45q13 32 31 107l56 -8l-43 -266h-519l-18 20q18 190 137 428q39 78 137 230l56 88q98 158 98 322zM1972 781q0 -333 -78 -561t-225 -400l-47 33
q80 121 130 241q106 253 106 685t-106 684q-50 120 -130 241l47 33q143 -169 223 -396t80 -560zM76 775q0 333 78 561t225 401l47 -33q-80 -121 -130 -241q-106 -254 -106 -685t106 -685q50 -120 130 -240l-47 -33q-143 168 -223 395t-80 560z" />
    <glyph glyph-name="uni2480" unicode="&#x2480;" 
d="M725 283q0 -78 8 -108t37 -39t100 -9v-55h-432v55q76 0 105 9t38 39t9 108v925q0 63 -9 89t-36 26t-101 -45l-18 55q165 82 276 172l23 -12v-1210zM1295 1448q-69 0 -101 -52t-40 -120t-24 -90t-49 -23q-57 0 -57 103q0 45 30 105q30 61 91 105t149 44q139 0 210 -100
t71 -246q0 -94 -39 -163t-96 -107t-111 -48v-4q142 -17 232 -152q55 -84 55 -244t-80 -287q-80 -128 -246 -128q-94 0 -160 46q-66 47 -96 109t-30 109q0 98 63 98q52 0 66 -100l12 -51q39 -137 149 -137q72 0 126 82q54 83 54 233q1 287 -149 353q-70 32 -139 32v62
q45 -1 108 32q141 68 142 279q0 94 -36 177t-105 83zM1972 781q0 -333 -78 -561t-225 -400l-47 33q80 121 130 241q106 253 106 685t-106 684q-50 120 -130 241l47 33q143 -169 223 -396t80 -560zM76 775q0 333 78 561t225 401l47 -33q-80 -121 -130 -241
q-106 -254 -106 -685t106 -685q50 -120 130 -240l-47 -33q-143 168 -223 395t-80 560z" />
    <glyph glyph-name="uni2481" unicode="&#x2481;" 
d="M1354 1108q0 96 8 174h-4q-41 -131 -62 -178l-227 -561h285v565zM727 283q0 -78 8 -108t36 -39t99 -9v-55h-430v55q76 0 105 9t38 39t9 108v925q0 63 -9 89t-35 26t-104 -45l-18 55q166 82 279 172l22 -12v-1210zM1493 1516v-973h127l-10 -78h-117v-182q0 -76 7 -107
t29 -40t79 -9v-55h-385v55q65 0 91 10t33 40t7 108v180h-377v55l420 996h96zM1972 781q0 -333 -78 -561t-225 -400l-47 33q80 121 130 241q106 253 106 685t-106 684q-50 120 -130 241l47 33q143 -169 223 -396t80 -560zM76 775q0 333 78 561t225 401l47 -33
q-80 -121 -130 -241q-106 -254 -106 -685t106 -685q50 -120 130 -240l-47 -33q-143 168 -223 395t-80 560z" />
    <glyph glyph-name="uni2482" unicode="&#x2482;" 
d="M727 283q0 -78 8 -108t36 -39t99 -9v-55h-430v55q76 0 105 9t38 39t9 108v925q0 63 -9 89t-35 26t-104 -45l-18 55q166 82 279 172l22 -12v-1210zM1597 530q0 -202 -81 -346q-82 -143 -232 -143q-76 0 -133 38t-89 96t-32 114q0 98 70 98q43 0 51 -45q16 -115 45 -171
q28 -56 96 -56t115 100t47 317q0 391 -156 392q-47 0 -93 -40t-79 -112l-57 14l70 707h297q45 0 58 6t24 29h51l-33 -146h-322l-53 -456l2 -2q63 74 162 73q145 0 209 -133q64 -132 63 -334zM1972 781q0 -333 -78 -561t-225 -400l-47 33q80 121 130 241q106 253 106 685
t-106 684q-50 120 -130 241l47 33q143 -169 223 -396t80 -560zM76 775q0 333 78 561t225 401l47 -33q-80 -121 -130 -241q-106 -254 -106 -685t106 -685q50 -120 130 -240l-47 -33q-143 168 -223 395t-80 560z" />
    <glyph glyph-name="uni2483" unicode="&#x2483;" 
d="M1309 883q-41 0 -79 -44t-63 -118t-24 -156q0 -180 41 -316t129 -136q160 0 160 399q0 119 -37 245t-127 126zM725 283q0 -78 8 -108t37 -39t100 -9v-55h-432v55q76 0 105 9t38 39t9 108v925q0 63 -9 89t-36 26t-101 -45l-18 55q165 82 276 172l23 -12v-1210zM1577 1274
q0 -90 -55 -88q-29 0 -45 18t-25 68q-8 74 -37 125t-80 51q-125 0 -161 -222t-35 -427h4q69 162 196 162q81 -1 145 -61t98 -162t34 -220q0 -213 -79 -345t-226 -132q-311 0 -312 690q0 299 68 544t270 245q76 0 130 -39t82 -97t28 -110zM1972 781q0 -333 -78 -561
t-225 -400l-47 33q80 121 130 241q106 253 106 685t-106 684q-50 120 -130 241l47 33q143 -169 223 -396t80 -560zM76 775q0 333 78 561t225 401l47 -33q-80 -121 -130 -241q-106 -254 -106 -685t106 -685q50 -120 130 -240l-47 -33q-143 168 -223 395t-80 560z" />
    <glyph glyph-name="uni2484" unicode="&#x2484;" 
d="M1143 49q0 319 114 686q115 367 259 647h-283q-61 0 -91 -11t-48 -47t-39 -122h-64l53 291h584l17 -29q-78 -139 -159 -368q-81 -230 -136 -506t-56 -541h-151zM727 283q0 -78 8 -108t36 -39t99 -9v-55h-430v55q76 0 105 9t38 39t9 108v925q0 63 -9 89t-35 26t-104 -45
l-18 55q166 82 279 172l22 -12v-1210zM1972 781q0 -333 -78 -561t-225 -400l-47 33q80 121 130 241q106 253 106 685t-106 684q-50 120 -130 241l47 33q143 -169 223 -396t80 -560zM76 775q0 333 78 561t225 401l47 -33q-80 -121 -130 -241q-106 -254 -106 -685t106 -685
q50 -120 130 -240l-47 -33q-143 168 -223 395t-80 560z" />
    <glyph glyph-name="uni2485" unicode="&#x2485;" 
d="M1122 434q0 -156 54 -238t133 -81q41 -1 80 30t64 98q26 67 26 165q0 201 -211 350q-146 -102 -146 -324zM1145 1198q0 -98 48 -182t128 -135q80 69 114 135q33 66 33 167t-38 183q-39 82 -120 82t-123 -76t-42 -174zM725 283q0 -78 8 -108t36 -39t99 -9v-55h-430v55
q76 0 105 9t38 39t9 108v925q0 63 -9 89t-36 26t-101 -45l-18 55q165 82 276 172l23 -12v-1210zM1018 1173q0 193 123 293q66 53 168 54q141 0 214 -96t73 -229q0 -134 -52 -210q-51 -76 -151 -147v-4q121 -86 176 -195t55 -207t-34 -188t-104 -147q-71 -56 -175 -56
q-141 0 -232 107q-90 108 -90 294q0 74 41 176t172 181v4q-55 49 -92 93t-64 117q-28 73 -28 160zM1972 781q0 -333 -78 -561t-225 -400l-47 33q80 121 130 241q106 253 106 685t-106 684q-50 120 -130 241l47 33q143 -169 223 -396t80 -560zM76 775q0 333 78 561t225 401
l47 -33q-80 -121 -130 -241q-106 -254 -106 -685t106 -685q50 -120 130 -240l-47 -33q-143 168 -223 395t-80 560z" />
    <glyph glyph-name="uni2486" unicode="&#x2486;" 
d="M1305 680q41 0 79 42t64 118q25 76 25 207t-43 267t-130 136q-94 0 -128 -128t-34 -254t36 -257q35 -131 131 -131zM725 283q0 -78 8 -108t36 -39t99 -9v-55h-430v55q74 0 104 9t38 39t8 108v925q0 63 -8 89t-36 26t-102 -45l-18 55q163 82 278 172l23 -12v-1210z
M1274 602q-129 0 -203 128t-74 328t79 330q79 132 231 132q153 0 233 -172t80 -512q0 -432 -109 -639q-84 -156 -233 -156q-80 0 -137 39t-87 98t-30 117q0 84 55 84q33 -1 47 -19t23 -65q33 -180 129 -180q201 0 201 647h-4q-25 -66 -78 -113t-123 -47zM1972 781
q0 -333 -78 -561t-225 -400l-47 33q80 121 130 241q106 253 106 685t-106 684q-50 120 -130 241l47 33q143 -169 223 -396t80 -560zM76 775q0 333 78 561t225 401l47 -33q-80 -121 -130 -241q-106 -254 -106 -685t106 -685q50 -120 130 -240l-47 -33q-143 168 -223 395
t-80 560z" />
    <glyph glyph-name="uni2487" unicode="&#x2487;" 
d="M1378 113q100 0 135 172t35 501q0 471 -73 598q-33 66 -95 66q-98 0 -131 -169t-32 -495q0 -487 71 -610q35 -63 90 -63zM1380 1520q184 0 242 -207t59 -527q0 -320 -57 -532t-244 -213q-130 0 -196 118q-66 117 -84 275t-18 412t56 464q58 210 242 210zM809 1162
q0 158 -43 222t-101 64q-57 0 -91 -44t-45 -127t-26 -100t-44 -18q-55 0 -56 94q0 51 28 113t88 108q59 46 143 46t146 -40t101 -119t39 -213t-100 -314q-29 -49 -109 -158l-92 -131q-135 -223 -153 -363h266q49 0 73 12t37 45q14 32 33 107l51 -8l-43 -266h-499l-19 20
q18 190 131 428q41 88 135 238l50 80q100 166 100 324zM1972 781q0 -333 -78 -561t-225 -400l-47 33q80 121 130 241q106 253 106 685t-106 684q-50 120 -130 241l47 33q143 -169 223 -396t80 -560zM76 775q0 333 78 561t225 401l47 -33q-80 -121 -130 -241
q-106 -254 -106 -685t106 -685q50 -120 130 -240l-47 -33q-143 168 -223 395t-80 560z" />
    <glyph glyph-name="uni2488" unicode="&#x2488;" 
d="M1696 127q0 57 41 97t98 40t97 -41t40 -98t-40 -97t-98 -40t-98 41t-40 98zM1108 227q0 -79 11 -111t50 -42t138 -11v-63h-564v63q103 1 143 11t51 41t11 112v951q0 63 -11 91q-11 27 -48 27t-133 -43l-17 64q207 80 346 176l23 -12v-1254z" />
    <glyph glyph-name="uni2489" unicode="&#x2489;" 
d="M1696 127q0 57 41 97t98 40t97 -41t40 -98t-40 -97t-98 -40t-98 41t-40 98zM1331 1140q-1 112 -65 202t-246 90q-236 0 -305 -234q-11 -43 -31 -60t-55 -18q-61 0 -62 86q0 57 49 128q48 71 152 123t266 52t268 -55q198 -103 197 -317q-1 -121 -69 -208t-189 -186
q-27 -20 -51 -35t-45 -32q-199 -139 -256 -197q-156 -137 -227 -352h589q70 0 103 12t52 49t46 129l66 -10l-64 -307h-899l-25 33q51 217 181 424q65 89 145 159t216 160t198 171q61 81 61 193z" />
    <glyph glyph-name="uni248A" unicode="&#x248a;" 
d="M1696 127q0 57 41 97t98 40t97 -41t40 -98t-40 -97t-98 -40t-98 41t-40 98zM1017 1432q-122 0 -195 -60t-101 -141q-25 -59 -44 -82t-59 -23q-63 0 -63 88q0 53 52 123q53 70 155 121t248 51q229 0 342 -100q112 -101 112 -249t-103 -236t-269 -107v-6q110 -6 208 -50
t163 -131t65 -210t-58 -223q-58 -99 -178 -161q-118 -62 -278 -62t-271 50q-111 52 -167 124t-56 131q0 84 68 83q47 0 82 -61q47 -90 96 -135q94 -113 242 -113t249 84q103 85 103 263t-126 273t-372 95v74q74 -1 173 22t183 93q82 71 82 201t-80 202q-81 72 -203 72z" />
    <glyph glyph-name="uni248B" unicode="&#x248b;" 
d="M1696 127q0 57 41 97t98 40t97 -41t40 -98t-40 -97t-98 -40t-98 41t-40 98zM1163 1081q0 98 6 211h-8q-14 -20 -58 -94t-63 -102l-385 -600h508v585zM1325 1503v-1007h188l-14 -86h-174v-183q0 -81 9 -111t42 -41t113 -12v-63h-518v63q96 -1 134 11t48 43t10 110v183
h-628v61l673 1032h117z" />
    <glyph glyph-name="uni248C" unicode="&#x248c;" 
d="M1696 127q0 57 41 97t98 40t97 -41t40 -98t-40 -97t-98 -40t-98 41t-40 98zM1520 498q0 -152 -56 -272t-169 -188q-114 -68 -261 -69q-146 0 -250 48t-161 119t-57 123t21 76q23 23 51 23t47 -15t38 -56q86 -240 299 -240q76 0 150 39t126 137q51 98 52 262
q0 401 -330 402q-106 0 -190 -45t-136 -117l-61 18l104 738h572q55 0 71 6t27 29h61l-41 -162h-610l-80 -480l4 -2q137 94 310 95q229 0 349 -132t120 -337z" />
    <glyph glyph-name="uni248D" unicode="&#x248d;" 
d="M1696 127q0 57 41 97t98 40t97 -41t40 -98t-40 -97t-98 -40t-98 41t-40 98zM1052 858q-112 0 -190 -45t-123 -122t-45 -179t39 -214q39 -110 115 -180t180 -69q156 0 246 120t90 302q0 70 -26 158q-26 89 -100 159t-186 70zM1074 940q130 0 236 -57t164 -161t58 -236
t-51 -248t-164 -190q-113 -75 -287 -75q-226 -1 -370 179t-144 561q0 466 220 680q120 117 319 116q133 0 224 -43t135 -106q44 -62 44 -110q0 -92 -61 -93q-35 0 -57 24t-46 81q-18 57 -74 114q-56 58 -172 58t-198 -88t-126 -248t-44 -369h8q60 99 158 155t228 56z" />
    <glyph glyph-name="uni248E" unicode="&#x248e;" 
d="M1696 127q0 57 41 97t98 40t97 -41t40 -98t-40 -97t-98 -40t-98 41t-40 98zM811 1358q-76 0 -111 -12t-54 -48t-44 -127h-76l68 312h903l23 -35q-276 -348 -412 -778q-111 -330 -121 -690h-178q8 280 95 548t206 478t233 352h-532z" />
    <glyph glyph-name="uni248F" unicode="&#x248f;" 
d="M1696 127q0 57 41 97t98 40t97 -41t40 -98t-40 -97t-98 -40t-98 41t-40 98zM1362 361q0 135 -113 221t-297 145q-285 -106 -284 -344q0 -143 94 -237t257 -95q163 0 253 87t90 223zM709 1178q0 -116 94 -192q94 -75 258 -130q139 55 203 122q63 66 63 184t-78 195
t-225 77t-231 -70t-84 -186zM559 1161q0 92 51 172q50 80 154 128t264 48t262 -52t146 -132t43 -166q0 -227 -305 -342v-6q164 -63 262 -175t98 -238t-62 -222t-180 -149q-117 -53 -269 -53t-267 50q-116 50 -180 143t-64 213t88 225t254 167v4q-295 135 -295 385z" />
    <glyph glyph-name="uni2490" unicode="&#x2490;" 
d="M1696 127q0 57 41 97t98 40t97 -41t40 -98t-40 -97t-98 -40t-98 41t-40 98zM1014 627q98 0 176 48t122 126q44 79 44 179t-40 208t-117 178t-179 70q-152 0 -244 -116t-92 -302q0 -135 69 -263t261 -128zM514 1008q0 132 54 246t168 185t268 71q325 -1 459 -310
q71 -162 71 -414q0 -332 -125 -572t-420 -241q-135 0 -231 42q-96 41 -146 105t-51 137q0 73 62 73q35 0 55 -20t51 -83q70 -176 260 -176q160 0 254 139q127 195 123 564h-6q-130 -211 -389 -211q-133 0 -239 60q-106 61 -162 167t-56 238z" />
    <glyph glyph-name="uni2491" unicode="&#x2491;" 
d="M1755 127q0 57 41 97t98 40q58 0 98 -41t40 -98t-40 -97t-98 -40t-99 41q-40 41 -40 98zM1289 1440q-77 0 -130 -73t-73 -231t-19 -374q0 -215 10 -354q26 -365 209 -365q100 0 154 127q68 164 67 580q0 242 -16 392q-17 150 -71 224t-131 74zM614 229q0 -77 10 -109
t36 -41q28 -9 100 -9v-70h-457v70q82 0 114 9t41 40t9 110v983q0 76 -47 76q-27 0 -125 -51l-23 59q74 33 158 90t145 119l39 -24v-1252zM915 752q0 760 373 757q150 0 238 -116q135 -186 135 -644t-121 -636q-92 -139 -251 -139t-253 139q-121 184 -121 639z" />
    <glyph glyph-name="uni2492" unicode="&#x2492;" 
d="M1755 127q0 57 41 97t98 40q58 0 98 -41t40 -98t-40 -97t-98 -40t-99 41q-40 41 -40 98zM1446 229q0 -77 9 -109t37 -41t99 -9v-70h-456v70q81 0 113 9t41 40t9 110v983q0 76 -47 76q-27 0 -125 -51l-22 59q74 33 158 90t145 119l39 -24v-1252zM731 229q0 -77 9 -109
t37 -41t100 -9v-70h-457v70q82 0 114 9t40 40t10 110v983q0 76 -47 76q-27 0 -125 -51l-23 59q74 33 158 90t145 119l39 -24v-1252z" />
    <glyph glyph-name="uni2493" unicode="&#x2493;" 
d="M1910 264q58 0 98 -41t40 -98t-40 -97t-98 -40t-99 41q-39 41 -39 98t40 97t98 40zM651 229q0 -77 9 -109t37 -41t100 -9v-70h-457v70q82 0 114 9t41 40t9 110v983q0 76 -47 76q-27 0 -125 -51l-23 59q74 33 158 90t145 119l39 -24v-1252zM1473 1143q0 297 -183 297
q-104 0 -136 -86t-32 -140q0 -92 -82 -94q-30 0 -54 23q-49 48 8 182q32 72 107 128t195 56q160 0 245 -104t85 -275t-174 -372q-115 -123 -159 -174q-155 -179 -222 -473h344q53 -1 79 35t50 147l86 -14l-39 -279h-628l-23 31q43 266 147 442t230 309q156 182 156 361z" />
    <glyph glyph-name="uni2494" unicode="&#x2494;" 
d="M1755 127q0 57 41 97t98 40q58 0 98 -41t40 -98t-40 -97t-98 -40t-99 41q-40 41 -40 98zM657 229q-1 -77 9 -109t38 -41t99 -9v-70h-457v70q82 0 114 9t41 40t9 110v983q0 76 -47 76q-27 0 -125 -51l-23 59q74 33 158 90t145 119l39 -24v-1252zM1452 1185q0 144 -57 199
t-115 56q-145 0 -174 -203q-8 -94 -81 -94t-73 88q0 49 37 116t111 115t180 47q154 0 237 -97q83 -98 83 -236t-80 -236q-78 -98 -213 -127q125 -13 227 -101t102 -294q0 -128 -46 -230t-131 -158t-192 -56t-185 46q-78 47 -116 115t-38 118q0 99 80 97q63 0 77 -102
q31 -205 187 -205q92 0 152 93t61 272q0 258 -176 346q-80 34 -176 20v72q50 -3 125 23t135 99q59 73 59 217z" />
    <glyph glyph-name="uni2495" unicode="&#x2495;" 
d="M1755 127q0 57 41 97t98 40q58 0 98 -41t40 -98t-40 -97t-98 -40t-99 41q-40 41 -40 98zM1337 485v742h-2q-34 -103 -67 -185l-232 -557h301zM1485 1501v-1016h145l-20 -75h-125v-195q0 -84 7 -115t29 -38t83 -7v-55h-406v55q72 0 98 8t33 39q8 31 8 115v193h-424v53
l459 1038h113zM674 229q0 -77 9 -109t37 -41t99 -9v-70h-457v70q82 0 114 9t41 40t9 110v983q0 76 -47 76q-27 0 -125 -51l-22 59q73 33 157 90t146 119l39 -24v-1252z" />
    <glyph glyph-name="uni2496" unicode="&#x2496;" 
d="M1753 127q0 57 41 97t98 40q58 0 98 -41t40 -98t-40 -97t-98 -40t-99 41q-40 41 -40 98zM707 229q0 -77 9 -109t37 -41t99 -9v-70h-457v70q82 0 114 9t41 40t9 110v983q0 76 -47 76q-27 0 -125 -51l-22 59q73 33 157 90t146 119l39 -24v-1252zM1337 965q123 0 210 -115
q87 -116 87 -368t-102 -380t-262 -129q-84 0 -153 43t-106 109q-38 66 -38 127q1 90 71 90t84 -100q29 -199 158 -199q84 0 140 115t57 327q0 406 -189 406q-59 0 -111 -46t-89 -122l-80 29l71 729h385q27 0 34 6t16 29h86l-31 -146h-387l-53 -473l6 -2q73 70 196 70z" />
    <glyph glyph-name="uni2497" unicode="&#x2497;" 
d="M1910 264q58 0 98 -41t40 -98t-40 -97t-98 -40t-99 41q-39 41 -39 98t40 97t98 40zM1290 856q-55 0 -103 -43q-104 -93 -104 -295q0 -112 24 -222t70 -182t111 -73q98 0 149 122q50 123 50 303t-50 285t-147 105zM647 229q0 -77 9 -109t37 -41t100 -9v-70h-457v70
q82 0 114 9t40 40t10 110v983q0 76 -47 76q-27 0 -125 -51l-23 59q74 33 158 90t145 119l39 -24v-1252zM1330 932q88 0 163 -64q74 -64 111 -168q36 -104 36 -234t-41 -244t-121 -182t-196 -67q-162 1 -257 179t-95 548q0 463 141 672q92 137 240 137q94 0 157 -42
q64 -42 96 -103t31 -115q0 -80 -69 -80q-33 0 -56 22q-24 23 -26 67t-34 113t-112 69t-128 -106q-89 -191 -95 -552l2 -2q35 66 100 109t153 43z" />
    <glyph glyph-name="uni2498" unicode="&#x2498;" 
d="M1669 127q0 57 41 97t98 40q58 0 98 -41t40 -98t-40 -97t-98 -40t-99 41q-40 41 -40 98zM1231 1374q-45 0 -67 -11t-36 -48t-32 -125h-109l49 295h656l14 -27q-158 -270 -262 -674t-109 -802h-161q2 350 118 735q117 385 258 657h-319zM702 229q0 -77 10 -109t37 -41
q28 -9 99 -9v-70h-457v70q82 0 114 9t41 40t9 110v983q0 76 -47 76q-27 0 -125 -51l-23 59q74 33 158 90t146 119l38 -24v-1252z" />
    <glyph glyph-name="uni2499" unicode="&#x2499;" 
d="M1910 264q58 0 98 -41t40 -98t-40 -97t-98 -40t-99 41q-39 41 -39 98t40 97t98 40zM1061 372q0 -146 57 -238q58 -91 152 -91t151 85q57 84 57 220t-66 233q-67 97 -173 156q-86 -53 -132 -136t-46 -229zM1458 1161q0 95 -38 187t-148 92q-82 0 -133 -72t-52 -190
q0 -221 201 -334q170 106 170 317zM629 229q0 -77 9 -109t37 -41t99 -9v-70h-457v70q82 0 114 9t41 40t9 110v983q0 76 -47 76q-27 0 -125 -51l-22 59q73 33 157 90t146 119l39 -24v-1252zM944 1165q0 84 35 163t108 130q74 51 185 51q170 0 249 -103t78 -251
q0 -217 -225 -346h12l-10 -6q125 -74 193 -190q67 -115 67 -225t-40 -204t-122 -152t-200 -59q-174 0 -266 114t-93 296q-1 102 57 211t191 184h-2q-217 156 -217 387z" />
    <glyph glyph-name="uni249A" unicode="&#x249a;" 
d="M1704 127q0 57 41 97t98 40t97 -41t40 -98t-40 -97t-98 -40t-98 41t-40 98zM1249 629q59 0 106 47q46 47 72 127q27 80 27 174q0 182 -53 323q-53 142 -151 142t-149 -125q-50 -125 -50 -273t40 -281q40 -134 158 -134zM631 229q0 -77 9 -109t37 -41t99 -9v-70h-457v70
q82 0 114 9t41 40t9 110v983q0 76 -47 76q-27 0 -125 -51l-22 59q73 33 157 90t146 119l39 -24v-1252zM1211 551q-90 -1 -165 65q-149 130 -149 398q0 223 94 359t257 136t263 -177t101 -537q0 -507 -167 -709q-93 -112 -235 -113q-92 0 -156 43q-64 44 -97 106
q-31 62 -31 110q1 88 69 87q68 0 80 -73q31 -203 144 -203q49 0 91 37q133 117 150 620l-2 2q-77 -151 -247 -151z" />
    <glyph glyph-name="uni249B" unicode="&#x249b;" 
d="M1910 264q58 0 98 -41t40 -98t-40 -97t-98 -40t-99 41q-39 41 -39 98t40 97t98 40zM1369 1440q-77 0 -130 -73t-73 -231t-19 -374q0 -215 10 -354q26 -365 209 -365q100 0 154 127q68 164 67 580q0 242 -16 392q-17 150 -71 224t-131 74zM995 752q0 455 135 641
q88 117 238 117t238 -117q135 -186 135 -644t-121 -636q-92 -139 -251 -139t-253 139q-121 184 -121 639zM731 1143q0 297 -182 297q-104 0 -136 -86t-32 -140q0 -92 -82 -94q-31 0 -55 23t-23 67q0 44 32 115q32 72 106 128q75 56 196 56q160 0 245 -104t85 -275t-174 -372
q-115 -123 -159 -174q-156 -181 -222 -473h344q53 -1 79 35t50 147l86 -14l-39 -279h-629l-22 31q43 266 147 442t229 309q156 182 156 361z" />
    <glyph glyph-name="uni2550" unicode="&#x2550;" 
d="M2048 768v-35h-2048v35h2048zM2048 823v-35h-2048v35h2048z" />
    <glyph glyph-name="uni2554" unicode="&#x2554;" 
d="M1034 -246v1014h1014v-35h-979v-979h-35zM979 -246v1069h1069v-35h-1034v-1034h-35z" />
    <glyph glyph-name="uni2557" unicode="&#x2557;" 
d="M0 733v35h1014v-1014h-35v979h-979zM0 788v35h1069v-1069h-35v1034h-1034z" />
    <glyph glyph-name="uni2566" unicode="&#x2566;" 
d="M1069 733v-979h-35v1014h1014v-35h-979zM0 733v35h1014v-1014h-35v979h-979zM2048 823v-35h-2048v35h2048z" />
    <glyph glyph-name="uni2569" unicode="&#x2569;" 
d="M2048 768v-35h-2048v35h2048zM2048 823v-35h-1014v1014h35v-979h979zM979 823v979h35v-1014h-1014v35h979z" />
    <glyph glyph-name="uni2582" unicode="&#x2582;" 
d="M2048 -246h-2048v512h2048v-512z" />
    <glyph glyph-name="uni2583" unicode="&#x2583;" 
d="M2048 -246h-2048v768h2048v-768z" />
    <glyph glyph-name="uni2586" unicode="&#x2586;" 
d="M2048 -246h-2048v1536h2048v-1536z" />
    <glyph glyph-name="uni2587" unicode="&#x2587;" 
d="M2048 -246h-2048v1792h2048v-1792z" />
    <glyph glyph-name="shadedark" unicode="&#x2593;" 
d="M1714 -154h230v230h-230v-230zM1253 -154h230v230h-230v-230zM793 -154h231v230h-231v-230zM332 -154h231v230h-231v-230zM1485 172h229v229h-229v-229zM1024 172h229v229h-229v-229zM563 172h232v229h-232v-229zM102 172h232v229h-232v-229zM1714 498h230v229h-230v-229
zM1253 498h230v229h-230v-229zM793 498h231v229h-231v-229zM332 498h231v229h-231v-229zM1485 823h229v230h-229v-230zM1024 823h229v230h-229v-230zM563 823h232v230h-232v-230zM102 823h232v230h-232v-230zM1714 1149h230v231h-230v-231zM1253 1149h230v231h-230v-231z
M793 1149h231v231h-231v-231zM332 1149h231v231h-231v-231zM1485 1477h229v231h-229v-231zM1024 1477h229v231h-229v-231zM563 1477h232v231h-232v-231zM102 1477h232v231h-232v-231zM2048 1802v-2048h-2048v2048h2048z" />
    <glyph glyph-name="uni2594" unicode="&#x2594;" 
d="M2048 1546h-2048v256h2048v-256z" />
    <glyph glyph-name="uni2595" unicode="&#x2595;" 
d="M2048 -246h-256v2048h256v-2048z" />
    <glyph glyph-name="whitesquare" unicode="&#x25a1;" 
d="M332 63h1403v1389h-1403v-1389zM1802 1516v-1516h-1538v1516h1538z" />
    <glyph glyph-name="triagup" unicode="&#x25b2;" 
d="M1845 102h-1630l817 1442z" />
    <glyph glyph-name="whiteuppointingtriangle" unicode="&#x25b3;" 
d="M1745 137l-727 1274l-707 -1274h1434zM1855 74h-1652l817 1462z" />
    <glyph glyph-name="triagdn" unicode="&#x25bc;" 
d="M260 1536h1530l-766 -1526z" />
    <glyph glyph-name="whitedownpointingtriangle" unicode="&#x25bd;" 
d="M1690 1475h-1330l664 -1328zM1790 1536l-766 -1526l-764 1526h1530z" />
    <glyph glyph-name="whitediamond" unicode="&#x25c7;" 
d="M1028 -14l797 802l-799 797l-799 -797zM1028 1675l891 -891l-891 -893l-891 895z" />
    <glyph glyph-name="whitecircle" unicode="&#x25cb;" 
d="M1022 1458q-180 0 -340 -92t-254 -250t-94 -346t94 -342q94 -156 254 -245t342 -89t336 84t246 240t92 360t-94 358t-248 238t-334 84zM258 771q0 208 104 382q104 173 282 277t377 104q200 0 371 -93t276 -265t105 -398t-102 -400q-102 -173 -273 -266
q-171 -94 -374 -94t-380 100t-282 272q-104 173 -104 381z" />
    <glyph glyph-name="blackcircle" unicode="&#x25cf;" 
d="M258 771q0 208 104 382q104 173 282 277t377 104q200 0 371 -93t276 -265t105 -398t-102 -400q-102 -173 -273 -266q-171 -94 -374 -94t-380 100t-282 272q-104 173 -104 381z" />
    <glyph glyph-name="blacklowerrighttriangle" unicode="&#x25e2;" 
d="M1792 10h-1536l1536 1536v-1536z" />
    <glyph glyph-name="blacklowerlefttriangle" unicode="&#x25e3;" 
d="M256 10v1536l1536 -1536h-1536z" />
    <glyph glyph-name="blackupperlefttriangle" unicode="&#x25e4;" 
d="M256 1536h1526l-1526 -1526v1526z" />
    <glyph glyph-name="blackupperrighttriangle" unicode="&#x25e5;" 
d="M1792 1536v-1526l-1526 1526h1526z" />
    <glyph glyph-name="uni2609" unicode="&#x2609;" 
d="M1025 715q-28 0 -46 18t-18 46t18 47q18 20 46 20t47 -20t19 -47q0 -28 -19 -46t-47 -18zM668 778q0 -98 47 -180t129 -129t180 -47t180 47t129 129t47 180t-47 180t-129 129t-180 47t-180 -46q-82 -48 -129 -130t-47 -180zM594 778q0 117 57 216q57 98 157 156t216 58
q117 0 216 -57q98 -57 156 -157t58 -216q0 -117 -57 -216t-157 -156q-100 -58 -216 -58q-117 0 -216 58t-157 156q-57 99 -57 216z" />
    <glyph glyph-name="venus" unicode="&#x2640;" 
d="M1025 1364q-85 0 -155 -41t-110 -111t-41 -154q0 -84 41 -153q40 -71 110 -111t155 -40t155 40t110 110t39 154q0 84 -40 154t-109 111q-70 41 -155 41zM993 115v317h-362v55h362v209q-145 10 -239 114t-95 251q0 100 48 184q47 84 130 132t187 48q170 0 267 -98t97 -263
t-88 -262q-90 -97 -247 -106v-209h389v-55h-389v-317h-60z" />
    <glyph glyph-name="mars" unicode="&#x2642;" 
d="M1025 795q-85 0 -155 -41t-110 -111t-41 -154q0 -83 41 -153q40 -70 110 -111t155 -41t155 40t109 110q40 70 40 154t-40 155q-40 70 -109 111q-70 41 -155 41zM1024 127q-102 0 -186 48t-131 132t-48 185q-1 147 93 250t241 114v485l-342 -309l-30 29l403 409l401 -405
l-26 -31l-346 307v-485q159 -8 247 -105t88 -262t-98 -263t-266 -99z" />
    <glyph glyph-name="blackdiamond" unicode="&#x2b29;" 
d="M1022 1651l870 -873l-870 -868l-870 872z" />
    <glyph glyph-name="blackstar" unicode="&#x2b51;" 
d="M1012 379l-543 -385l197 641l-543 401h686l217 645l215 -645h678l-541 -397l178 -647z" />
    <glyph glyph-name="whitestar" unicode="&#x2b52;" 
d="M848 967h-547l422 -316l-150 -522l435 305l446 -319l-149 536l430 316h-537l-180 522zM1008 367l-543 -385l197 641l-543 401h686l217 645l215 -645h678l-541 -397l178 -647z" />
    <glyph glyph-name="ideographicspace" unicode="&#x3000;" 
 />
    <glyph glyph-name="ideographiccomma" unicode="&#x3001;" 
d="M557 58q0 -46 -20 -88q-19 -42 -51 -42t-49 16t-48 82q-31 68 -109 158q-79 90 -174 168l27 35q245 -96 323 -162q101 -85 101 -167z" />
    <glyph glyph-name="ideographicperiod" unicode="&#x3002;" 
d="M180 144q0 -75 50 -126t128 -51t128 51t51 127q-1 76 -51 127q-50 52 -126 52t-128 -52t-52 -128zM362 385q102 0 169 -69t67 -171t-67 -171q-67 -68 -172 -68t-173 70t-67 169q0 100 70 170q71 70 173 70z" />
    <glyph glyph-name="dittomark" unicode="&#x3003;" 
d="M1292 1116q14 0 29 -6q39 -18 39 -58t-21 -81q-100 -209 -229 -520l-53 20q100 368 149 528q37 117 86 117zM831 1116q14 0 29 -6q39 -18 39 -58t-20 -81q-129 -272 -234 -518l-53 20q75 274 153 526q37 117 86 117z" />
    <glyph glyph-name="ideographiczero" unicode="&#x3007;" 
d="M1026 1630q-199 0 -370 -102t-274 -296t-103 -457t99 -458t270 -295t376 -102q205 0 376 102t272 294q101 194 102 458q-1 264 -104 459t-274 296t-370 101zM1835 774q0 -278 -110 -484q-109 -206 -293 -314t-410 -108t-412 109q-184 109 -288 314t-104 482t106 483
t290 316t406 110t406 -110q185 -108 297 -314t112 -484z" />
    <glyph glyph-name="anglebracketleft" unicode="&#x3008;" 
d="M1972 -131l-57 -49l-815 958l815 959l57 -49l-774 -910z" />
    <glyph glyph-name="anglebracketright" unicode="&#x3009;" 
d="M948 778l-815 -958l-57 49l774 909l-774 910l57 49z" />
    <glyph glyph-name="dblanglebracketleft" unicode="&#x300a;" 
d="M1927 -170l-545 948l545 948l45 -28l-528 -920l528 -919zM1653 -170l-543 948l543 948l45 -28l-527 -920l527 -919z" />
    <glyph glyph-name="dblanglebracketright" unicode="&#x300b;" 
d="M395 1726l543 -948l-543 -948l-45 29l527 919l-527 920zM121 1726l545 -948l-545 -948l-45 29l528 919l-528 920z" />
    <glyph glyph-name="cornerbracketleft" unicode="&#x300c;" 
d="M1972 1726v-77h-598v-1461h-78v1538h676z" />
    <glyph glyph-name="cornerbracketright" unicode="&#x300d;" 
d="M76 -170v78h598v1460h78v-1538h-676z" />
    <glyph glyph-name="whitecornerbracketleft" unicode="&#x300e;" 
d="M1307 276h192v1219h426v184h-618v-1403zM1546 229h-286v1497h712v-278h-426v-1219z" />
    <glyph glyph-name="whitecornerbracketright" unicode="&#x300f;" 
d="M741 1280h-192v-1219h-426v-184h618v1403zM502 1327h286v-1497h-712v279h426v1218z" />
    <glyph glyph-name="blacklenticularbracketleft" unicode="&#x3010;" 
d="M1434 778q0 -330 144 -564t394 -349v-35h-702v1896h702v-34q-250 -116 -394 -350t-144 -564z" />
    <glyph glyph-name="blacklenticularbracketright" unicode="&#x3011;" 
d="M614 778q0 330 -144 564t-394 350v34h702v-1896h-702v35q250 115 394 349t144 564z" />
    <glyph glyph-name="postalmark" unicode="&#x3012;" 
d="M991 2v885h-737v65h1540v-65h-737v-885h-66zM1794 1452v-66h-1540v66h1540z" />
    <glyph glyph-name="getamark" unicode="&#x3013;" 
d="M1786 602v-567h-1516v567h1516zM1786 1532v-567h-1516v567h1516z" />
    <glyph glyph-name="tortoiseshellbracketleft" unicode="&#x3014;" 
d="M1460 1513l477 224l35 -66l-436 -207v-1372l436 -207l-35 -65l-477 223v1470z" />
    <glyph glyph-name="tortoiseshellbracketright" unicode="&#x3015;" 
d="M512 92v1372l-436 207l35 66l477 -224v-1470l-477 -223l-35 65z" />
    <glyph glyph-name="whitelenticularbracketleft" unicode="&#x3016;" 
d="M1317 1679v-1802h530q-186 113 -323 335t-138 566q0 344 138 566t323 335h-530zM1434 778q0 -330 144 -564t394 -349v-35h-702v1896h702v-34q-250 -116 -394 -350t-144 -564z" />
    <glyph glyph-name="whitelenticularbracketright" unicode="&#x3017;" 
d="M731 -123v1802h-530q186 -112 323 -334q138 -223 138 -567t-138 -566t-323 -335h530zM614 778q0 330 -144 564t-394 350v34h702v-1896h-702v35q250 115 394 349t144 564z" />
    <glyph glyph-name="quotedblprimereversed" unicode="&#x301d;" 
d="M1526 1669q0 33 37 47q12 4 20 4q55 0 84 -110q57 -225 82 -381l-37 -10q-86 208 -168 376q-18 41 -18 74zM1270 1720q55 0 84 -110q57 -225 82 -381l-37 -10q-86 208 -168 376q-43 98 18 121q12 4 21 4z" />
    <glyph glyph-name="quotedblprime" unicode="&#x301e;" 
d="M836 1669q0 -33 -19 -74q-84 -168 -168 -376l-37 10q25 156 82 381q29 111 84 110q8 0 21 -4q37 -14 37 -47zM522 1669q0 -33 -18 -74q-82 -168 -168 -376l-37 10q25 156 82 381q29 111 84 110q8 0 20 -4q37 -14 37 -47z" />
    <glyph glyph-name="onehangzhou" unicode="&#x3021;" 
d="M983 0q-12 0 -14 13t4 109t6 345v817q0 147 -8 299l151 -70q18 -8 19 -14q0 -6 -13 -16l-59 -43v-957q0 -211 10 -399q2 -27 -9 -42q-11 -14 -43 -28t-44 -14z" />
    <glyph glyph-name="twohangzhou" unicode="&#x3022;" 
d="M729 123q-12 0 -14 13q-2 12 4 108t6 346v534q0 147 -8 299l151 -69q18 -8 19 -15q0 -6 -13 -16l-59 -43v-674q0 -211 10 -399q2 -27 -9 -42t-43 -29t-44 -13zM1241 0q-12 0 -14 13t4 109t6 345v817q0 147 -8 299l151 -70q18 -8 19 -14q0 -6 -13 -16l-59 -43v-957
q0 -211 10 -399q2 -27 -9 -42q-11 -14 -43 -28t-44 -14z" />
    <glyph glyph-name="threehangzhou" unicode="&#x3023;" 
d="M983 123q-12 0 -14 13q-2 12 4 108t6 346v534q0 147 -8 299l151 -69q18 -8 19 -15q0 -6 -13 -16l-59 -43v-674q0 -211 10 -399q2 -27 -9 -42t-43 -29t-44 -13zM471 33q-12 0 -14 13q-2 12 4 108t6 346v747q0 147 -8 299l151 -69q18 -8 19 -15q0 -6 -13 -16l-59 -43v-887
q0 -211 10 -399q2 -27 -9 -42t-43 -29t-44 -13zM1491 442v867q0 147 -8 299l151 -70q18 -8 19 -14q0 -6 -13 -17l-59 -43v-1005q0 -212 10 -400q2 -27 -9 -42t-43 -28t-44 -13t-14 12q-2 14 4 110t6 344z" />
    <glyph glyph-name="fourhangzhou" unicode="&#x3024;" 
d="M1231 595q0 -46 -13 -72t-32 -25q-27 0 -43 43q-29 80 -105 176q-229 -272 -471 -436q-42 -28 -51 -2v2q0 18 33 38q221 152 442 453q-113 125 -262 213q-33 17 -28 31t17 14t36 -12q152 -78 284 -180q123 176 217 372q25 53 25 84q0 32 -26 58t-16 40t24 13q14 0 28 -8
q57 -29 91 -75t34 -64t-43 -70q-42 -52 -106 -157t-168 -243q79 -71 106 -109t27 -84z" />
    <glyph glyph-name="fivehangzhou" unicode="&#x3025;" 
d="M688 494q0 -104 36 -186q36 -83 100 -132t143 -49q137 0 217 100q80 101 80 227t-67 221t-228 183q-129 -44 -205 -152t-76 -212zM811 1445q0 32 -29 60q-18 23 -10 35t22 12q39 0 103 -75q27 -33 27 -53t-38 -66q-38 -45 -100 -152t-63 -131q0 -24 37 -37
q94 -29 264 -108q80 28 132 108t52 156t-7 103q-7 26 -25 38q-16 13 -16 27t41 2q42 -12 65 -38t22 -81q0 -100 -57 -191t-160 -153q141 -76 210 -179t69 -219t-48 -215q-48 -98 -136 -156t-200 -58t-192 58t-119 152t-39 208q0 112 74 224t223 165q-162 76 -258 86
q-53 6 -53 41q0 26 54 104t139 266q16 35 16 67z" />
    <glyph glyph-name="sixhangzhou" unicode="&#x3026;" 
d="M1069 776h522l90 131l150 -149q14 -14 14 -20t-22 -7h-1397q-82 0 -137 -22l-58 75q68 -8 150 -8h598v348q0 147 -8 299l151 -69q18 -8 19 -15q0 -6 -13 -16l-59 -43v-504z" />
    <glyph glyph-name="sevenhangzhou" unicode="&#x3027;" 
d="M381 309h1210l90 131l150 -149q14 -15 14 -21t-22 -6h-1397q-82 1 -137 -22l-58 75q68 -8 150 -8zM1069 821h522l90 131l150 -149q14 -15 14 -21t-22 -6h-1397q-82 0 -137 -22l-58 75q68 -8 150 -8h598v303q0 147 -8 299l151 -69q18 -8 19 -15q0 -6 -13 -16l-59 -43v-459
z" />
    <glyph glyph-name="eighthangzhou" unicode="&#x3028;" 
d="M356 207h1260l90 131l149 -150q14 -14 15 -20q0 -6 -23 -6h-1446q-82 0 -137 -23l-57 76q68 -8 149 -8zM492 678h968l90 131l150 -150q14 -14 14 -20t-22 -6h-1155q-83 0 -138 -23l-57 76q68 -8 150 -8zM1069 1128h498l90 132l149 -150q14 -14 15 -20q0 -6 -23 -7h-1352
q-82 0 -137 -22l-57 76q68 -8 149 -9h578v152q0 147 -8 299l151 -70q18 -8 19 -14q0 -6 -13 -16l-59 -43v-308z" />
    <glyph glyph-name="ninehangzhou" unicode="&#x3029;" 
d="M709 1112q315 -274 471 -450q115 260 155 575h-557zM1024 1582q0 -10 -32 -17t-46 -19t-26 -35q-70 -141 -115 -225h721l65 92l121 -102q20 -18 21 -27q0 -12 -25 -12h-276q-66 -377 -195 -639q106 -121 184 -248q29 -49 29 -97q0 -101 -37 -103q-31 -4 -45 11t-33 70
q-43 127 -143 279q-161 -287 -394 -428q-169 -102 -464 -211l-8 23q278 120 431 228q237 168 384 458q-164 227 -451 499q-109 -180 -250 -358l-18 22q129 183 222 373t233 578l129 -90q18 -12 18 -22z" />
    <glyph glyph-name="uni3038" unicode="&#x3038;" 
d="M186 909q0 25 65 19t216 16l520 74q-6 400 -28 471q-11 39 -37 72t-25 45q0 47 128 11t128 -89q1 -16 -15 -48t-22 -115t-6 -327q305 48 382 64q76 16 156 16t154 -41t74 -76q0 -45 -94 -45q-14 0 -90 10t-232 11q-155 0 -350 -25q0 -319 -6 -599t-43 -408
q-14 -55 -33 -56q-45 0 -45 304l4 520v223q-297 -41 -506 -100q-65 -18 -115 -18t-139 50q-41 25 -41 41z" />
    <glyph glyph-name="uni3039" unicode="&#x3039;" 
d="M707 -55q-25 -1 -55 55t-31 103q1 47 21 102t28 152t12 366q-202 -25 -264 -38t-100 -13t-109 47q-27 19 -27 35t74 16t428 29l2 174q0 357 -33 411q-60 100 -6 99q18 0 49 -13q137 -59 138 -104q0 -16 -19 -47t-25 -136t-8 -374q203 18 484 51q0 348 -8 471
q-6 123 -32 162t-26 61t25 21q14 0 53 -14q137 -59 137 -91q0 -16 -16 -48q-29 -58 -43 -552l215 29q107 14 159 14t109 -36q61 -45 61 -75t-81 -30q-16 0 -137 13t-326 -1q-2 -78 -2 -262l2 -387q0 -141 -18 -205t-43 -65q-24 0 -48 37q-45 63 -45 109t19 104
q43 139 45 665q-311 -23 -484 -45q0 -301 -2 -475q0 -315 -73 -315z" />
    <glyph glyph-name="uni303A" unicode="&#x303a;" 
d="M1915 872q0 -41 -68 -41q-10 -1 -57 7q-48 8 -150 8t-143 -2v-578q2 -30 2 -104q1 -74 -23 -174t-59 -101q-29 -1 -51 67t-22 118t17 125q18 74 34 645q-156 -6 -324 -21q-8 -229 -6 -343q1 -114 -23 -180t-45 -67q-23 -1 -47 55t-24 85t30 114q10 29 25 328
q-131 -10 -207 -20l-63 -7q-11 -276 -99 -453t-286 -282q-30 -16 -48 -16t-14 15t29 38q121 113 181 205t86 196t42 281q-139 -16 -214 -36q-74 -20 -116 -21q-42 0 -88 37t-45 56q0 19 47 13q10 -2 54 -2t158 11t208 20q6 129 -12 259t-61 179t-44 76q0 18 30 18
q31 0 93 -22t86 -43t23 -37q0 -16 -5 -43t-5 -80l2 -80q2 -49 2 -115t-2 -100q137 14 174 17l96 8v96q1 277 -33 339q-18 32 -18 46q0 20 22 24q23 3 68 -20q50 -20 68 -36t18 -36q0 -22 -9 -48t-26 -353l322 35v127q-1 369 -23 425t-22 85t28 28q29 -1 80 -25t73 -44
q21 -20 21 -46t-26 -74t-29 -462l145 19q61 10 95 10q80 0 139 -43q39 -31 39 -60z" />
    <glyph glyph-name="uni303E" unicode="&#x303e;" 
d="M1810 29v-37h-104v37h104zM1593 29v-37h-104v37h104zM1376 29v-37h-104v37h104zM1159 29v-37h-104v37h104zM942 29v-37h-104v37h104zM725 29v-37h-104v37h104zM508 29v-37h-105v37h105zM274 96v-104h-36v104h36zM1810 262v-104h-36v104h36zM274 313v-104h-36v104h36z
M1810 479v-104h-36v104h36zM274 530v-104h-36v104h36zM1810 696v-104h-36v104h36zM274 748v-105h-36v105h36zM1810 913v-104h-36v104h36zM274 965v-105h-36v105h36zM1552 528v-49h-589l-148 -235l-41 26l129 209h-368v49h401l135 222h-536v47h565l139 223l43 -25l-125 -198
h397v-47h-426l-135 -222h559zM1810 1130v-104h-36v104h36zM274 1182v-105h-36v105h36zM997 1153q-63 41 -129 63t-109 23q-88 0 -257 -176l-25 18q106 119 176 164q71 45 125 45t74 -4q92 -12 213 -94q119 -76 213 -76q147 0 272 158l27 -23q-49 -63 -85 -96
q-109 -100 -233 -100t-262 98zM1810 1348v-105h-36v105h36zM274 1399v-105h-36v105h36zM1810 1565v-105h-36v105h36zM1645 1565v-37h-105v37h105zM1427 1565v-37h-104v37h104zM1210 1565v-37h-104v37h104zM993 1565v-37h-104v37h104zM776 1565v-37h-104v37h104zM559 1565
v-37h-104v37h104zM342 1565v-37h-104v37h104z" />
    <glyph glyph-name="uni303F" unicode="&#x303f;" horiz-adv-x="1024" 
d="M467 604l-258 621l78 24l223 -538l225 546l74 -36l-252 -617l258 -620l-78 -25l-225 539l-223 -547l-74 37zM188 -96h639v1421h-639v-1421zM911 1409v-1589h-807v1589h807z" />
    <glyph glyph-name="voicedmarkkana" unicode="&#x309b;" 
d="M367 1362q-1 -72 -51 -72t-63 56t-57 128q-44 71 -120 115l28 33q111 -37 187 -112q76 -76 76 -148zM594 1468q0 -72 -53 -73q-43 0 -58 57q-12 55 -57 126t-121 116l27 32q112 -36 187 -111t75 -147z" />
    <glyph glyph-name="semivoicedmarkkana" unicode="&#x309c;" 
d="M440 1514q0 60 -45 106t-106 45q-61 0 -107 -45q-46 -44 -45 -106q0 -62 45 -107q46 -45 108 -45t106 46t44 106zM76 1514q0 88 62 150t150 62t151 -62t63 -150t-62 -151q-62 -62 -152 -62t-151 63t-61 150z" />
    <glyph glyph-name="iterationhiragana" unicode="&#x309d;" 
d="M1352 469q-28 1 -56 23q-30 22 -62 22t-253 -72t-291 -98l-12 33q445 217 480 252q11 10 11 26q0 98 -245 199q-297 123 -367 408l45 22q57 -131 167 -208t281 -126t275 -151t105 -219q0 -41 -25 -76t-53 -35z" />
    <glyph glyph-name="voicediterationhiragana" unicode="&#x309e;" 
d="M1419 463q-25 -35 -52 -35t-59 24t-58 23q-26 0 -253 -73t-292 -97l-13 31q303 147 438 223q53 31 54 57q0 100 -246 197q-297 123 -367 408l45 24q57 -131 167 -208t281 -127t275 -151t105 -218q0 -43 -25 -78zM1481 1122q-1 -27 -17 -44t-38 -17q-39 0 -63 54
q-24 53 -80 115t-132 105l25 33q169 -55 237 -123t68 -123zM1700 1272q0 -27 -16 -44q-16 -18 -38 -18t-35 12t-33 54q-20 43 -76 104t-134 105l25 33q169 -55 238 -124t69 -122z" />
    <glyph glyph-name="prolongedkatakana" unicode="&#x30fc;" 
d="M311 674q-31 0 -81 36t-87 85t-37 101t39 89l15 2q19 -99 139 -119q61 -10 172 -10h959q65 0 200 12l47 4q80 0 153 -24t73 -62q0 -53 -117 -53l-494 6q-786 0 -886 -36q-12 -3 -38 -17t-57 -14z" />
    <glyph glyph-name="iterationkatakana" unicode="&#x30fd;" 
d="M1419 514q1 -51 -23 -84t-61 -33q-72 0 -131 142q-84 193 -262 363t-438 284l26 45q291 -80 492 -213q201 -134 299 -272t98 -232z" />
    <glyph glyph-name="voicediterationkatakana" unicode="&#x30fe;" 
d="M1346 334q-72 0 -132 143q-84 191 -262 361t-438 286l23 43q290 -80 492 -213t301 -269t100 -232q0 -51 -24 -85t-60 -34zM1491 1135q0 -27 -16 -44t-39 -17t-36 10q-13 11 -31 52q-18 40 -75 104t-133 108l23 32q169 -55 238 -124t69 -121zM1658 1225q-22 0 -35 11
t-33 54q-20 42 -76 104t-134 105l25 33q170 -57 239 -125t68 -121q0 -27 -16 -44t-38 -17z" />
    <glyph glyph-name="oneideographicparen" unicode="&#x3220;" 
d="M420 881h1053l63 123l123 -166h-1215q-42 -1 -77 -17l-56 64q86 -4 109 -4zM1845 768q0 448 -213 840l41 24q156 -251 214 -454q125 -436 -10 -861q-69 -217 -198 -411l-43 18q209 396 209 844zM94 760q0 426 277 885l41 -25q-92 -156 -154 -375t-63 -487
q0 -446 219 -846l-43 -23q-147 264 -212 459t-65 412z" />
    <glyph glyph-name="twoideographicparen" unicode="&#x3221;" 
d="M428 250h1057l69 123l129 -164h-1214q-55 -1 -98 -19l-43 66q57 -6 100 -6zM618 1212q-44 0 -83 -16l-50 64q51 -6 97 -7h774l63 113l123 -154h-924zM1845 768q0 448 -213 840l41 24q156 -251 214 -454q125 -436 -10 -861q-69 -217 -198 -411l-43 18q209 396 209 844z
M94 760q0 426 277 885l41 -25q-92 -156 -154 -375t-63 -487q0 -446 219 -846l-43 -23q-147 264 -212 459t-65 412z" />
    <glyph glyph-name="threeideographicparen" unicode="&#x3222;" 
d="M461 205h1016l65 112l129 -153h-1184q-49 0 -86 -10l-47 61q61 -10 107 -10zM657 815h635l60 103l123 -142h-791q-41 0 -78 -18l-57 65q49 -8 108 -8zM571 1366h854l58 104l125 -145h-1012q-47 0 -78 -18l-57 67q51 -8 110 -8zM1845 768q0 448 -213 840l41 24
q156 -251 214 -454q125 -436 -10 -861q-69 -217 -198 -411l-43 18q209 396 209 844zM94 760q0 426 277 885l41 -25q-92 -156 -154 -375t-63 -487q0 -446 219 -846l-43 -23q-147 264 -212 459t-65 412z" />
    <glyph glyph-name="fourideographicparen" unicode="&#x3223;" 
d="M1180 715q0 -49 15 -67t75 -17q60 0 119 41l55 -68q-70 -47 -156 -47q-143 0 -163 61q-9 29 -9 93v669h-215v-98q0 -254 -27 -410q-28 -156 -94 -264t-192 -202l-10 20q104 111 156 211t78 269t28 474h-279v-1116h909v1116h-290v-665zM1470 223h-909v-194l-76 -60
q8 133 9 316v1231l84 -95h856l51 82l119 -108l-66 -52v-1058q0 -94 12 -252l-80 -60v250zM1845 768q0 448 -213 840l41 24q156 -251 214 -454q125 -436 -10 -861q-69 -217 -198 -411l-43 18q209 396 209 844zM94 760q0 426 277 885l41 -25q-92 -156 -154 -375t-63 -487
q0 -446 219 -846l-43 -23q-147 264 -212 459t-65 412z" />
    <glyph glyph-name="fiveideographicparen" unicode="&#x3224;" 
d="M1251 205l27 694h-371l-76 -694h420zM449 205h315l78 694h-230q-45 0 -77 -8l-43 55q61 -6 92 -6h262l49 451h-340q-45 0 -78 -15l-57 64q68 -8 108 -8h916l57 100l133 -141h-671l-50 -451h338l45 96l115 -106l-65 -72l-23 -653h176l62 108l135 -149h-1223q-47 0 -82 -12
l-51 61q57 -8 109 -8zM1845 768q0 448 -213 840l41 24q156 -251 214 -454q125 -436 -10 -861q-69 -217 -198 -411l-43 18q209 396 209 844zM94 760q0 426 277 885l41 -25q-92 -156 -154 -375t-63 -487q0 -446 219 -846l-43 -23q-147 264 -212 459t-65 412z" />
    <glyph glyph-name="sixideographicparen" unicode="&#x3225;" 
d="M1585 226q0 -46 -20 -93q-19 -47 -37 -47t-40 96t-110 270t-227 384l18 20q332 -408 402 -555q14 -29 14 -75zM919 745q-30 -23 -45 -45q-141 -242 -228 -364t-216 -260l-14 22q160 227 248 389t176 398l139 -109q-30 -8 -60 -31zM483 1106h1033l79 121l136 -162h-1223
q-59 0 -90 -14l-45 59q35 -4 110 -4zM1155 1316q0 -28 -20 -61q-19 -33 -37 -33t-27 15q-8 14 -12 53q-8 84 -152 262l11 19q219 -139 233 -207q4 -20 4 -48zM1845 768q0 448 -213 840l41 24q156 -251 214 -454q125 -436 -10 -861q-69 -217 -198 -411l-43 18
q209 396 209 844zM94 760q0 426 277 885l41 -25q-92 -156 -154 -375t-63 -487q0 -446 219 -846l-43 -23q-147 264 -212 459t-65 412z" />
    <glyph glyph-name="sevenideographicparen" unicode="&#x3226;" 
d="M1220 115q136 0 212 16q31 6 45 31q29 52 45 350h20v-98q0 -141 22 -170q11 -16 40 -33q-20 -76 -56 -111t-92 -39q-137 -10 -246 -10t-202 4q-117 8 -117 148v657l-414 -117q-43 -10 -82 -38l-61 53q82 18 119 28l438 119v672l135 -78l-65 -65v-512l514 139l47 127
l143 -117l-704 -194v-678q0 -64 61 -74q62 -10 198 -10zM1845 768q0 448 -213 840l41 24q156 -251 214 -454q125 -436 -10 -861q-69 -217 -198 -411l-43 18q209 396 209 844zM94 760q0 426 277 885l41 -25q-92 -156 -154 -375t-63 -487q0 -446 219 -846l-43 -23
q-147 264 -212 459t-65 412z" />
    <glyph glyph-name="eightideographicparen" unicode="&#x3227;" 
d="M780 727q-49 -190 -122 -321t-209 -304l-19 25q123 186 191 341t112 368q45 213 82 565l123 -101l-64 -47q-45 -336 -94 -526zM1611 143q-50 0 -87 -45q-184 208 -305 528t-136 699q-8 162 -22 248l129 -96l-68 -45q6 -266 80 -528t200 -460q126 -199 281 -278v-27
q-22 4 -72 4zM1845 768q0 448 -213 840l41 24q156 -251 214 -454q125 -436 -10 -861q-69 -217 -198 -411l-43 18q209 396 209 844zM94 760q0 426 277 885l41 -25q-92 -156 -154 -375t-63 -487q0 -446 219 -846l-43 -23q-147 264 -212 459t-65 412z" />
    <glyph glyph-name="nineideographicparen" unicode="&#x3228;" 
d="M1614 276q0 -52 10 -72t37 -32q-18 -55 -43 -80t-71 -34t-138 -9t-136 10t-61 40q-16 30 -14 89l25 895h-305q-16 -350 -56 -533t-129 -301q-90 -118 -276 -237l-13 35q158 119 237 235t115 294t52 507h-326q-41 0 -67 -16l-43 61q45 -6 84 -6h354q8 172 8 253t-4 229
l139 -88l-61 -58l-12 -336h278l55 90l103 -116l-72 -54l-18 -837q0 -41 12 -59q20 -30 133 -31q114 0 139 35t52 323l22 -2q-10 -143 -10 -195zM1845 768q0 448 -213 840l41 24q156 -251 214 -454q125 -436 -10 -861q-69 -217 -198 -411l-43 18q209 396 209 844zM94 760
q0 426 277 885l41 -25q-92 -156 -154 -375t-63 -487q0 -446 219 -846l-43 -23q-147 264 -212 459t-65 412z" />
    <glyph glyph-name="tenideographicparen" unicode="&#x3229;" 
d="M985 297v602h-510q-41 0 -76 -16l-45 63q55 -6 95 -6h536v670l131 -80l-61 -62v-528h438l66 107l114 -148h-618v-549l2 -233q2 -27 2 -84l-82 -64l4 101q4 168 4 227zM1845 768q0 448 -213 840l41 24q156 -251 214 -454q125 -436 -10 -861q-69 -217 -198 -411l-43 18
q209 396 209 844zM94 760q0 426 277 885l41 -25q-92 -156 -154 -375t-63 -487q0 -446 219 -846l-43 -23q-147 264 -212 459t-65 412z" />
    <glyph glyph-name="ideographicstockparen" unicode="&#x3231;" 
d="M872 750q0 -27 -9 -45t-19 -19q-43 0 -51 53q-16 111 -103 187v-480q0 -242 1 -291t-5 -58t-31 -19t-28 -10q-14 0 -13 34q6 139 7 328v547q-78 -252 -238 -528l-12 12q152 346 225 688h-74q-61 -1 -100 -21l-41 62q49 -8 106 -8h134v141q0 129 -7 215l105 -45
q12 -6 12 -13t-12 -20l-29 -28v-250h74l47 69l63 -71q16 -20 17 -25q0 -6 -21 -6h-180v-191q182 -101 182 -208zM186 760q0 377 277 780l41 -24q-229 -338 -230 -758q0 -375 232 -746l-43 -18q-147 231 -212 403t-65 363zM1853 757q-1 -193 -69 -386t-197 -361l-43 13
q88 147 137 282q-67 -3 -89 -29q-10 -12 -14 -12q-5 0 -15 8q-117 96 -178 214q-60 118 -109 341v-391q0 -207 6 -311q0 -32 -31 -52q-31 -19 -37 -20q-14 0 -14 41q4 188 4 328v350q-106 -261 -238 -414q-69 -80 -198 -208l-10 20q147 170 229 309t164 348h-147
q-68 0 -99 -18l-41 55q74 -4 107 -4h233v289h-196q-61 -135 -115 -223l-23 12q90 201 156 502l100 -58q10 -4 11 -8q0 -6 -13 -12q-34 -8 -56 -64t-46 -114h182v143q0 104 -4 223l119 -57q12 -6 12 -13t-16 -18l-39 -20v-258h158l51 80l80 -82q14 -14 14 -24t-20 -9h-283
v-289h260l51 94l92 -96q12 -12 13 -20q0 -10 -17 -11h-379q72 -216 165 -328t231 -163q74 205 73 414q0 395 -225 757l41 21q156 -222 214 -400t58 -371z" />
    <glyph glyph-name="ideographiccorrectcircle" unicode="&#x32a3;" 
d="M629 1206h719l65 99l117 -103q18 -14 18 -27t-26 -14h-406v-352h244l65 88l91 -88q25 -20 24 -33q0 -12 -33 -12h-391v-414h279l90 94l100 -98q16 -16 17 -27q0 -14 -25 -14h-956q-74 0 -125 -20l-52 73q90 -8 136 -8h120v303q0 147 -8 299l137 -75q16 -6 17 -15
q0 -8 -17 -18l-53 -31v-463h260v811h-366q-74 0 -125 -20l-51 73q90 -8 135 -8zM1026 1513q-195 0 -368 -100t-274 -270t-101 -374t101 -373t274 -265t372 -96t366 91t266 260t99 389t-102 388t-270 259t-363 91zM219 769q0 221 111 405t298 294t399 109q212 0 393 -98
q181 -99 293 -281t112 -423t-109 -424t-289 -281t-396 -98t-403 104t-298 288t-111 405z" />
    <glyph glyph-name="squaremg" unicode="&#x338e;" 
d="M1268 -218q0 -60 43 -94t171 -34t230 58t103 167q0 141 -244 141l-139 -6q-80 -44 -122 -108t-42 -124zM1524 895q-68 0 -108 -73t-40 -217t46 -225t114 -81t111 79q41 79 41 218q0 299 -164 299zM1337 156q0 -41 131 -41l52 2q182 8 277 -46t95 -165q0 -78 -48 -148
t-144 -112t-228 -43q-132 0 -198 49q-68 48 -68 122t45 139t119 110q-53 12 -86 44q-33 33 -33 73t45 82t113 69q-72 49 -110 133q-37 84 -37 181t37 177q39 80 101 125t131 45t107 -32q41 -29 93 -29h159v-100h-157q55 -99 55 -230q0 -67 -30 -141t-84 -125t-124 -51l-75 4
q-41 0 -63 -8t-48 -35t-27 -49zM1031 0q-62 0 -124 -6v57q51 3 69 19t17 55v530q0 221 -112 222q-49 1 -82 -45t-76 -173v-536q0 -45 12 -57t64 -15v-57q-63 6 -125 6t-125 -6v57q49 3 60 15t12 57v500q0 133 -23 194t-77 61t-86 -35q-32 -36 -83 -149v-567q0 -39 14 -53
t70 -23v-57q-63 6 -135 6t-133 -6v57q54 5 70 21t16 55v680h-86v51q106 14 156 107q14 20 21 20q7 1 3 -51t-4 -156q88 174 186 174q145 0 172 -204q38 102 90 153t103 51q197 0 197 -295v-532q0 -45 10 -58t55 -16v-57q-64 6 -126 6z" />
    <glyph glyph-name="squarekg" unicode="&#x338f;" 
d="M1157 -218q0 -60 43 -94t171 -34t231 58q102 58 102 167q0 141 -244 141l-139 -6q-80 -44 -122 -108t-42 -124zM1413 895q-67 0 -107 -73t-40 -217t46 -225t114 -81t110 79q41 79 41 218q0 299 -164 299zM1782 -94q0 -78 -48 -148t-144 -112t-228 -43q-131 0 -199 49
q-67 48 -67 122t45 139t119 110q-53 12 -86 44q-33 33 -33 73t45 82t112 69q-72 49 -109 133q-38 84 -38 181t38 177t100 125t131 45t108 -32q41 -29 92 -29h160v-100h-158q55 -99 55 -230q1 -67 -29 -141t-84 -125t-124 -51l-76 4q-40 0 -62 -8t-49 -35t-26 -49
q0 -41 131 -41l51 2q181 8 277 -46t96 -165zM915 0q-84 0 -139 -6v57q74 2 74 21q0 10 -12 28l-238 371l-43 -53v-287q0 -35 17 -51t71 -29v-57q-67 6 -145 6t-138 -6v57q49 11 71 29t22 51v1161h-93v47q133 18 168 80q10 19 22 19t7 -31l-2 -96v-817l254 315q20 23 20 39
t-57 18v52q143 -15 244 0v-52q-61 -10 -86 -23t-60 -57l-196 -243l254 -398q30 -47 56 -67t69 -27v-57q-56 6 -140 6z" />
    <glyph glyph-name="squaremm" unicode="&#x339c;" 
d="M1798 0q-55 0 -115 -6v59q47 3 63 19t17 57v514q0 231 -104 231q-45 0 -71 -47t-52 -178v-522q0 -49 10 -60t60 -14v-59q-62 6 -118 6t-114 -6v59q44 1 56 15t12 59v483q0 137 -22 202t-72 65q-34 1 -54 -15q-36 -27 -80 -178v-553q0 -45 14 -58t64 -20v-59q-61 6 -127 6
t-121 -6v59q48 5 64 21t16 57v670h-80v53q98 16 144 111q8 20 16 20q8 1 5 -51t-3 -162q63 180 152 180q133 0 158 -213q25 109 67 161q43 52 90 52q180 0 180 -307v-516q1 -49 11 -60t51 -16v-59q-62 6 -117 6zM888 0q-56 0 -112 -6v59q46 3 62 19t16 57v514
q0 231 -102 231q-45 0 -72 -48t-53 -177v-522q0 -49 11 -60t58 -14v-59q-61 6 -117 6t-112 -6v59q45 3 55 15t10 59v483q0 138 -20 202t-74 65q-33 0 -58 -20t-75 -173v-553q0 -43 13 -57t65 -21v-59q-61 6 -125 6t-121 -6v59q47 5 63 21t15 57v670h-78v53q100 18 142 111
q12 20 18 20t4 -37l-2 -176q63 180 150 180q133 0 159 -213q25 109 67 161t89 52q180 0 180 -307v-516q0 -47 10 -60t52 -16v-59q-62 6 -118 6z" />
    <glyph glyph-name="squarecm" unicode="&#x339d;" 
d="M568 -31q-80 -1 -160 57t-127 168t-47 260t52 262q54 114 139 175t157 61q140 0 202 -90q23 -32 23 -62t-12 -42t-25 -13q-25 0 -53 48q-55 100 -148 100q-55 0 -106 -41t-85 -137q-34 -97 -34 -239q0 -270 129 -385q57 -50 119 -50t111 36q50 36 106 113l27 -30
q-43 -93 -115 -142q-73 -49 -153 -49zM1736 0q-62 0 -124 -6v57q51 3 68 19t18 55v530q0 221 -113 222q-49 1 -82 -45t-76 -173v-536q1 -47 13 -58t63 -14v-57q-63 6 -125 6t-125 -6v57q49 1 61 15t11 57v500q0 133 -22 194q-23 61 -77 61t-86 -35q-32 -36 -83 -149v-567
q0 -41 13 -54t71 -22v-57q-63 6 -135 6t-134 -6v57q54 5 70 21t16 55v680h-86v51q106 14 156 107q14 20 22 20q8 1 3 -51q-4 -52 -4 -156q88 174 186 174q145 0 172 -204q37 102 89 153t103 51q197 0 197 -295v-532q0 -47 10 -59t56 -15v-57q-64 6 -126 6z" />
    <glyph glyph-name="squarekm" unicode="&#x339e;" 
d="M1692 0q-55 0 -115 -6v59q47 3 63 19t17 57v514q0 231 -105 231q-44 0 -70 -47t-52 -178v-522q0 -49 10 -60t59 -14v-59q-61 6 -117 6t-114 -6v59q45 1 56 15t11 59v483q0 137 -21 202q-22 65 -73 65q-33 1 -53 -15q-35 -27 -80 -178v-553q0 -45 13 -58t65 -20v-59
q-61 6 -127 6t-121 -6v59q49 5 64 21t16 57v670h-80v53q98 16 143 111q9 20 17 20q8 1 5 -51t-3 -162q63 180 151 180q133 0 158 -213q25 109 68 161t90 52q180 0 180 -307v-516q0 -49 10 -60t51 -16v-59q-61 6 -116 6zM788 0q-84 0 -139 -6v57q74 2 74 21q0 10 -12 28
l-238 371l-43 -53v-287q0 -35 17 -51t71 -29v-57q-68 6 -146 6t-136 -6v57q48 11 70 29t22 51v1161h-92v47q133 18 167 80q9 19 21 19t8 -31l-2 -96v-817l254 315q20 23 21 37q0 18 -58 20v52q146 -15 244 0v-52q-61 -10 -86 -23t-60 -57l-196 -243l254 -398q29 -47 55 -67
t70 -27v-57q-56 6 -140 6z" />
    <glyph glyph-name="squaremsquared" unicode="&#x33a1;" 
d="M1330 0q-62 0 -124 -6v57q50 1 68 17t18 57v530q0 221 -112 222q-49 1 -82 -45t-76 -173v-536q0 -45 12 -57t64 -15v-57q-64 6 -126 6t-124 -6v57q47 3 59 15t13 57v500q0 133 -23 194t-77 61t-86 -35q-32 -36 -83 -149v-567q0 -31 7 -48t77 -28v-57q-63 6 -135 6
t-133 -6v57q53 5 69 21t17 55v680h-86v51q106 14 156 107q14 20 21 20q7 1 3 -51t-4 -156q88 174 186 174q145 0 172 -204q37 102 89 153t104 51q197 0 197 -295v-532q0 -47 10 -58t55 -16v-57q-64 6 -126 6zM1669 1180q0 92 -84 92q-68 0 -108 -94l-19 12q27 72 59 104
q33 32 85 31q52 0 92 -44t39 -94q0 -50 -24 -88q-23 -38 -89 -93t-96 -97h159q17 -1 25 15t14 65h23l-8 -143h-307q53 94 94 129q135 109 143 178q2 10 2 27z" />
    <glyph glyph-name="squarecc" unicode="&#x33c4;" 
d="M1430 -31q-80 -1 -160 57t-127 168t-47 260t53 262q53 114 138 175t157 61q146 0 203 -90q25 -34 25 -62t-14 -41q-13 -13 -26 -14q-25 0 -53 48q-55 100 -147 100q-54 0 -106 -41t-86 -137q-34 -97 -34 -239q0 -270 129 -385q57 -50 119 -50t112 36t105 113l27 -30
q-43 -93 -115 -142q-73 -49 -153 -49zM702 -31q-80 -1 -161 57q-80 58 -127 168t-47 260t53 262q53 114 138 175q86 61 158 61q142 0 202 -90q40 -61 10 -104q-12 -12 -25 -13q-25 0 -53 48q-55 100 -148 100q-55 0 -106 -41t-85 -137q-34 -97 -34 -239q0 -270 129 -385
q56 -50 118 -50t113 36q50 36 105 113l27 -30q-43 -93 -115 -142t-152 -49z" />
    <glyph glyph-name="squarekmcapital" unicode="&#x33ce;" 
d="M1765 0q-88 0 -153 -8v57q99 18 108 51q6 18 6 62v1050q0 92 -14 93q-6 0 -10 -19l-270 -1270l-304 1248q-6 20 -10 20q-10 0 -10 -61v-1061q0 -40 7 -60t30 -31t74 -22v-57q-69 8 -131 8t-119 -8v57q51 10 67 33t17 80v1061q1 55 -13 73t-59 25v59q79 -8 105 -8t104 8
l250 -1020l223 1020q78 -8 124 -8t132 8v-57q-45 -8 -62 -17q-17 -10 -23 -28t-5 -66v-1050q0 -44 6 -64t28 -30t72 -19v-57q-82 8 -170 8zM777 0q-71 0 -130 -8v57q90 2 90 31q0 12 -18 45l-361 592l-43 -60v-491q-1 -42 9 -62t38 -31t91 -24v-57q-91 8 -189 8t-164 -8v57
q51 11 74 21t29 30t6 66v1042q0 48 -6 68q-11 36 -103 47v57q72 -8 170 -8t162 8v-57q-57 -8 -81 -17q-23 -10 -29 -30t-7 -68v-473l394 520q14 18 14 31q0 35 -98 37v57q63 -8 129 -8t129 8v-57q-49 -19 -69 -35t-50 -53l-340 -449l387 -636q49 -80 111 -101v-57
q-74 8 -145 8z" />
    <glyph glyph-name="squareln" unicode="&#x33d1;" 
d="M1495 631q0 248 -137 250q-60 0 -114 -42t-105 -147v-565q0 -35 17 -50t67 -26v-57q-68 6 -136 6t-126 -6v57q47 5 63 21t16 55v698h-79v49q77 10 109 30t45 50q13 31 23 31q10 1 6 -55q-5 -56 -5 -146q43 78 106 123t123 45q98 0 166 -83t68 -236v-506q0 -41 14 -56
t53 -20v-57q-61 6 -128 6t-128 -6v57q49 5 65 19t17 57v504zM635 0q-76 0 -154 -6v57q61 5 79 21t18 55v1165h-97v56q70 0 104 14t57 46t32 34q12 0 12 -31q-4 -74 -4 -154v-1130q0 -33 22 -50t82 -26l5 -57q-80 6 -156 6z" />
    <glyph glyph-name="squarelog" unicode="&#x33d2;" 
d="M1237 -218q0 -60 43 -94t171 -34t230 58t103 167q0 141 -244 141l-139 -6q-80 -44 -122 -108t-42 -124zM811 891q-182 0 -182 -412q0 -455 186 -454q98 0 149 92q50 92 50 317t-40 341t-163 116zM1493 895q-68 0 -108 -73q-39 -73 -39 -217t46 -225t114 -81t110 79
q41 79 41 218q0 299 -164 299zM1442 -397q-131 0 -199 49q-67 48 -67 122t45 139t118 110q-53 12 -86 44q-33 33 -33 73t46 82q45 42 112 69q-137 94 -137 315q0 96 35 176t95 125t129 45t108 -32q41 -29 92 -29h160v-100h-158q55 -99 55 -230q0 -67 -30 -141
q-29 -74 -83 -125t-124 -51l-76 4q-40 0 -62 -8t-49 -35t-26 -49q0 -41 131 -41l51 2q182 8 277 -47t96 -164q0 -78 -48 -148t-144 -112t-228 -43zM524 485q0 135 41 241t107 166t135 60q149 0 229 -132t80 -361q0 -149 -38 -260t-104 -170t-151 -60q-145 1 -222 141
t-77 375zM342 0q-74 0 -152 -6v57q60 5 78 21t19 55v1165h-97v56q68 0 100 14t56 46t33 34q12 0 12 -31q-4 -74 -4 -154v-1130q0 -33 22 -50t83 -26l4 -57q-80 6 -154 6z" />
    <glyph glyph-name="squaremil" unicode="&#x33d5;" 
d="M1318 0q-83 0 -147 -8v57q68 11 87 29t20 55v666h-92v55q116 15 152 88q16 34 26 35q12 0 9 -27t-3 -129v-688q0 -35 22 -53t83 -31v-57q-74 8 -157 8zM994 0q-56 0 -111 -6v59q47 3 62 19t16 57v514q0 231 -103 231q-45 0 -72 -48t-53 -177v-522q0 -45 11 -58t59 -16
v-59q-61 6 -117 6t-113 -6v59q45 1 55 15t11 59v483q-1 138 -21 202t-73 65q-33 0 -58 -20t-75 -173v-553q0 -39 13 -54t64 -24v-59q-61 6 -125 6t-120 -6v59q47 5 62 21t16 57v670h-78v53q100 18 141 111q12 20 18 20t5 -37l-2 -176q63 180 149 180q133 0 160 -213
q25 109 66 161q42 52 89 52q180 0 181 -307v-516q0 -45 10 -59t51 -17v-59q-62 6 -118 6zM1314 1243q-30 0 -52 23q-22 24 -23 54q0 30 23 52q24 22 54 23q30 0 52 -23t23 -53q0 -30 -23 -53q-24 -23 -54 -23zM1674 0q-73 0 -150 -6v57q60 5 78 21t18 55v1165h-96v56
q112 0 156 62q22 32 30 32q12 0 12 -31q-4 -74 -4 -154v-1130q0 -33 23 -50t86 -26v-57q-80 6 -153 6z" />
    <glyph glyph-name="cid00573" unicode="&#xe78d;" 
d="M1741 1450q-53 0 -93 38t-40 97t41 101t101 40q60 0 102 -46q44 -46 44 -136t-65 -192q-66 -100 -164 -142l-37 47q110 58 135 195q-8 -2 -24 -2z" />
    <glyph glyph-name="cid00574" unicode="&#xe78e;" 
d="M1742 1636q-73 0 -123 -49t-50 -122t51 -123t125 -50t123 48t49 122t-51 124t-124 50zM1742 1208q-105 0 -180 75t-75 183t74 181q75 73 183 73t182 -74t73 -186q0 -114 -76 -183t-181 -69z" />
    <glyph glyph-name="cid00575" unicode="&#xe78f;" 
d="M1921 1357q0 -42 -19 -78q-20 -36 -50 -36t-46 14t-43 77t-100 145q-74 82 -162 153l27 35q178 -70 249 -115t124 -120q20 -33 20 -75z" />
    <glyph glyph-name="cid00576" unicode="&#xe790;" 
d="M1399 609q0 55 40 97t97 42t97 -41t40 -99t-40 -97q-40 -40 -98 -40t-97 41t-39 97zM1399 1562q0 58 40 98t97 40t97 -40t40 -97t-40 -99t-98 -41q-58 0 -97 41q-39 40 -39 98z" />
    <glyph glyph-name="cid00577" unicode="&#xe791;" 
d="M1526 498q-53 0 -93 38t-40 97t41 100q40 41 100 41t104 -46t43 -137q0 -91 -65 -192q-66 -100 -164 -141l-37 47q110 58 135 195q-8 -2 -24 -2zM1399 1562q0 58 40 98t97 40t97 -40t40 -97t-40 -99t-98 -41q-58 0 -97 41q-39 40 -39 98z" />
    <glyph glyph-name="cid00578" unicode="&#xe792;" 
d="M1608 296q0 -50 -36 -86t-87 -36t-87 36t-36 87t36 87t88 36t87 -37t35 -87zM1485 1751q51 0 77 -28t25 -72l-22 -363q-45 -672 -47 -721h-66q-2 79 -47 738l-23 346q0 45 26 73t77 27z" />
    <glyph glyph-name="cid00579" unicode="&#xe793;" 
d="M1333 298q0 50 37 86t88 36t87 -36t36 -87t-36 -87t-88 -36t-88 37t-36 87zM1486 1692q-167 0 -274 -107q-49 -45 -60 -90t-11 -121q0 -111 -94 -110q-43 0 -73 28t-30 82q0 96 70 182t196 140t285 55q158 0 277 -49q120 -49 186 -134t65 -192q0 -190 -213 -309
q-150 -84 -212 -139t-82 -131t-21 -232h-74q1 158 17 247t73 162t181 146q160 100 160 256t-100 236q-99 80 -266 80z" />
    <glyph glyph-name="cid00592" unicode="&#xe794;" 
d="M1024 416q344 0 566 -137t335 -324v530h-1802v-530q113 187 335 324t566 137zM76 -170v702h1896v-702h-35q-115 250 -349 394t-564 144t-564 -144t-349 -394h-35z" />
    <glyph glyph-name="cid00593" unicode="&#xe795;" 
d="M1024 1141q-344 0 -566 137t-335 324v-531h1802v531q-113 -187 -335 -324t-566 -137zM1024 1188q330 0 564 144t349 394h35v-702h-1896v702h35q115 -250 349 -394t564 -144z" />
    <glyph glyph-name="twodotleader.vertical" unicode="&#xfe30;" orientation="v" 
d="M887 302q0 56 40 97t97 41t97 -41t40 -98t-40 -97t-98 -40t-97 41t-39 97zM887 1255q0 57 40 97t97 41q57 0 97 -40q40 -39 40 -97t-40 -99t-98 -41t-97 41t-39 98z" />
    <glyph glyph-name="emdash.vertical" unicode="&#xfe31;" orientation="v" 
d="M1055 1800v-2046h-60v2046h60z" />
    <glyph glyph-name="underscore.vertical" unicode="&#xfe33;" orientation="v" 
d="M0 -246v2048h66v-2048h-66z" />
    <glyph glyph-name="wavyunderscore.vertical" unicode="&#xfe34;" orientation="v" 
d="M262 1646q0 -100 -62 -184t-62 -156t62 -183q64 -111 64 -185t-63 -156t-63 -154t62 -180q62 -110 62 -214t-41 -164q-84 -120 -84 -180t64 -136h-72q-59 76 -59 142t80 186q51 80 51 152q-1 72 -65 195q-64 124 -64 197q0 74 64 160t63 150q1 64 -63 181
q-64 118 -64 188q0 71 64 165t65 178q0 84 -72 154h72q61 -57 61 -156z" />
    <glyph glyph-name="parenleft.fullwidth.vertical" unicode="&#xfe35;" orientation="v" 
d="M1027 467q341 0 585 -166t370 -438l-43 -33q-133 240 -369 375q-237 135 -546 135t-546 -135t-369 -375l-43 33q128 276 374 440t587 164z" />
    <glyph glyph-name="parenright.fullwidth.vertical" unicode="&#xfe36;" orientation="v" 
d="M1024 1217q309 0 546 135t369 374l43 -32q-128 -277 -374 -441q-246 -163 -587 -163t-585 166t-370 438l43 32q133 -240 369 -374t546 -135z" />
    <glyph glyph-name="braceleft.fullwidth.vertical" unicode="&#xfe37;" orientation="v" 
d="M749 88q185 0 222 73q18 36 18 99q0 35 35 35t35 -35q0 -63 18 -99q36 -73 256 -73l123 4q84 6 129 6q201 0 287 -66t110 -190l-40 -12q-25 84 -95 124t-231 40l-117 -4q-80 -6 -169 -6t-161 24q-73 24 -101 62q-28 39 -42 100h-4q-14 -61 -43 -100q-65 -88 -303 -86
l-117 4q-80 6 -127 6q-162 0 -232 -40t-94 -124l-40 12q24 123 110 190t287 66l117 -4q84 -6 169 -6z" />
    <glyph glyph-name="braceright.fullwidth.vertical" unicode="&#xfe38;" orientation="v" 
d="M1299 1468q-184 0 -222 -72q-18 -36 -18 -100q0 -34 -35 -34t-35 34q0 64 -18 100q-36 72 -256 72l-123 -4q-84 -6 -129 -6q-201 0 -287 67t-110 189l40 12q25 -84 95 -124t231 -39l117 4q80 6 169 6t161 -24q73 -25 101 -63t42 -100h4q14 60 43 100q64 86 303 87l117 -4
q80 -6 127 -6q162 0 232 40t94 123l40 -12q-24 -122 -110 -189t-287 -67l-117 4q-84 6 -169 6z" />
    <glyph glyph-name="tortoiseshellbracketleft.vertical" unicode="&#xfe39;" orientation="v" 
d="M1710 266h-1372l-207 -436l-65 35l223 477h1470l223 -477l-65 -35z" />
    <glyph glyph-name="tortoiseshellbracketright.vertical" unicode="&#xfe3a;" orientation="v" 
d="M289 1214l-223 478l65 34l207 -436h1372l207 436l65 -34l-223 -478h-1470z" />
    <glyph glyph-name="blacklenticularbracketleft.vertical" unicode="&#xfe3b;" orientation="v" 
d="M76 -170v702h1896v-702h-35q-115 250 -349 394t-564 144t-564 -144t-349 -394h-35z" />
    <glyph glyph-name="blacklenticularbracketright.vertical" unicode="&#xfe3c;" orientation="v" 
d="M1024 1188q330 0 564 144t349 394h35v-702h-1896v702h35q115 -250 349 -394t564 -144z" />
    <glyph glyph-name="dblanglebracketleft.vertical" unicode="&#xfe3d;" orientation="v" 
d="M76 -125l948 545l948 -545l-28 -45l-920 528l-920 -528zM76 150l948 542l948 -542l-28 -46l-920 527l-920 -527z" />
    <glyph glyph-name="dblanglebracketright.vertical" unicode="&#xfe3e;" orientation="v" 
d="M1972 1407l-948 -543l-948 543l28 45l920 -526l920 526zM1972 1681l-948 -544l-948 544l28 45l920 -528l920 528z" />
    <glyph glyph-name="anglebracketleft.vertical" unicode="&#xfe3f;" orientation="v" 
d="M1024 604l-909 -774l-49 57l958 815l958 -815l-49 -57z" />
    <glyph glyph-name="anglebracketright.vertical" unicode="&#xfe40;" orientation="v" 
d="M1024 952l909 774l49 -57l-958 -815l-958 815l49 57z" />
    <glyph glyph-name="cornerbracketleft.vertical" unicode="&#xfe41;" orientation="v" 
d="M1972 -170h-78v598h-1460v78h1538v-676z" />
    <glyph glyph-name="cornerbracketright.vertical" unicode="&#xfe42;" orientation="v" 
d="M76 1726h78v-598h1460v-77h-1538v675z" />
    <glyph glyph-name="whitecornerbracketleft.vertical" unicode="&#xfe43;" orientation="v" 
d="M522 496v-185h1211v-434h192v619h-1403zM475 264v279h1497v-713h-286v434h-1211z" />
    <glyph glyph-name="whitecornerbracketright.vertical" unicode="&#xfe44;" orientation="v" 
d="M1526 1061v184h-1211v434h-192v-618h1403zM1573 1292v-278h-1497v712h286v-434h1211z" />
    <glyph glyph-name="overlinedashed" unicode="&#xfe49;" 
d="M1792 1577v-49h-289v49h289zM1169 1577v-49h-288v49h288zM545 1577v-49h-289v49h289z" />
    <glyph glyph-name="overlinecenterline" unicode="&#xfe4a;" 
d="M1792 1575v-49h-473v49h473zM729 1575v-49h-473v49h473zM1075 1550q0 -20 -14 -34q-15 -14 -35 -14t-34 14t-15 34q0 20 14 34t35 15q21 0 35 -14q14 -15 14 -35z" />
    <glyph glyph-name="overlinewavy" unicode="&#xfe4b;" 
d="M1913 1573q-59 0 -180 -84q-59 -41 -164 -41t-211 62t-184 62q-76 0 -154 -63q-82 -63 -157 -63t-185 63t-182 63t-156 -62t-182 -62t-158 61v72q72 -72 155 -72q83 1 177 65t169 64t189 -64t176 -63q64 0 154 68q84 59 157 59t197 -64t194 -65q72 0 172 66
q100 65 166 65t142 -59v-72q-76 64 -135 64z" />
    <glyph glyph-name="overlinedblwavy" unicode="&#xfe4c;" 
d="M1912 1462q-54 0 -179 -86q-57 -39 -162 -39t-215 63q-110 62 -182 62q-70 0 -150 -63t-160 -63t-188 64t-178 64q-68 0 -154 -63t-187 -63t-157 59v61q72 -72 155 -72t177 64t169 66q75 0 189 -64t176 -64q64 0 151 64t160 64t197 -65t194 -65q72 0 172 66t166 66
t142 -60v-61q-82 65 -136 65zM1912 1585q-54 0 -179 -86q-57 -39 -162 -39t-215 63t-182 63q-70 0 -150 -64t-160 -64t-188 65t-178 65q-68 0 -154 -64t-187 -64t-157 60v61q72 -72 155 -72q83 1 177 65t169 64t189 -64t176 -63q64 0 154 68q84 59 157 59t197 -64t194 -65
q72 0 172 66q100 65 166 65t142 -59v-61q-82 65 -136 65z" />
    <glyph glyph-name="lowlinedashed" unicode="&#xfe4d;" 
d="M1792 35v-49h-289v49h289zM1169 35v-49h-288v49h288zM545 35v-49h-289v49h289z" />
    <glyph glyph-name="lowlinecenterline" unicode="&#xfe4e;" 
d="M1792 35v-49h-473v49h473zM729 35v-49h-473v49h473zM1075 10q0 -20 -14 -34q-15 -14 -35 -15q-20 0 -35 14q-14 15 -14 35t14 34t35 15q21 0 35 -14q14 -15 14 -35z" />
    <glyph glyph-name="underscorewavy" unicode="&#xfe4f;" 
d="M1913 43q-59 0 -180 -84q-59 -41 -164 -41t-211 62t-184 63q-76 0 -156 -63q-80 -64 -155 -64t-185 64t-182 63q-72 0 -156 -62q-84 -63 -182 -63t-158 62v71q138 -138 340 -2q86 59 161 59t189 -63t176 -63q64 0 151 63t160 63t197 -64t194 -64q72 0 152 51
q120 80 186 80t142 -60v-71q-76 63 -135 63z" />
    <glyph glyph-name="commasmall" unicode="&#xfe50;" 
d="M1063 16q0 41 -37 36q-36 -6 -62 12t-33 47t9 57q25 37 69 37t85 -37q47 -47 47 -118q0 -72 -52 -146t-141 -125l-26 33q85 67 111 104t30 94v6z" />
    <glyph glyph-name="uniFE51" unicode="&#xfe51;" 
d="M1090 10q-22 0 -32 10q-11 10 -30 52q-49 106 -190 217l20 26q127 -49 178 -82q52 -33 78 -72t26 -71t-14 -56t-36 -24z" />
    <glyph glyph-name="periodsmall" unicode="&#xfe52;" 
d="M1024 0q-38 0 -64 27t-26 63t27 65q27 27 63 27t65 -28q28 -28 28 -64t-28 -63t-65 -27z" />
    <glyph glyph-name="semicolonsmall" unicode="&#xfe54;" 
d="M1014 203q46 0 80 -33q53 -47 53 -120q0 -72 -55 -148t-154 -129l-25 37q134 82 154 202q0 44 -51 38q-28 -2 -52 16t-29 48t14 60t65 29zM938 579q0 35 26 61t62 26t63 -26q25 -26 25 -62t-27 -62q-27 -24 -63 -24t-60 26q-26 26 -26 61z" />
    <glyph glyph-name="colonsmallsmall" unicode="&#xfe55;" 
d="M936 83q0 39 26 65t62 26t64 -27q26 -27 26 -65t-27 -63t-63 -25t-62 26t-26 63zM938 579q0 35 26 61t62 26t63 -26q25 -26 25 -62t-27 -62q-27 -24 -63 -24t-60 26q-26 26 -26 61z" />
    <glyph glyph-name="uniFE56" unicode="&#xfe56;" 
d="M1022 -31q-34 0 -56 23q-24 22 -24 56t25 58t57 23q32 0 56 -25t24 -57t-24 -55t-58 -23zM1002 913q-36 0 -73 -17q-36 -17 -43 -44t10 -48t17 -46q-1 -25 -23 -41t-54 -7t-33 46q0 105 106 162q68 35 154 34q127 0 191 -70t65 -164q0 -94 -42 -145t-167 -122
q-41 -25 -53 -45t-15 -64l-6 -139h-43l-6 192q0 41 22 73t93 79q112 76 112 175t-77 160q-33 26 -66 28t-69 3z" />
    <glyph glyph-name="uniFE57" unicode="&#xfe57;" 
d="M1026 -31q-34 0 -60 24q-24 25 -24 59t25 59t59 25t58 -26q24 -24 24 -58t-24 -58q-24 -25 -58 -25zM1022 975q34 0 58 -37q22 -37 18 -80l-56 -633h-45l-49 633q-4 43 18 80t56 37z" />
    <glyph glyph-name="parenleftsmall" unicode="&#xfe59;" 
d="M934 590q0 -182 66 -344q66 -160 217 -307l-21 -23q-274 240 -337 449q-32 105 -32 257t91 319q90 167 274 312l31 -20q-137 -119 -213 -290t-76 -353z" />
    <glyph glyph-name="parenrightsmall" unicode="&#xfe5a;" 
d="M1206 610q0 -385 -350 -667l-25 24q131 127 198 295t67 348q0 373 -271 629l21 25q188 -146 274 -315t86 -339z" />
    <glyph glyph-name="braceleftsmall" unicode="&#xfe5b;" 
d="M967 183q0 79 16 172t16 147t-32 71q-33 18 -127 21v43q84 -3 124 23t46 92t-14 165t-19 138q0 86 50 133t171 84l8 -29q-86 -27 -121 -61t-35 -94t24 -157t24 -145q1 -93 -117 -172q102 -47 102 -153q1 -49 -23 -145t-24 -164q0 -66 38 -102t132 -68l-18 -35
q-123 41 -172 99t-49 137z" />
    <glyph glyph-name="bracerightsmall" unicode="&#xfe5c;" 
d="M1196 594q-92 0 -117 -64t-5 -174q20 -112 20 -194t-50 -133t-174 -86l-14 34q96 33 132 65t36 96t-24 162t-23 126q0 121 113 186q-53 35 -77 74t-24 96q-1 56 19 148t20 152t-39 99q-39 38 -133 66l14 37q127 -33 174 -93t48 -181l-17 -256q0 -76 32 -100t120 -19v-43
q-11 2 -31 2z" />
    <glyph glyph-name="tortoiseshellbracketleftsmall" unicode="&#xfe5d;" 
d="M825 1087l340 158l25 -49l-309 -149v-908l309 -145l-25 -53l-340 161v985z" />
    <glyph glyph-name="tortoiseshellbracketrightsmall" unicode="&#xfe5e;" 
d="M1145 94v907l-311 152l24 49l342 -160v-985l-342 -161l-24 53z" />
    <glyph glyph-name="numbersignsmall" unicode="&#xfe5f;" 
d="M1157 446l23 312h-258l-23 -312h258zM1202 446h299l-12 -71h-291l-31 -373h-41l27 373h-258l-31 -371h-41l27 371h-291l10 71h285l23 312h-295l10 69h291l28 326h41l-24 -326h258l28 324h41l-22 -324h289l-9 -69h-286z" />
    <glyph glyph-name="uniFE60" unicode="&#xfe60;" 
d="M813 88q59 0 115 36t129 128q-95 131 -238 289q-82 -31 -145 -108q-64 -77 -64 -149t51 -134t152 -62zM887 983q-59 0 -96 -46q-37 -47 -37 -109t22 -103t92 -104q90 41 122 88t32 117t-38 113q-38 44 -97 44zM1327 -4q-90 0 -235 211q-92 -115 -162 -163t-148 -48
t-141 41q-131 85 -131 245q0 159 274 298q-62 66 -80 106t-18 122q0 81 56 154q56 72 142 72t147 -60q60 -60 61 -159q0 -166 -187 -235q109 -117 215 -248q38 47 108 149t70 123q0 20 -25 26q-26 5 -97 5v47h329v-47q-69 0 -93 -9t-48 -44l-211 -293q80 -109 128 -156
t93 -47t107 90l37 -24q-101 -156 -191 -156z" />
    <glyph glyph-name="asterisksmall" unicode="&#xfe61;" 
d="M1090 555q0 -61 -62 -61q-68 0 -57 84l45 260l-203 -174q-29 -23 -57 -23q-28 1 -42 23q-13 22 -14 38q0 35 56 64l245 92l-249 86q-53 23 -54 62q0 14 11 34q18 29 44 29t58 -22l203 -168l-43 260q-10 84 57 84q61 0 62 -62q0 -14 -3 -22l-45 -260l203 168q69 48 103 -7
q10 -20 10 -34q0 -39 -53 -62l-250 -86l245 -92q55 -29 56 -64q0 -16 -13 -38t-43 -23q-30 0 -57 23l-201 174l45 -260q3 -9 3 -23z" />
    <glyph glyph-name="plussmall" unicode="&#xfe62;" 
d="M993 113v471h-485v61h485v473h64v-473h454v-61h-454v-471h-64z" />
    <glyph glyph-name="hyphensmall" unicode="&#xfe63;" 
d="M1526 645v-61h-1006v61h1006z" />
    <glyph glyph-name="lesssmall" unicode="&#xfe64;" 
d="M1499 211l-1038 399l1042 447l25 -56l-912 -387l904 -348z" />
    <glyph glyph-name="greatersmall" unicode="&#xfe65;" 
d="M1421 608l-903 381l27 53l1032 -434l-1038 -405l-21 55z" />
    <glyph glyph-name="equalsmall" unicode="&#xfe66;" 
d="M1538 508v-64h-1022v64h1022zM1530 782v-63h-1006v63h1006z" />
    <glyph glyph-name="uniFE68" unicode="&#xfe68;" 
d="M524 1288l1086 -1470l-51 -33l-1090 1475z" />
    <glyph glyph-name="dollarsmall" unicode="&#xfe69;" 
d="M1270 299q0 86 -58 138t-174 95v-438q98 5 165 62t67 143zM791 860q0 -55 15 -89q28 -64 195 -124v406q-90 -3 -150 -54t-60 -139zM1352 334q0 -112 -85 -194q-85 -81 -229 -89v-153h-37v151q-168 4 -288 64l-21 252h35q33 -262 274 -271v453q-117 37 -178 76
q-113 73 -113 217q1 144 145 218q67 34 146 36v168h37v-168q100 -2 234 -39l20 -209h-32q-25 104 -80 152t-142 55v-420q168 -49 241 -118t73 -181z" />
    </font>
</defs>
</svg>
